<svg xmlns="http://www.w3.org/2000/svg" xmlns:xlink="http://www.w3.org/1999/xlink" contentStyleType="text/css" height="654px" preserveAspectRatio="none" style="width:763px;height:654px;background:#FFFFFF;" version="1.1" viewBox="0 0 763 654" width="763px" zoomAndPan="magnify"><title>Modelo F&#237;sico - SQLite - Imobili&#225;ria R.M</title><defs/><g><text fill="#000000" font-family="sans-serif" font-size="14" font-weight="bold" lengthAdjust="spacing" textLength="262.9102" x="243.4272" y="24.5332">Modelo F&#237;sico - SQLite - Imobili&#225;ria R.M</text><!--class clientes--><g id="elem_clientes"><rect codeLine="4" fill="#F1F1F1" height="114.0469" id="clientes" rx="2.5" ry="2.5" style="stroke:#181818;stroke-width:0.5;" width="200.2822" x="7" y="63.1094"/><text fill="#000000" font-family="sans-serif" font-size="14" lengthAdjust="spacing" textLength="47.4688" x="83.4067" y="82.6426">clientes</text><line style="stroke:#181818;stroke-width:0.5;" x1="8" x2="206.2822" y1="90.7188" y2="90.7188"/><ellipse cx="18" cy="105.0234" fill="#000000" rx="3" ry="3" style="stroke:#000000;stroke-width:1;"/><text fill="#000000" font-family="sans-serif" font-size="14" lengthAdjust="spacing" textLength="122.9307" x="27" y="109.252">id : INTEGER &#171;PK&#187;</text><line style="stroke:#181818;stroke-width:1;" x1="8" x2="206.2822" y1="116.3281" y2="116.3281"/><ellipse cx="18" cy="130.6328" fill="#000000" rx="3" ry="3" style="stroke:#000000;stroke-width:1;"/><text fill="#000000" font-family="sans-serif" font-size="14" lengthAdjust="spacing" textLength="82.4688" x="27" y="134.8613">nome : TEXT</text><ellipse cx="18" cy="148.2422" fill="#000000" rx="3" ry="3" style="stroke:#000000;stroke-width:1;"/><text fill="#000000" font-family="sans-serif" font-size="14" lengthAdjust="spacing" textLength="174.2822" x="27" y="152.4707">possui_criancas : INTEGER</text><ellipse cx="18" cy="165.8516" fill="#000000" rx="3" ry="3" style="stroke:#000000;stroke-width:1;"/><text fill="#000000" font-family="sans-serif" font-size="14" lengthAdjust="spacing" textLength="112.8135" x="27" y="170.0801">criado_em : TEXT</text></g><!--class imoveis--><g id="elem_imoveis"><rect codeLine="11" fill="#F1F1F1" height="149.2656" id="imoveis" rx="2.5" ry="2.5" style="stroke:#181818;stroke-width:0.5;" width="232.2061" x="242" y="45.6094"/><text fill="#000000" font-family="sans-serif" font-size="14" lengthAdjust="spacing" textLength="47.4551" x="334.3755" y="65.1426">imoveis</text><line style="stroke:#181818;stroke-width:0.5;" x1="243" x2="473.2061" y1="73.2188" y2="73.2188"/><ellipse cx="253" cy="87.5234" fill="#000000" rx="3" ry="3" style="stroke:#000000;stroke-width:1;"/><text fill="#000000" font-family="sans-serif" font-size="14" lengthAdjust="spacing" textLength="122.9307" x="262" y="91.752">id : INTEGER &#171;PK&#187;</text><line style="stroke:#181818;stroke-width:1;" x1="243" x2="473.2061" y1="98.8281" y2="98.8281"/><ellipse cx="253" cy="113.1328" fill="#000000" rx="3" ry="3" style="stroke:#000000;stroke-width:1;"/><text fill="#000000" font-family="sans-serif" font-size="14" lengthAdjust="spacing" textLength="70.0205" x="262" y="117.3613">tipo : TEXT</text><ellipse cx="253" cy="130.7422" fill="#000000" rx="3" ry="3" style="stroke:#000000;stroke-width:1;"/><text fill="#000000" font-family="sans-serif" font-size="14" lengthAdjust="spacing" textLength="206.2061" x="262" y="134.9707">valor_base_centavos : INTEGER</text><ellipse cx="253" cy="148.3516" fill="#000000" rx="3" ry="3" style="stroke:#000000;stroke-width:1;"/><text fill="#000000" font-family="sans-serif" font-size="14" lengthAdjust="spacing" textLength="197.668" x="262" y="152.5801">quantidade_quartos : INTEGER</text><ellipse cx="253" cy="165.9609" fill="#000000" rx="3" ry="3" style="stroke:#000000;stroke-width:1;"/><text fill="#000000" font-family="sans-serif" font-size="14" lengthAdjust="spacing" textLength="188.3301" x="262" y="170.1895">quantidade_vagas : INTEGER</text><ellipse cx="253" cy="183.5703" fill="#000000" rx="3" ry="3" style="stroke:#000000;stroke-width:1;"/><text fill="#000000" font-family="sans-serif" font-size="14" lengthAdjust="spacing" textLength="112.8135" x="262" y="187.7988">criado_em : TEXT</text></g><!--class contratos--><g id="elem_contratos"><rect codeLine="20" fill="#F1F1F1" height="131.6563" id="contratos" rx="2.5" ry="2.5" style="stroke:#181818;stroke-width:0.5;" width="247.7646" x="509" y="54.1094"/><text fill="#000000" font-family="sans-serif" font-size="14" lengthAdjust="spacing" textLength="57.5859" x="604.0894" y="73.6426">contratos</text><line style="stroke:#181818;stroke-width:0.5;" x1="510" x2="755.7646" y1="81.7188" y2="81.7188"/><ellipse cx="520" cy="96.0234" fill="#000000" rx="3" ry="3" style="stroke:#000000;stroke-width:1;"/><text fill="#000000" font-family="sans-serif" font-size="14" lengthAdjust="spacing" textLength="122.9307" x="529" y="100.252">id : INTEGER &#171;PK&#187;</text><line style="stroke:#181818;stroke-width:1;" x1="510" x2="755.7646" y1="107.3281" y2="107.3281"/><ellipse cx="520" cy="121.6328" fill="#000000" rx="3" ry="3" style="stroke:#000000;stroke-width:1;"/><text fill="#000000" font-family="sans-serif" font-size="14" lengthAdjust="spacing" textLength="202.3096" x="529" y="125.8613">valor_total_centavos : INTEGER</text><ellipse cx="520" cy="139.2422" fill="#000000" rx="3" ry="3" style="stroke:#000000;stroke-width:1;"/><text fill="#000000" font-family="sans-serif" font-size="14" lengthAdjust="spacing" textLength="203.8887" x="529" y="143.4707">quantidade_parcelas : INTEGER</text><ellipse cx="520" cy="156.8516" fill="#000000" rx="3" ry="3" style="stroke:#000000;stroke-width:1;"/><text fill="#000000" font-family="sans-serif" font-size="14" lengthAdjust="spacing" textLength="221.7646" x="529" y="161.0801">valor_parcela_centavos : INTEGER</text><ellipse cx="520" cy="174.4609" fill="#000000" rx="3" ry="3" style="stroke:#000000;stroke-width:1;"/><text fill="#000000" font-family="sans-serif" font-size="14" lengthAdjust="spacing" textLength="112.8135" x="529" y="178.6895">criado_em : TEXT</text></g><!--class orcamentos--><g id="elem_orcamentos"><rect codeLine="28" fill="#F1F1F1" height="184.4844" id="orcamentos" rx="2.5" ry="2.5" style="stroke:#181818;stroke-width:0.5;" width="279.6748" x="218" y="254.6094"/><text fill="#000000" font-family="sans-serif" font-size="14" lengthAdjust="spacing" textLength="73.1445" x="321.2651" y="274.1426">orcamentos</text><line style="stroke:#181818;stroke-width:0.5;" x1="219" x2="496.6748" y1="282.2188" y2="282.2188"/><ellipse cx="229" cy="296.5234" fill="#000000" rx="3" ry="3" style="stroke:#000000;stroke-width:1;"/><text fill="#000000" font-family="sans-serif" font-size="14" lengthAdjust="spacing" textLength="122.9307" x="238" y="300.752">id : INTEGER &#171;PK&#187;</text><line style="stroke:#181818;stroke-width:1;" x1="219" x2="496.6748" y1="307.8281" y2="307.8281"/><ellipse cx="229" cy="322.1328" fill="#000000" rx="3" ry="3" style="stroke:#000000;stroke-width:1;"/><text fill="#000000" font-family="sans-serif" font-size="14" lengthAdjust="spacing" textLength="170.3994" x="238" y="326.3613">cliente_id : INTEGER &#171;FK&#187;</text><ellipse cx="229" cy="339.7422" fill="#000000" rx="3" ry="3" style="stroke:#000000;stroke-width:1;"/><text fill="#000000" font-family="sans-serif" font-size="14" lengthAdjust="spacing" textLength="170.3857" x="238" y="343.9707">imovel_id : INTEGER &#171;FK&#187;</text><ellipse cx="229" cy="357.3516" fill="#000000" rx="3" ry="3" style="stroke:#000000;stroke-width:1;"/><text fill="#000000" font-family="sans-serif" font-size="14" lengthAdjust="spacing" textLength="209.2959" x="238" y="361.5801">contrato_id : INTEGER &#171;FK, UQ&#187;</text><ellipse cx="229" cy="374.9609" fill="#000000" rx="3" ry="3" style="stroke:#000000;stroke-width:1;"/><text fill="#000000" font-family="sans-serif" font-size="14" lengthAdjust="spacing" textLength="235.7852" x="238" y="379.1895">aluguel_mensal_centavos : INTEGER</text><ellipse cx="229" cy="392.5703" fill="#000000" rx="3" ry="3" style="stroke:#000000;stroke-width:1;"/><text fill="#000000" font-family="sans-serif" font-size="14" lengthAdjust="spacing" textLength="253.6748" x="238" y="396.7988">total_primeiro_ano_centavos : INTEGER</text><ellipse cx="229" cy="410.1797" fill="#000000" rx="3" ry="3" style="stroke:#000000;stroke-width:1;"/><text fill="#000000" font-family="sans-serif" font-size="14" lengthAdjust="spacing" textLength="84.7998" x="238" y="414.4082">status : TEXT</text><ellipse cx="229" cy="427.7891" fill="#000000" rx="3" ry="3" style="stroke:#000000;stroke-width:1;"/><text fill="#000000" font-family="sans-serif" font-size="14" lengthAdjust="spacing" textLength="112.8135" x="238" y="432.0176">criado_em : TEXT</text></g><!--class itens_orcamento--><g id="elem_itens_orcamento"><rect codeLine="39" fill="#F1F1F1" height="149.2656" id="itens_orcamento" rx="2.5" ry="2.5" style="stroke:#181818;stroke-width:0.5;" width="222.0752" x="118" y="498.6094"/><text fill="#000000" font-family="sans-serif" font-size="14" lengthAdjust="spacing" textLength="103.5029" x="177.2861" y="518.1426">itens_orcamento</text><line style="stroke:#181818;stroke-width:0.5;" x1="119" x2="339.0752" y1="526.2188" y2="526.2188"/><ellipse cx="129" cy="540.5234" fill="#000000" rx="3" ry="3" style="stroke:#000000;stroke-width:1;"/><text fill="#000000" font-family="sans-serif" font-size="14" lengthAdjust="spacing" textLength="122.9307" x="138" y="544.752">id : INTEGER &#171;PK&#187;</text><line style="stroke:#181818;stroke-width:1;" x1="119" x2="339.0752" y1="551.8281" y2="551.8281"/><ellipse cx="129" cy="566.1328" fill="#000000" rx="3" ry="3" style="stroke:#000000;stroke-width:1;"/><text fill="#000000" font-family="sans-serif" font-size="14" lengthAdjust="spacing" textLength="196.0752" x="138" y="570.3613">orcamento_id : INTEGER &#171;FK&#187;</text><ellipse cx="129" cy="583.7422" fill="#000000" rx="3" ry="3" style="stroke:#000000;stroke-width:1;"/><text fill="#000000" font-family="sans-serif" font-size="14" lengthAdjust="spacing" textLength="107.3652" x="138" y="587.9707">descricao : TEXT</text><ellipse cx="129" cy="601.3516" fill="#000000" rx="3" ry="3" style="stroke:#000000;stroke-width:1;"/><text fill="#000000" font-family="sans-serif" font-size="14" lengthAdjust="spacing" textLength="70.0205" x="138" y="605.5801">tipo : TEXT</text><ellipse cx="129" cy="618.9609" fill="#000000" rx="3" ry="3" style="stroke:#000000;stroke-width:1;"/><text fill="#000000" font-family="sans-serif" font-size="14" lengthAdjust="spacing" textLength="168.0615" x="138" y="623.1895">valor_centavos : INTEGER</text><ellipse cx="129" cy="636.5703" fill="#000000" rx="3" ry="3" style="stroke:#000000;stroke-width:1;"/><text fill="#000000" font-family="sans-serif" font-size="14" lengthAdjust="spacing" textLength="113.5791" x="138" y="640.7988">ordem : INTEGER</text></g><!--class parcelas_orcamento--><g id="elem_parcelas_orcamento"><rect codeLine="48" fill="#F1F1F1" height="149.2656" id="parcelas_orcamento" rx="2.5" ry="2.5" style="stroke:#181818;stroke-width:0.5;" width="224.4131" x="375" y="498.6094"/><text fill="#000000" font-family="sans-serif" font-size="14" lengthAdjust="spacing" textLength="126.8477" x="423.7827" y="518.1426">parcelas_orcamento</text><line style="stroke:#181818;stroke-width:0.5;" x1="376" x2="598.4131" y1="526.2188" y2="526.2188"/><ellipse cx="386" cy="540.5234" fill="#000000" rx="3" ry="3" style="stroke:#000000;stroke-width:1;"/><text fill="#000000" font-family="sans-serif" font-size="14" lengthAdjust="spacing" textLength="122.9307" x="395" y="544.752">id : INTEGER &#171;PK&#187;</text><line style="stroke:#181818;stroke-width:1;" x1="376" x2="598.4131" y1="551.8281" y2="551.8281"/><ellipse cx="386" cy="566.1328" fill="#000000" rx="3" ry="3" style="stroke:#000000;stroke-width:1;"/><text fill="#000000" font-family="sans-serif" font-size="14" lengthAdjust="spacing" textLength="196.0752" x="395" y="570.3613">orcamento_id : INTEGER &#171;FK&#187;</text><ellipse cx="386" cy="583.7422" fill="#000000" rx="3" ry="3" style="stroke:#000000;stroke-width:1;"/><text fill="#000000" font-family="sans-serif" font-size="14" lengthAdjust="spacing" textLength="155.5996" x="395" y="587.9707">numero_mes : INTEGER</text><ellipse cx="386" cy="601.3516" fill="#000000" rx="3" ry="3" style="stroke:#000000;stroke-width:1;"/><text fill="#000000" font-family="sans-serif" font-size="14" lengthAdjust="spacing" textLength="182.8682" x="395" y="605.5801">aluguel_centavos : INTEGER</text><ellipse cx="386" cy="618.9609" fill="#000000" rx="3" ry="3" style="stroke:#000000;stroke-width:1;"/><text fill="#000000" font-family="sans-serif" font-size="14" lengthAdjust="spacing" textLength="188.3027" x="395" y="623.1895">contrato_centavos : INTEGER</text><ellipse cx="386" cy="636.5703" fill="#000000" rx="3" ry="3" style="stroke:#000000;stroke-width:1;"/><text fill="#000000" font-family="sans-serif" font-size="14" lengthAdjust="spacing" textLength="198.4131" x="395" y="640.7988">total_mes_centavos : INTEGER</text></g><!--link clientes to orcamentos--><g id="link_clientes_orcamentos"><path codeLine="57" d="M215.15,120.6094 C228.67,120.6094 230,120.6094 230,120.6094 C230,120.6094 230,173.8694 230,236.3594 " fill="none" id="clientes-orcamentos" style="stroke:#181818;stroke-width:1;"/><line style="stroke:#181818;stroke-width:1;" x1="211.15" x2="211.15" y1="124.6094" y2="116.6094"/><line style="stroke:#181818;stroke-width:1;" x1="214.15" x2="214.15" y1="124.6094" y2="116.6094"/><line style="stroke:#181818;stroke-width:1;" x1="215.15" x2="207.15" y1="120.6094" y2="120.6094"/><line style="stroke:#181818;stroke-width:1;" x1="230" x2="236" y1="246.3594" y2="254.3594"/><line style="stroke:#181818;stroke-width:1;" x1="230" x2="224" y1="246.3594" y2="254.3594"/><line style="stroke:#181818;stroke-width:1;" x1="230" x2="230" y1="246.3594" y2="254.3594"/><ellipse cx="230" cy="240.3594" fill="none" rx="4" ry="4" style="stroke:#181818;stroke-width:1;"/></g><!--link imoveis to orcamentos--><g id="link_imoveis_orcamentos"><path codeLine="58" d="M358,202.8994 C358,221.9694 358,216.6894 358,236.5194 " fill="none" id="imoveis-orcamentos" style="stroke:#181818;stroke-width:1;"/><line style="stroke:#181818;stroke-width:1;" x1="354" x2="362" y1="198.8994" y2="198.8994"/><line style="stroke:#181818;stroke-width:1;" x1="354" x2="362" y1="201.8994" y2="201.8994"/><line style="stroke:#181818;stroke-width:1;" x1="358" x2="358" y1="202.8994" y2="194.8994"/><line style="stroke:#181818;stroke-width:1;" x1="358" x2="364" y1="246.5194" y2="254.5194"/><line style="stroke:#181818;stroke-width:1;" x1="358" x2="352" y1="246.5194" y2="254.5194"/><line style="stroke:#181818;stroke-width:1;" x1="358" x2="358" y1="246.5194" y2="254.5194"/><ellipse cx="358" cy="240.5194" fill="none" rx="4" ry="4" style="stroke:#181818;stroke-width:1;"/></g><!--link contratos to orcamentos--><g id="link_contratos_orcamentos"><path codeLine="59" d="M500.97,120.6094 C487.19,120.6094 486,120.6094 486,120.6094 C486,120.6094 486,183.8694 486,246.3594 " fill="none" id="contratos-orcamentos" style="stroke:#181818;stroke-width:1;"/><line style="stroke:#181818;stroke-width:1;" x1="504.97" x2="504.97" y1="116.6094" y2="124.6094"/><line style="stroke:#181818;stroke-width:1;" x1="501.97" x2="501.97" y1="116.6094" y2="124.6094"/><line style="stroke:#181818;stroke-width:1;" x1="500.97" x2="508.97" y1="120.6094" y2="120.6094"/><line style="stroke:#181818;stroke-width:1;" x1="490" x2="482" y1="250.3594" y2="250.3594"/><line style="stroke:#181818;stroke-width:1;" x1="490" x2="482" y1="247.3594" y2="247.3594"/><line style="stroke:#181818;stroke-width:1;" x1="486" x2="486" y1="246.3594" y2="254.3594"/></g><!--link orcamentos to itens_orcamento--><g id="link_orcamentos_itens_orcamento"><path codeLine="60" d="M279,446.7394 C279,466.5794 279,471.3194 279,490.3994 " fill="none" id="orcamentos-itens_orcamento" style="stroke:#181818;stroke-width:1;"/><line style="stroke:#181818;stroke-width:1;" x1="275" x2="283" y1="442.7394" y2="442.7394"/><line style="stroke:#181818;stroke-width:1;" x1="275" x2="283" y1="445.7394" y2="445.7394"/><line style="stroke:#181818;stroke-width:1;" x1="279" x2="279" y1="446.7394" y2="438.7394"/><line style="stroke:#181818;stroke-width:1;" x1="279" x2="285" y1="490.3994" y2="498.3994"/><line style="stroke:#181818;stroke-width:1;" x1="279" x2="273" y1="490.3994" y2="498.3994"/><line style="stroke:#181818;stroke-width:1;" x1="279" x2="279" y1="490.3994" y2="498.3994"/><line style="stroke:#181818;stroke-width:1;" x1="283" x2="275" y1="488.3994" y2="488.3994"/></g><!--link orcamentos to parcelas_orcamento--><g id="link_orcamentos_parcelas_orcamento"><path codeLine="61" d="M436.5,446.7394 C436.5,466.5794 436.5,471.3194 436.5,490.3994 " fill="none" id="orcamentos-parcelas_orcamento" style="stroke:#181818;stroke-width:1;"/><line style="stroke:#181818;stroke-width:1;" x1="432.5" x2="440.5" y1="442.7394" y2="442.7394"/><line style="stroke:#181818;stroke-width:1;" x1="432.5" x2="440.5" y1="445.7394" y2="445.7394"/><line style="stroke:#181818;stroke-width:1;" x1="436.5" x2="436.5" y1="446.7394" y2="438.7394"/><line style="stroke:#181818;stroke-width:1;" x1="436.5" x2="442.5" y1="490.3994" y2="498.3994"/><line style="stroke:#181818;stroke-width:1;" x1="436.5" x2="430.5" y1="490.3994" y2="498.3994"/><line style="stroke:#181818;stroke-width:1;" x1="436.5" x2="436.5" y1="490.3994" y2="498.3994"/><line style="stroke:#181818;stroke-width:1;" x1="440.5" x2="432.5" y1="488.3994" y2="488.3994"/></g><!--SRC=[hLHBJiCm4Dtd5BD6X0CWnAwWYe-W58bTD3YZCiBE1Dk9L3KSXWDmYbuCDsdQq3PLaDWvVi_pdcTUxDbhWZj9IGjSBRyTAu4OdXvlsLDOZ8syikRbbsM4oTbTzCOfWMAhD4NkdRCSBHhGd96VvmHY_Pj4b7dsSr2QmueSB2A04-0Kpc5yFnrTZoPmSV5mStaPzkEu1ZCn5E3fw6LQV-VYNC692hgPGhSzMQEhxLGICksHprQJZPJ4WoGzvzALB56BJLxHKQ92DInbL_QZmA2IOaf9M5f_Z53Yx0-sbMJUughW0EEDKIyUzG2dOKAAz9wNfiWQx2lJRrYiGXFMmnolav3iaAuQqaapDTqBjztP9vp2y-EQXBgO5Q58SENw6zDqBRTiYAqac4aVqtdqXUi6v4ZgV11DDZqPqf8DkVVMARcWgF1NI0-7jkSAOjFQRBktyTjcuhyjPuMXq5L3kqxQuVJbh1tmqQc5ieS8dz7ceQcgE9P59vnH-nxi8zjVReLLLHVhfBi65xiJFi3Ox-aF]--></g></svg>