<svg xmlns="http://www.w3.org/2000/svg" xmlns:xlink="http://www.w3.org/1999/xlink" contentStyleType="text/css" height="493px" preserveAspectRatio="none" style="width:558px;height:493px;background:#FFFFFF;" version="1.1" viewBox="0 0 558 493" width="558px" zoomAndPan="magnify"><title>Diagrama de Componentes - Imobili&#225;ria R.M</title><defs/><g><text fill="#000000" font-family="sans-serif" font-size="14" font-weight="bold" lengthAdjust="spacing" textLength="293.2754" x="125.5825" y="24.5332">Diagrama de Componentes - Imobili&#225;ria R.M</text><!--entity Usu?rio--><g id="elem_Usu&#225;rio"><ellipse cx="274.1206" cy="52.6094" fill="#F1F1F1" rx="8" ry="8" style="stroke:#181818;stroke-width:0.5;"/><path d="M274.1206,60.6094 L274.1206,87.6094 M261.1206,68.6094 L287.1206,68.6094 M274.1206,87.6094 L261.1206,102.6094 M274.1206,87.6094 L287.1206,102.6094 " fill="none" style="stroke:#181818;stroke-width:0.5;"/><text fill="#000000" font-family="sans-serif" font-size="14" lengthAdjust="spacing" textLength="48.2412" x="250" y="118.6426">Usu&#225;rio</text></g><!--entity UI--><g id="elem_UI"><rect fill="#F1F1F1" height="55.2188" rx="2.5" ry="2.5" style="stroke:#181818;stroke-width:0.5;" width="120.0234" x="214" y="182.1094"/><text fill="#000000" font-family="sans-serif" font-size="14" lengthAdjust="spacing" textLength="55.2344" x="224" y="206.6426">Streamlit</text><text fill="#000000" font-family="sans-serif" font-size="14" lengthAdjust="spacing" textLength="100.0234" x="224" y="224.252">app.py + pages/</text></g><!--entity Calc--><g id="elem_Calc"><rect fill="#F1F1F1" height="37.6094" rx="2.5" ry="2.5" style="stroke:#181818;stroke-width:0.5;" width="113.3721" x="217.5" y="305.6094"/><text fill="#000000" font-family="sans-serif" font-size="14" lengthAdjust="spacing" textLength="93.3721" x="227.5" y="330.1426">CalculoService</text></g><!--entity Export--><g id="elem_Export"><rect fill="#F1F1F1" height="37.6094" rx="2.5" ry="2.5" style="stroke:#181818;stroke-width:0.5;" width="107.1445" x="75.5" y="305.6094"/><text fill="#000000" font-family="sans-serif" font-size="14" lengthAdjust="spacing" textLength="87.1445" x="85.5" y="330.1426">ExportService</text></g><!--entity Model--><g id="elem_Model"><rect fill="#F1F1F1" height="55.2188" rx="2.5" ry="2.5" style="stroke:#181818;stroke-width:0.5;" width="251.0957" x="148.5" y="416.6094"/><text fill="#000000" font-family="sans-serif" font-size="14" lengthAdjust="spacing" textLength="77.041" x="158.5" y="441.1426">Model Layer</text><text fill="#000000" font-family="sans-serif" font-size="14" lengthAdjust="spacing" textLength="231.0957" x="158.5" y="458.752">Cliente, Imovel, Contrato, Orcamento</text></g><!--entity Database--><g id="elem_Database"><rect fill="#F1F1F1" height="55.2188" rx="2.5" ry="2.5" style="stroke:#181818;stroke-width:0.5;" width="186.9404" x="365.5" y="297.1094"/><text fill="#000000" font-family="sans-serif" font-size="14" lengthAdjust="spacing" textLength="98.8408" x="375.5" y="321.6426">Database Layer</text><text fill="#000000" font-family="sans-serif" font-size="14" lengthAdjust="spacing" textLength="166.9404" x="375.5" y="339.252">connection.py + queries.py</text></g><!--entity SQLite--><g id="elem_SQLite"><path d="M435,422.1094 C435,412.1094 486.2412,412.1094 486.2412,412.1094 C486.2412,412.1094 537.4824,412.1094 537.4824,422.1094 L537.4824,466.3281 C537.4824,476.3281 486.2412,476.3281 486.2412,476.3281 C486.2412,476.3281 435,476.3281 435,466.3281 L435,422.1094 " fill="#F1F1F1" style="stroke:#181818;stroke-width:0.5;"/><path d="M435,422.1094 C435,432.1094 486.2412,432.1094 486.2412,432.1094 C486.2412,432.1094 537.4824,432.1094 537.4824,422.1094 " fill="none" style="stroke:#181818;stroke-width:0.5;"/><text fill="#000000" font-family="sans-serif" font-size="14" lengthAdjust="spacing" textLength="42.7998" x="445" y="450.6426">SQLite</text><text fill="#000000" font-family="sans-serif" font-size="14" lengthAdjust="spacing" textLength="82.4824" x="445" y="468.252">imobiliaria.db</text></g><!--entity CSV--><g id="elem_CSV"><rect fill="#F1F1F1" height="37.6094" rx="2.5" ry="2.5" style="stroke:#181818;stroke-width:0.5;" width="106.3857" x="7" y="425.1094"/><text fill="#000000" font-family="sans-serif" font-size="14" lengthAdjust="spacing" textLength="86.3857" x="17" y="449.6426">pandas / CSV</text></g><!--link Usu?rio to UI--><g id="link_Usu&#225;rio_UI"><path d="M274,122.1394 C274,141.4494 274,158.4394 274,175.8594 " fill="none" id="Usu&#225;rio-to-UI" style="stroke:#181818;stroke-width:1;"/><polygon fill="#181818" points="274,181.8594,278,172.8594,274,176.8594,270,172.8594,274,181.8594" style="stroke:#181818;stroke-width:1;"/></g><!--link UI to Calc--><g id="link_UI_Calc"><path d="M274,237.3894 C274,258.3994 274,281.0894 274,299.4794 " fill="none" id="UI-to-Calc" style="stroke:#181818;stroke-width:1;"/><polygon fill="#181818" points="274,305.4794,278,296.4794,274,300.4794,270,296.4794,274,305.4794" style="stroke:#181818;stroke-width:1;"/></g><!--link UI to Export--><g id="link_UI_Export"><path d="M239.64,237.3894 C212.67,258.3994 180.5928,283.4014 156.9928,301.7914 " fill="none" id="UI-to-Export" style="stroke:#181818;stroke-width:1;"/><polygon fill="#181818" points="152.26,305.4794,161.8178,303.1026,156.204,302.4061,156.9005,296.7923,152.26,305.4794" style="stroke:#181818;stroke-width:1;"/></g><!--link UI to Database--><g id="link_UI_Database"><path d="M317.84,237.3894 C347.33,255.3994 380.9296,275.9218 410.3496,293.8918 " fill="none" id="UI-to-Database" style="stroke:#181818;stroke-width:1;"/><polygon fill="#181818" points="415.47,297.0194,409.8745,288.9144,411.203,294.4131,405.7044,295.7416,415.47,297.0194" style="stroke:#181818;stroke-width:1;"/></g><!--link Calc to Model--><g id="link_Calc_Model"><path d="M274,343.7094 C274,363.1494 274,388.2394 274,410.4694 " fill="none" id="Calc-to-Model" style="stroke:#181818;stroke-width:1;"/><polygon fill="#181818" points="274,416.4694,278,407.4694,274,411.4694,270,407.4694,274,416.4694" style="stroke:#181818;stroke-width:1;"/></g><!--link Export to Model--><g id="link_Export_Model"><path d="M151.34,343.7094 C175.33,363.1494 209.0279,390.4625 236.4679,412.6925 " fill="none" id="Export-to-Model" style="stroke:#181818;stroke-width:1;"/><polygon fill="#181818" points="241.13,416.4694,236.6548,407.696,237.2449,413.322,231.6189,413.9121,241.13,416.4694" style="stroke:#181818;stroke-width:1;"/></g><!--link Export to CSV--><g id="link_Export_CSV"><path d="M118.37,343.7094 C105.44,365.7294 86.7776,397.5051 73.7976,419.6151 " fill="none" id="Export-to-CSV" style="stroke:#181818;stroke-width:1;"/><polygon fill="#181818" points="70.76,424.7894,78.7659,419.0531,73.2913,420.4775,71.8669,415.0029,70.76,424.7894" style="stroke:#181818;stroke-width:1;"/></g><!--link Database to Model--><g id="link_Database_Model"><path d="M417.02,352.2694 C386.74,371.4994 351.1153,394.1333 320.8753,413.3333 " fill="none" id="Database-to-Model" style="stroke:#181818;stroke-width:1;"/><polygon fill="#181818" points="315.81,416.5494,325.5519,415.1022,320.0311,413.8693,321.2639,408.3485,315.81,416.5494" style="stroke:#181818;stroke-width:1;"/></g><!--link Database to SQLite--><g id="link_Database_SQLite"><path d="M465.13,352.2694 C469.2,370.0094 473.2245,387.5322 477.5045,406.1322 " fill="none" id="Database-to-SQLite" style="stroke:#181818;stroke-width:1;"/><polygon fill="#181818" points="478.85,411.9794,480.7299,402.3116,477.7288,407.1067,472.9336,404.1056,478.85,411.9794" style="stroke:#181818;stroke-width:1;"/></g><!--SRC=[RP0zRiCm38LtduB8slpSe8lJ8K22e3MSoGij4m5HML8b9cYEqxFqOjLFdBf0D_Bn8wNtX4KJR1dF7aU4WQ2sexE6Z5205Un6sxFcxo_F26_hGnNUsJYCCAW9REGMRtXIWkQigK8braCRBcdBLWyE5erumb6pT0QTMxiRF873CuND0Z10kvl3DMfrqROXVsL56KZI77dvTDRBd2ZAd3dOWJJiyKQ-CxNcv6oPV5r9BwDR8nx5Bk7e5OvnQFETl3K_iqN17WDDbvGr9ZfcQugDZmjvfX2Rl3_XrJ3jBPhNFGjrXaka61DT3tscosZ-d4CpnC46wkPKh3UdgfeoXTNgEQNLxdALOxdNzm3ktUCR2SbACLQe_uNqqiFjB_57AX_-0G00]--></g></svg>