<svg xmlns="http://www.w3.org/2000/svg" xmlns:xlink="http://www.w3.org/1999/xlink" contentStyleType="text/css" height="475px" preserveAspectRatio="none" style="width:515px;height:475px;background:#FFFFFF;" version="1.1" viewBox="0 0 515 475" width="515px" zoomAndPan="magnify"><title>Diagrama de Implanta&#231;&#227;o - Ambiente Acad&#234;mico</title><defs/><g><text fill="#000000" font-family="sans-serif" font-size="14" font-weight="bold" lengthAdjust="spacing" textLength="324.4268" x="88.2866" y="24.5332">Diagrama de Implanta&#231;&#227;o - Ambiente Acad&#234;mico</text><!--cluster Host--><g id="cluster_Host"><polygon fill="none" points="16,166.6094,26,156.6094,498,156.6094,498,448.1094,488,458.1094,16,458.1094,16,166.6094" style="stroke:#181818;stroke-width:1;"/><line style="stroke:#181818;stroke-width:1;" x1="488" x2="498" y1="166.6094" y2="156.6094"/><line style="stroke:#181818;stroke-width:1;" x1="16" x2="488" y1="166.6094" y2="166.6094"/><line style="stroke:#181818;stroke-width:1;" x1="488" x2="488" y1="166.6094" y2="458.1094"/><text fill="#000000" font-family="sans-serif" font-size="14" font-weight="bold" lengthAdjust="spacing" textLength="198.3379" x="153.8311" y="184.1426">Computador / Streamlit Cloud</text></g><!--cluster Python 3.10+--><g id="cluster_Python 3.10+"><polygon fill="none" points="40,215.6094,50,205.6094,329,205.6094,329,424.1094,319,434.1094,40,434.1094,40,215.6094" style="stroke:#181818;stroke-width:1;"/><line style="stroke:#181818;stroke-width:1;" x1="319" x2="329" y1="215.6094" y2="205.6094"/><line style="stroke:#181818;stroke-width:1;" x1="40" x2="319" y1="215.6094" y2="215.6094"/><line style="stroke:#181818;stroke-width:1;" x1="319" x2="319" y1="215.6094" y2="434.1094"/><text fill="#000000" font-family="sans-serif" font-size="14" font-weight="bold" lengthAdjust="spacing" textLength="86.7549" x="137.1226" y="233.1426">Python 3.10+</text></g><!--entity DB--><g id="elem_DB"><path d="M348,375.6094 C348,365.6094 414.8101,365.6094 414.8101,365.6094 C414.8101,365.6094 481.6201,365.6094 481.6201,375.6094 L481.6201,419.8281 C481.6201,429.8281 414.8101,429.8281 414.8101,429.8281 C414.8101,429.8281 348,429.8281 348,419.8281 L348,375.6094 " fill="#F1F1F1" style="stroke:#181818;stroke-width:0.5;"/><path d="M348,375.6094 C348,385.6094 414.8101,385.6094 414.8101,385.6094 C414.8101,385.6094 481.6201,385.6094 481.6201,375.6094 " fill="none" style="stroke:#181818;stroke-width:0.5;"/><text fill="#000000" font-family="sans-serif" font-size="14" lengthAdjust="spacing" textLength="42.7998" x="358" y="404.1426">SQLite</text><text fill="#000000" font-family="sans-serif" font-size="14" lengthAdjust="spacing" textLength="113.6201" x="358" y="421.752">data/imobiliaria.db</text></g><!--entity App--><g id="elem_App"><rect fill="#F1F1F1" height="40.6094" rx="2.5" ry="2.5" style="stroke:#181818;stroke-width:0.5;" width="114.0342" x="199" y="246.6094"/><polygon fill="#F1F1F1" points="296.0342,251.6094,296.0342,265.6094,308.0342,265.6094,308.0342,257.6094,302.0342,251.6094,296.0342,251.6094" style="stroke:#181818;stroke-width:0.5;"/><line style="stroke:#181818;stroke-width:0.5;" x1="302.0342" x2="302.0342" y1="251.6094" y2="257.6094"/><line style="stroke:#181818;stroke-width:0.5;" x1="308.0342" x2="302.0342" y1="257.6094" y2="257.6094"/><text fill="#000000" font-family="sans-serif" font-size="14" lengthAdjust="spacing" textLength="84.0342" x="209" y="274.1426">Streamlit App</text></g><!--entity Core--><g id="elem_Core"><rect fill="#F1F1F1" height="40.6094" rx="2.5" ry="2.5" style="stroke:#181818;stroke-width:0.5;" width="144.7686" x="56.5" y="377.1094"/><polygon fill="#F1F1F1" points="184.2686,382.1094,184.2686,396.1094,196.2686,396.1094,196.2686,388.1094,190.2686,382.1094,184.2686,382.1094" style="stroke:#181818;stroke-width:0.5;"/><line style="stroke:#181818;stroke-width:0.5;" x1="190.2686" x2="190.2686" y1="382.1094" y2="388.1094"/><line style="stroke:#181818;stroke-width:0.5;" x1="196.2686" x2="190.2686" y1="388.1094" y2="388.1094"/><text fill="#000000" font-family="sans-serif" font-size="14" lengthAdjust="spacing" textLength="114.7686" x="66.5" y="404.6426">Models + Services</text></g><!--entity Pandas--><g id="elem_Pandas"><rect fill="#F1F1F1" height="40.6094" rx="2.5" ry="2.5" style="stroke:#181818;stroke-width:0.5;" width="75.9307" x="237" y="377.1094"/><polygon fill="#F1F1F1" points="295.9307,382.1094,295.9307,396.1094,307.9307,396.1094,307.9307,388.1094,301.9307,382.1094,295.9307,382.1094" style="stroke:#181818;stroke-width:0.5;"/><line style="stroke:#181818;stroke-width:0.5;" x1="301.9307" x2="301.9307" y1="382.1094" y2="388.1094"/><line style="stroke:#181818;stroke-width:0.5;" x1="307.9307" x2="301.9307" y1="388.1094" y2="388.1094"/><text fill="#000000" font-family="sans-serif" font-size="14" lengthAdjust="spacing" textLength="45.9307" x="247" y="404.6426">pandas</text></g><!--entity Browser--><g id="elem_Browser"><polygon fill="#F1F1F1" points="202,54.6094,212,44.6094,310.4893,44.6094,310.4893,82.2188,300.4893,92.2188,202,92.2188,202,54.6094" style="stroke:#181818;stroke-width:0.5;"/><line style="stroke:#181818;stroke-width:0.5;" x1="300.4893" x2="310.4893" y1="54.6094" y2="44.6094"/><line style="stroke:#181818;stroke-width:0.5;" x1="202" x2="300.4893" y1="54.6094" y2="54.6094"/><line style="stroke:#181818;stroke-width:0.5;" x1="300.4893" x2="300.4893" y1="54.6094" y2="92.2188"/><text fill="#000000" font-family="sans-serif" font-size="14" lengthAdjust="spacing" textLength="68.4893" x="217" y="79.1426">Navegador</text></g><!--link Browser to App--><g id="link_Browser_App"><path d="M256,92.9194 C256,131.9594 256,203.8594 256,240.3694 " fill="none" id="Browser-to-App" style="stroke:#181818;stroke-width:1;"/><polygon fill="#181818" points="256,246.3694,260,237.3694,256,241.3694,252,237.3694,256,246.3694" style="stroke:#181818;stroke-width:1;"/><text fill="#000000" font-family="sans-serif" font-size="13" lengthAdjust="spacing" textLength="137.2871" x="257" y="137.1045">HTTPS / localhost:8501</text></g><!--link App to Core--><g id="link_App_Core"><path d="M236.71,287.6294 C212.84,311.7794 176.637,348.4013 152.687,372.6413 " fill="none" id="App-to-Core" style="stroke:#181818;stroke-width:1;"/><polygon fill="#181818" points="148.47,376.9094,157.6409,373.3186,151.9842,373.3526,151.9502,367.6959,148.47,376.9094" style="stroke:#181818;stroke-width:1;"/></g><!--link App to Pandas--><g id="link_App_Pandas"><path d="M258.89,287.6294 C262.46,311.7794 267.621,346.7341 271.211,370.9741 " fill="none" id="App-to-Pandas" style="stroke:#181818;stroke-width:1;"/><polygon fill="#181818" points="272.09,376.9094,274.7283,367.4205,271.3575,371.9633,266.8146,368.5925,272.09,376.9094" style="stroke:#181818;stroke-width:1;"/></g><!--link App to DB--><g id="link_App_DB"><path d="M280.15,287.6294 C305.69,308.2694 341.6932,337.3683 371.7032,361.6183 " fill="none" id="App-to-DB" style="stroke:#181818;stroke-width:1;"/><polygon fill="#181818" points="376.37,365.3894,371.8838,356.6216,372.481,362.2468,366.8558,362.844,376.37,365.3894" style="stroke:#181818;stroke-width:1;"/><text fill="#000000" font-family="sans-serif" font-size="13" lengthAdjust="spacing" textLength="37.5781" x="336" y="332.1045">sqlite3</text></g><!--SRC=[NL3BQiCm4BpxAnPVW_CW54eEXTW-fD0M5-VOozfIamKzN6cJKag-feT2VyC_Lbbn2EGWLhipiymi4oi99U7EeKOG4Xvrfz0mzh_zZuKCrheXQLZ2kaNH_sbgRM9i8AQ5rTs1KLW7CwZPITIA60fb3o85zB2ndk4x0JZpgo_UMmFBwM8-IUCS01tJExOCwNN1kkkYFDGRpdFOepnCe9RkIAtqaLTO9s-87Hg1PxIAtu2VmXF8sA0FPkhN9sBvPeR9ZBHjI14wmgbeegpCazEOymMFSZV4Z43kxAUNBXahPDd3u1HMiDbkgpgSGjaMrJvaNztVpHV900waQFFIZAukRPa7lVy8wUNo7m00]--></g></svg>