<svg xmlns="http://www.w3.org/2000/svg" xmlns:xlink="http://www.w3.org/1999/xlink" contentStyleType="text/css" height="805px" preserveAspectRatio="none" style="width:805px;height:805px;background:#FFFFFF;" version="1.1" viewBox="0 0 805 805" width="805px" zoomAndPan="magnify"><title>Diagrama de Classes - Sistema de Or&#231;amento Imobili&#225;rio R.M</title><defs/><g><text fill="#000000" font-family="sans-serif" font-size="14" font-weight="bold" lengthAdjust="spacing" textLength="409.2471" x="191.2036" y="24.5332">Diagrama de Classes - Sistema de Or&#231;amento Imobili&#225;rio R.M</text><!--class Cliente--><g id="elem_Cliente"><rect codeLine="6" fill="#F1F1F1" height="103.5313" id="Cliente" rx="2.5" ry="2.5" style="stroke:#181818;stroke-width:0.5;" width="154.8096" x="7" y="473.6094"/><ellipse cx="58.3652" cy="494.9609" fill="#ADD1B2" rx="11" ry="11" style="stroke:#181818;stroke-width:1;"/><path d="M61.1309,490.8359 Q61.2871,490.6172 61.4746,490.5078 Q61.6621,490.3984 61.8809,490.3984 Q62.2559,490.3984 62.4902,490.6563 Q62.7246,490.9141 62.7246,491.5234 L62.7246,492.9766 Q62.7246,493.5859 62.4902,493.8516 Q62.2559,494.1172 61.8809,494.1172 Q61.5371,494.1172 61.334,493.9141 Q61.1309,493.7266 61.0215,493.2109 Q60.9746,492.8516 60.7871,492.6641 Q60.459,492.2891 59.8496,492.0703 Q59.2402,491.8516 58.6152,491.8516 Q57.8496,491.8516 57.2168,492.1797 Q56.584,492.5078 56.0918,493.2578 Q55.5996,494.0078 55.5996,495.0391 L55.5996,496.1328 Q55.5996,497.3672 56.4902,498.1875 Q57.3809,499.0078 58.9746,499.0078 Q59.9121,499.0078 60.5684,498.7578 Q60.959,498.6016 61.3809,498.1641 Q61.6465,497.8984 61.7949,497.8203 Q61.9434,497.7422 62.1465,497.7422 Q62.4746,497.7422 62.7324,498 Q62.9902,498.2578 62.9902,498.6016 Q62.9902,498.9453 62.6465,499.3516 Q62.1465,499.9297 61.3496,500.2578 Q60.2715,500.7109 58.9746,500.7109 Q57.459,500.7109 56.2559,500.0859 Q55.2715,499.5859 54.584,498.5156 Q53.8965,497.4453 53.8965,496.1641 L53.8965,495.0078 Q53.8965,493.6797 54.5137,492.5313 Q55.1309,491.3828 56.2246,490.7656 Q57.3184,490.1484 58.5527,490.1484 Q59.2871,490.1484 59.9355,490.3125 Q60.584,490.4766 61.1309,490.8359 Z " fill="#000000"/><text fill="#000000" font-family="sans-serif" font-size="12" font-style="italic" lengthAdjust="spacing" textLength="42.0293" x="79.6401" y="491.0664">&#171;entity&#187;</text><text fill="#000000" font-family="sans-serif" font-size="14" lengthAdjust="spacing" textLength="43.5791" x="78.8652" y="508.2363">Cliente</text><line style="stroke:#181818;stroke-width:0.5;" x1="8" x2="160.8096" y1="516.3125" y2="516.3125"/><text fill="#000000" font-family="sans-serif" font-size="14" lengthAdjust="spacing" textLength="49.4238" x="13" y="534.8457">+id: int?</text><text fill="#000000" font-family="sans-serif" font-size="14" lengthAdjust="spacing" textLength="66.5273" x="13" y="552.4551">+nome: str</text><text fill="#000000" font-family="sans-serif" font-size="14" lengthAdjust="spacing" textLength="142.8096" x="13" y="570.0645">+possui_criancas: bool</text></g><!--class Imovel--><g id="elem_Imovel"><rect codeLine="11" fill="#F1F1F1" height="181.9688" id="Imovel" rx="2.5" ry="2.5" style="stroke:#181818;stroke-width:0.5;" width="275.4023" x="197" y="434.6094"/><ellipse cx="304.4346" cy="455.9609" fill="#A9DCDF" rx="11" ry="11" style="stroke:#181818;stroke-width:1;"/><path d="M306.6221,457.7266 L302.4814,457.7266 L302.0596,458.7578 L302.4814,458.7578 Q303.0908,458.7578 303.3564,458.9922 Q303.6221,459.2266 303.6221,459.6172 Q303.6221,459.9922 303.3564,460.2266 Q303.0908,460.4609 302.4814,460.4609 L300.1846,460.4609 Q299.5752,460.4609 299.3174,460.2266 Q299.0596,459.9922 299.0596,459.6016 Q299.0596,459.2266 299.333,458.9844 Q299.6064,458.7422 300.2314,458.7578 L302.9033,452.1016 L301.7939,452.1016 Q301.1846,452.1016 300.9189,451.8672 Q300.6533,451.6328 300.6533,451.2422 Q300.6533,450.8672 300.9189,450.6328 Q301.1846,450.3984 301.7939,450.3984 L305.4658,450.3984 L308.8564,458.7578 Q309.4502,458.7578 309.6377,458.8984 Q310.0283,459.1641 310.0283,459.6172 Q310.0283,459.9922 309.7705,460.2266 Q309.5127,460.4609 308.9033,460.4609 L306.6064,460.4609 Q305.9971,460.4609 305.7314,460.2266 Q305.4658,459.9922 305.4658,459.6016 Q305.4658,459.2266 305.7314,458.9922 Q305.9971,458.7578 306.6064,458.7578 L307.0283,458.7578 L306.6221,457.7266 Z M305.9033,456.0234 L304.5439,452.6484 L303.1689,456.0234 L305.9033,456.0234 Z " fill="#000000"/><text fill="#000000" font-family="sans-serif" font-size="12" font-style="italic" lengthAdjust="spacing" textLength="56.0332" x="322.9346" y="452.0664">&#171;abstract&#187;</text><text fill="#000000" font-family="sans-serif" font-size="14" font-style="italic" lengthAdjust="spacing" textLength="41.2344" x="330.334" y="469.2363">Imovel</text><line style="stroke:#181818;stroke-width:0.5;" x1="198" x2="471.4023" y1="477.3125" y2="477.3125"/><text fill="#000000" font-family="sans-serif" font-size="14" lengthAdjust="spacing" textLength="49.4238" x="203" y="495.8457">+id: int?</text><text fill="#000000" font-family="sans-serif" font-size="14" lengthAdjust="spacing" textLength="77.4375" x="203" y="513.4551">+quartos: int</text><text fill="#000000" font-family="sans-serif" font-size="14" lengthAdjust="spacing" textLength="68.0996" x="203" y="531.0645">+vagas: int</text><text fill="#000000" font-family="sans-serif" font-size="14" font-style="italic" lengthAdjust="spacing" textLength="54.0791" x="203" y="548.6738">+tipo: str</text><text fill="#000000" font-family="sans-serif" font-size="14" font-style="italic" lengthAdjust="spacing" textLength="163.0508" x="203" y="566.2832">+valor_base_centavos: int</text><line style="stroke:#181818;stroke-width:0.5;" x1="198" x2="471.4023" y1="573.3594" y2="573.3594"/><text fill="#000000" font-family="sans-serif" font-size="14" font-style="italic" lengthAdjust="spacing" textLength="263.4023" x="203" y="591.8926">+calcular_itens(cliente): List&lt;ItemCalculo&gt;</text><text fill="#000000" font-family="sans-serif" font-size="14" lengthAdjust="spacing" textLength="245.5332" x="203" y="609.502">+calcular_aluguel_centavos(cliente): int</text></g><!--class Apartamento--><g id="elem_Apartamento"><rect codeLine="20" fill="#F1F1F1" height="32" id="Apartamento" rx="2.5" ry="2.5" style="stroke:#181818;stroke-width:0.5;" width="112.1582" x="95.5" y="730.6094"/><ellipse cx="110.5" cy="746.6094" fill="#ADD1B2" rx="11" ry="11" style="stroke:#181818;stroke-width:1;"/><path d="M113.2656,742.4844 Q113.4219,742.2656 113.6094,742.1563 Q113.7969,742.0469 114.0156,742.0469 Q114.3906,742.0469 114.625,742.3047 Q114.8594,742.5625 114.8594,743.1719 L114.8594,744.625 Q114.8594,745.2344 114.625,745.5 Q114.3906,745.7656 114.0156,745.7656 Q113.6719,745.7656 113.4688,745.5625 Q113.2656,745.375 113.1563,744.8594 Q113.1094,744.5 112.9219,744.3125 Q112.5938,743.9375 111.9844,743.7188 Q111.375,743.5 110.75,743.5 Q109.9844,743.5 109.3516,743.8281 Q108.7188,744.1563 108.2266,744.9063 Q107.7344,745.6563 107.7344,746.6875 L107.7344,747.7813 Q107.7344,749.0156 108.625,749.8359 Q109.5156,750.6563 111.1094,750.6563 Q112.0469,750.6563 112.7031,750.4063 Q113.0938,750.25 113.5156,749.8125 Q113.7813,749.5469 113.9297,749.4688 Q114.0781,749.3906 114.2813,749.3906 Q114.6094,749.3906 114.8672,749.6484 Q115.125,749.9063 115.125,750.25 Q115.125,750.5938 114.7813,751 Q114.2813,751.5781 113.4844,751.9063 Q112.4063,752.3594 111.1094,752.3594 Q109.5938,752.3594 108.3906,751.7344 Q107.4063,751.2344 106.7188,750.1641 Q106.0313,749.0938 106.0313,747.8125 L106.0313,746.6563 Q106.0313,745.3281 106.6484,744.1797 Q107.2656,743.0313 108.3594,742.4141 Q109.4531,741.7969 110.6875,741.7969 Q111.4219,741.7969 112.0703,741.9609 Q112.7188,742.125 113.2656,742.4844 Z " fill="#000000"/><text fill="#000000" font-family="sans-serif" font-size="14" lengthAdjust="spacing" textLength="80.1582" x="124.5" y="752.3379">Apartamento</text></g><!--class Casa--><g id="elem_Casa"><rect codeLine="21" fill="#F1F1F1" height="32" id="Casa" rx="2.5" ry="2.5" style="stroke:#181818;stroke-width:0.5;" width="64.6826" x="243" y="730.6094"/><ellipse cx="258" cy="746.6094" fill="#ADD1B2" rx="11" ry="11" style="stroke:#181818;stroke-width:1;"/><path d="M260.7656,742.4844 Q260.9219,742.2656 261.1094,742.1563 Q261.2969,742.0469 261.5156,742.0469 Q261.8906,742.0469 262.125,742.3047 Q262.3594,742.5625 262.3594,743.1719 L262.3594,744.625 Q262.3594,745.2344 262.125,745.5 Q261.8906,745.7656 261.5156,745.7656 Q261.1719,745.7656 260.9688,745.5625 Q260.7656,745.375 260.6563,744.8594 Q260.6094,744.5 260.4219,744.3125 Q260.0938,743.9375 259.4844,743.7188 Q258.875,743.5 258.25,743.5 Q257.4844,743.5 256.8516,743.8281 Q256.2188,744.1563 255.7266,744.9063 Q255.2344,745.6563 255.2344,746.6875 L255.2344,747.7813 Q255.2344,749.0156 256.125,749.8359 Q257.0156,750.6563 258.6094,750.6563 Q259.5469,750.6563 260.2031,750.4063 Q260.5938,750.25 261.0156,749.8125 Q261.2813,749.5469 261.4297,749.4688 Q261.5781,749.3906 261.7813,749.3906 Q262.1094,749.3906 262.3672,749.6484 Q262.625,749.9063 262.625,750.25 Q262.625,750.5938 262.2813,751 Q261.7813,751.5781 260.9844,751.9063 Q259.9063,752.3594 258.6094,752.3594 Q257.0938,752.3594 255.8906,751.7344 Q254.9063,751.2344 254.2188,750.1641 Q253.5313,749.0938 253.5313,747.8125 L253.5313,746.6563 Q253.5313,745.3281 254.1484,744.1797 Q254.7656,743.0313 255.8594,742.4141 Q256.9531,741.7969 258.1875,741.7969 Q258.9219,741.7969 259.5703,741.9609 Q260.2188,742.125 260.7656,742.4844 Z " fill="#000000"/><text fill="#000000" font-family="sans-serif" font-size="14" lengthAdjust="spacing" textLength="32.6826" x="272" y="752.3379">Casa</text></g><!--class Estudio--><g id="elem_Estudio"><rect codeLine="22" fill="#F1F1F1" height="32" id="Estudio" rx="2.5" ry="2.5" style="stroke:#181818;stroke-width:0.5;" width="78.6963" x="343" y="730.6094"/><ellipse cx="358" cy="746.6094" fill="#ADD1B2" rx="11" ry="11" style="stroke:#181818;stroke-width:1;"/><path d="M360.7656,742.4844 Q360.9219,742.2656 361.1094,742.1563 Q361.2969,742.0469 361.5156,742.0469 Q361.8906,742.0469 362.125,742.3047 Q362.3594,742.5625 362.3594,743.1719 L362.3594,744.625 Q362.3594,745.2344 362.125,745.5 Q361.8906,745.7656 361.5156,745.7656 Q361.1719,745.7656 360.9688,745.5625 Q360.7656,745.375 360.6563,744.8594 Q360.6094,744.5 360.4219,744.3125 Q360.0938,743.9375 359.4844,743.7188 Q358.875,743.5 358.25,743.5 Q357.4844,743.5 356.8516,743.8281 Q356.2188,744.1563 355.7266,744.9063 Q355.2344,745.6563 355.2344,746.6875 L355.2344,747.7813 Q355.2344,749.0156 356.125,749.8359 Q357.0156,750.6563 358.6094,750.6563 Q359.5469,750.6563 360.2031,750.4063 Q360.5938,750.25 361.0156,749.8125 Q361.2813,749.5469 361.4297,749.4688 Q361.5781,749.3906 361.7813,749.3906 Q362.1094,749.3906 362.3672,749.6484 Q362.625,749.9063 362.625,750.25 Q362.625,750.5938 362.2813,751 Q361.7813,751.5781 360.9844,751.9063 Q359.9063,752.3594 358.6094,752.3594 Q357.0938,752.3594 355.8906,751.7344 Q354.9063,751.2344 354.2188,750.1641 Q353.5313,749.0938 353.5313,747.8125 L353.5313,746.6563 Q353.5313,745.3281 354.1484,744.1797 Q354.7656,743.0313 355.8594,742.4141 Q356.9531,741.7969 358.1875,741.7969 Q358.9219,741.7969 359.5703,741.9609 Q360.2188,742.125 360.7656,742.4844 Z " fill="#000000"/><text fill="#000000" font-family="sans-serif" font-size="14" lengthAdjust="spacing" textLength="46.6963" x="372" y="752.3379">Estudio</text></g><!--class ItemCalculo--><g id="elem_ItemCalculo"><rect codeLine="23" fill="#F1F1F1" height="103.5313" id="ItemCalculo" rx="2.5" ry="2.5" style="stroke:#181818;stroke-width:0.5;" width="136.9063" x="457" y="694.6094"/><ellipse cx="485.9452" cy="715.9609" fill="#ADD1B2" rx="11" ry="11" style="stroke:#181818;stroke-width:1;"/><path d="M488.7108,711.8359 Q488.867,711.6172 489.0545,711.5078 Q489.242,711.3984 489.4608,711.3984 Q489.8358,711.3984 490.0702,711.6563 Q490.3045,711.9141 490.3045,712.5234 L490.3045,713.9766 Q490.3045,714.5859 490.0702,714.8516 Q489.8358,715.1172 489.4608,715.1172 Q489.117,715.1172 488.9139,714.9141 Q488.7108,714.7266 488.6014,714.2109 Q488.5545,713.8516 488.367,713.6641 Q488.0389,713.2891 487.4295,713.0703 Q486.8202,712.8516 486.1952,712.8516 Q485.4295,712.8516 484.7967,713.1797 Q484.1639,713.5078 483.6717,714.2578 Q483.1795,715.0078 483.1795,716.0391 L483.1795,717.1328 Q483.1795,718.3672 484.0702,719.1875 Q484.9608,720.0078 486.5545,720.0078 Q487.492,720.0078 488.1483,719.7578 Q488.5389,719.6016 488.9608,719.1641 Q489.2264,718.8984 489.3749,718.8203 Q489.5233,718.7422 489.7264,718.7422 Q490.0545,718.7422 490.3124,719 Q490.5702,719.2578 490.5702,719.6016 Q490.5702,719.9453 490.2264,720.3516 Q489.7264,720.9297 488.9295,721.2578 Q487.8514,721.7109 486.5545,721.7109 Q485.0389,721.7109 483.8358,721.0859 Q482.8514,720.5859 482.1639,719.5156 Q481.4764,718.4453 481.4764,717.1641 L481.4764,716.0078 Q481.4764,714.6797 482.0936,713.5313 Q482.7108,712.3828 483.8045,711.7656 Q484.8983,711.1484 486.1327,711.1484 Q486.867,711.1484 487.5155,711.3125 Q488.1639,711.4766 488.7108,711.8359 Z " fill="#000000"/><text fill="#000000" font-family="sans-serif" font-size="12" font-style="italic" lengthAdjust="spacing" textLength="77.3906" x="501.3073" y="712.0664">&#171;value object&#187;</text><text fill="#000000" font-family="sans-serif" font-size="14" lengthAdjust="spacing" textLength="73.917" x="503.0441" y="729.2363">ItemCalculo</text><line style="stroke:#181818;stroke-width:0.5;" x1="458" x2="592.9063" y1="737.3125" y2="737.3125"/><text fill="#000000" font-family="sans-serif" font-size="14" lengthAdjust="spacing" textLength="91.4238" x="463" y="755.8457">+descricao: str</text><text fill="#000000" font-family="sans-serif" font-size="14" lengthAdjust="spacing" textLength="124.9063" x="463" y="773.4551">+valor_centavos: int</text><text fill="#000000" font-family="sans-serif" font-size="14" lengthAdjust="spacing" textLength="54.0791" x="463" y="791.0645">+tipo: str</text></g><!--class Contrato--><g id="elem_Contrato"><rect codeLine="28" fill="#F1F1F1" height="164.3594" id="Contrato" rx="2.5" ry="2.5" style="stroke:#181818;stroke-width:0.5;" width="220.1543" x="578.5" y="443.6094"/><ellipse cx="657.479" cy="464.9609" fill="#ADD1B2" rx="11" ry="11" style="stroke:#181818;stroke-width:1;"/><path d="M660.2446,460.8359 Q660.4009,460.6172 660.5884,460.5078 Q660.7759,460.3984 660.9946,460.3984 Q661.3696,460.3984 661.604,460.6563 Q661.8384,460.9141 661.8384,461.5234 L661.8384,462.9766 Q661.8384,463.5859 661.604,463.8516 Q661.3696,464.1172 660.9946,464.1172 Q660.6509,464.1172 660.4478,463.9141 Q660.2446,463.7266 660.1353,463.2109 Q660.0884,462.8516 659.9009,462.6641 Q659.5728,462.2891 658.9634,462.0703 Q658.354,461.8516 657.729,461.8516 Q656.9634,461.8516 656.3306,462.1797 Q655.6978,462.5078 655.2056,463.2578 Q654.7134,464.0078 654.7134,465.0391 L654.7134,466.1328 Q654.7134,467.3672 655.604,468.1875 Q656.4946,469.0078 658.0884,469.0078 Q659.0259,469.0078 659.6821,468.7578 Q660.0728,468.6016 660.4946,468.1641 Q660.7603,467.8984 660.9087,467.8203 Q661.0571,467.7422 661.2603,467.7422 Q661.5884,467.7422 661.8462,468 Q662.104,468.2578 662.104,468.6016 Q662.104,468.9453 661.7603,469.3516 Q661.2603,469.9297 660.4634,470.2578 Q659.3853,470.7109 658.0884,470.7109 Q656.5728,470.7109 655.3696,470.0859 Q654.3853,469.5859 653.6978,468.5156 Q653.0103,467.4453 653.0103,466.1641 L653.0103,465.0078 Q653.0103,463.6797 653.6274,462.5313 Q654.2446,461.3828 655.3384,460.7656 Q656.4321,460.1484 657.6665,460.1484 Q658.4009,460.1484 659.0493,460.3125 Q659.6978,460.4766 660.2446,460.8359 Z " fill="#000000"/><text fill="#000000" font-family="sans-serif" font-size="12" font-style="italic" lengthAdjust="spacing" textLength="42.0293" x="683.8125" y="461.0664">&#171;entity&#187;</text><text fill="#000000" font-family="sans-serif" font-size="14" lengthAdjust="spacing" textLength="53.6963" x="677.979" y="478.2363">Contrato</text><line style="stroke:#181818;stroke-width:0.5;" x1="579.5" x2="797.6543" y1="486.3125" y2="486.3125"/><text fill="#000000" font-family="sans-serif" font-size="14" lengthAdjust="spacing" textLength="49.4238" x="584.5" y="504.8457">+id: int?</text><text fill="#000000" font-family="sans-serif" font-size="14" lengthAdjust="spacing" textLength="159.1543" x="584.5" y="522.4551">+valor_total_centavos: int</text><text fill="#000000" font-family="sans-serif" font-size="14" lengthAdjust="spacing" textLength="160.7334" x="584.5" y="540.0645">+quantidade_parcelas: int</text><text fill="#000000" font-family="sans-serif" font-size="14" lengthAdjust="spacing" textLength="178.6094" x="584.5" y="557.6738">+valor_parcela_centavos: int</text><text fill="#000000" font-family="sans-serif" font-size="14" lengthAdjust="spacing" textLength="194.1885" x="584.5" y="575.2832">+parcelas_centavos: tuple&lt;int&gt;</text><line style="stroke:#181818;stroke-width:0.5;" x1="579.5" x2="797.6543" y1="582.3594" y2="582.3594"/><text fill="#000000" font-family="sans-serif" font-size="14" lengthAdjust="spacing" textLength="208.1543" x="584.5" y="600.8926">+valor_parcela_no_mes(mes): int</text></g><!--class Orcamento--><g id="elem_Orcamento"><rect codeLine="36" fill="#F1F1F1" height="164.3594" id="Orcamento" rx="2.5" ry="2.5" style="stroke:#181818;stroke-width:0.5;" width="222.5195" x="366" y="209.6094"/><ellipse cx="429.3066" cy="230.9609" fill="#ADD1B2" rx="11" ry="11" style="stroke:#181818;stroke-width:1;"/><path d="M432.0723,226.8359 Q432.2285,226.6172 432.416,226.5078 Q432.6035,226.3984 432.8223,226.3984 Q433.1973,226.3984 433.4316,226.6563 Q433.666,226.9141 433.666,227.5234 L433.666,228.9766 Q433.666,229.5859 433.4316,229.8516 Q433.1973,230.1172 432.8223,230.1172 Q432.4785,230.1172 432.2754,229.9141 Q432.0723,229.7266 431.9629,229.2109 Q431.916,228.8516 431.7285,228.6641 Q431.4004,228.2891 430.791,228.0703 Q430.1816,227.8516 429.5566,227.8516 Q428.791,227.8516 428.1582,228.1797 Q427.5254,228.5078 427.0332,229.2578 Q426.541,230.0078 426.541,231.0391 L426.541,232.1328 Q426.541,233.3672 427.4316,234.1875 Q428.3223,235.0078 429.916,235.0078 Q430.8535,235.0078 431.5098,234.7578 Q431.9004,234.6016 432.3223,234.1641 Q432.5879,233.8984 432.7363,233.8203 Q432.8848,233.7422 433.0879,233.7422 Q433.416,233.7422 433.6738,234 Q433.9316,234.2578 433.9316,234.6016 Q433.9316,234.9453 433.5879,235.3516 Q433.0879,235.9297 432.291,236.2578 Q431.2129,236.7109 429.916,236.7109 Q428.4004,236.7109 427.1973,236.0859 Q426.2129,235.5859 425.5254,234.5156 Q424.8379,233.4453 424.8379,232.1641 L424.8379,231.0078 Q424.8379,229.6797 425.4551,228.5313 Q426.0723,227.3828 427.166,226.7656 Q428.2598,226.1484 429.4941,226.1484 Q430.2285,226.1484 430.877,226.3125 Q431.5254,226.4766 432.0723,226.8359 Z " fill="#000000"/><text fill="#000000" font-family="sans-serif" font-size="12" font-style="italic" lengthAdjust="spacing" textLength="91.4063" x="447.8066" y="227.0664">&#171;aggregate root&#187;</text><text fill="#000000" font-family="sans-serif" font-size="14" lengthAdjust="spacing" textLength="69.248" x="458.8857" y="244.2363">Orcamento</text><line style="stroke:#181818;stroke-width:0.5;" x1="367" x2="587.5195" y1="252.3125" y2="252.3125"/><text fill="#000000" font-family="sans-serif" font-size="14" lengthAdjust="spacing" textLength="49.4238" x="372" y="270.8457">+id: int?</text><text fill="#000000" font-family="sans-serif" font-size="14" lengthAdjust="spacing" textLength="142.8027" x="372" y="288.4551">+criado_em: datetime?</text><text fill="#000000" font-family="sans-serif" font-size="14" lengthAdjust="spacing" textLength="157.582" x="372" y="306.0645">+itens: List&lt;ItemCalculo&gt;</text><text fill="#000000" font-family="sans-serif" font-size="14" lengthAdjust="spacing" textLength="192.6299" x="372" y="323.6738">+aluguel_mensal_centavos: int</text><text fill="#000000" font-family="sans-serif" font-size="14" lengthAdjust="spacing" textLength="210.5195" x="372" y="341.2832">+total_primeiro_ano_centavos: int</text><line style="stroke:#181818;stroke-width:0.5;" x1="367" x2="587.5195" y1="348.3594" y2="348.3594"/><text fill="#000000" font-family="sans-serif" font-size="14" lengthAdjust="spacing" textLength="159.9063" x="372" y="366.8926">+cronograma(): List&lt;dict&gt;</text></g><!--class CalculoService--><g id="elem_CalculoService"><rect codeLine="44" fill="#F1F1F1" height="68.3125" id="CalculoService" rx="2.5" ry="2.5" style="stroke:#181818;stroke-width:0.5;" width="253.5957" x="201.5" y="54.6094"/><ellipse cx="277.3618" cy="75.9609" fill="#ADD1B2" rx="11" ry="11" style="stroke:#181818;stroke-width:1;"/><path d="M280.1274,71.8359 Q280.2837,71.6172 280.4712,71.5078 Q280.6587,71.3984 280.8774,71.3984 Q281.2524,71.3984 281.4868,71.6563 Q281.7212,71.9141 281.7212,72.5234 L281.7212,73.9766 Q281.7212,74.5859 281.4868,74.8516 Q281.2524,75.1172 280.8774,75.1172 Q280.5337,75.1172 280.3306,74.9141 Q280.1274,74.7266 280.0181,74.2109 Q279.9712,73.8516 279.7837,73.6641 Q279.4556,73.2891 278.8462,73.0703 Q278.2368,72.8516 277.6118,72.8516 Q276.8462,72.8516 276.2134,73.1797 Q275.5806,73.5078 275.0884,74.2578 Q274.5962,75.0078 274.5962,76.0391 L274.5962,77.1328 Q274.5962,78.3672 275.4868,79.1875 Q276.3774,80.0078 277.9712,80.0078 Q278.9087,80.0078 279.5649,79.7578 Q279.9556,79.6016 280.3774,79.1641 Q280.6431,78.8984 280.7915,78.8203 Q280.9399,78.7422 281.1431,78.7422 Q281.4712,78.7422 281.729,79 Q281.9868,79.2578 281.9868,79.6016 Q281.9868,79.9453 281.6431,80.3516 Q281.1431,80.9297 280.3462,81.2578 Q279.2681,81.7109 277.9712,81.7109 Q276.4556,81.7109 275.2524,81.0859 Q274.2681,80.5859 273.5806,79.5156 Q272.8931,78.4453 272.8931,77.1641 L272.8931,76.0078 Q272.8931,74.6797 273.5103,73.5313 Q274.1274,72.3828 275.2212,71.7656 Q276.3149,71.1484 277.5493,71.1484 Q278.2837,71.1484 278.9321,71.3125 Q279.5806,71.4766 280.1274,71.8359 Z " fill="#000000"/><text fill="#000000" font-family="sans-serif" font-size="12" font-style="italic" lengthAdjust="spacing" textLength="51.3574" x="318.8691" y="72.0664">&#171;service&#187;</text><text fill="#000000" font-family="sans-serif" font-size="14" lengthAdjust="spacing" textLength="93.3721" x="297.8618" y="89.2363">CalculoService</text><line style="stroke:#181818;stroke-width:0.5;" x1="202.5" x2="454.0957" y1="97.3125" y2="97.3125"/><text fill="#000000" font-family="sans-serif" font-size="14" lengthAdjust="spacing" text-decoration="underline" textLength="241.5957" x="207.5" y="115.8457">+processar_orcamento(...): Orcamento</text></g><!--class ExportService--><g id="elem_ExportService"><rect codeLine="47" fill="#F1F1F1" height="85.9219" id="ExportService" rx="2.5" ry="2.5" style="stroke:#181818;stroke-width:0.5;" width="271.4854" x="491" y="45.6094"/><ellipse cx="578.9204" cy="66.9609" fill="#ADD1B2" rx="11" ry="11" style="stroke:#181818;stroke-width:1;"/><path d="M581.686,62.8359 Q581.8423,62.6172 582.0298,62.5078 Q582.2173,62.3984 582.436,62.3984 Q582.811,62.3984 583.0454,62.6563 Q583.2798,62.9141 583.2798,63.5234 L583.2798,64.9766 Q583.2798,65.5859 583.0454,65.8516 Q582.811,66.1172 582.436,66.1172 Q582.0923,66.1172 581.8892,65.9141 Q581.686,65.7266 581.5767,65.2109 Q581.5298,64.8516 581.3423,64.6641 Q581.0142,64.2891 580.4048,64.0703 Q579.7954,63.8516 579.1704,63.8516 Q578.4048,63.8516 577.772,64.1797 Q577.1392,64.5078 576.647,65.2578 Q576.1548,66.0078 576.1548,67.0391 L576.1548,68.1328 Q576.1548,69.3672 577.0454,70.1875 Q577.936,71.0078 579.5298,71.0078 Q580.4673,71.0078 581.1235,70.7578 Q581.5142,70.6016 581.936,70.1641 Q582.2017,69.8984 582.3501,69.8203 Q582.4985,69.7422 582.7017,69.7422 Q583.0298,69.7422 583.2876,70 Q583.5454,70.2578 583.5454,70.6016 Q583.5454,70.9453 583.2017,71.3516 Q582.7017,71.9297 581.9048,72.2578 Q580.8267,72.7109 579.5298,72.7109 Q578.0142,72.7109 576.811,72.0859 Q575.8267,71.5859 575.1392,70.5156 Q574.4517,69.4453 574.4517,68.1641 L574.4517,67.0078 Q574.4517,65.6797 575.0688,64.5313 Q575.686,63.3828 576.7798,62.7656 Q577.8735,62.1484 579.1079,62.1484 Q579.8423,62.1484 580.4907,62.3125 Q581.1392,62.4766 581.686,62.8359 Z " fill="#000000"/><text fill="#000000" font-family="sans-serif" font-size="12" font-style="italic" lengthAdjust="spacing" textLength="51.3574" x="617.314" y="63.0664">&#171;service&#187;</text><text fill="#000000" font-family="sans-serif" font-size="14" lengthAdjust="spacing" textLength="87.1445" x="599.4204" y="80.2363">ExportService</text><line style="stroke:#181818;stroke-width:0.5;" x1="492" x2="761.4854" y1="88.3125" y2="88.3125"/><text fill="#000000" font-family="sans-serif" font-size="14" lengthAdjust="spacing" text-decoration="underline" textLength="259.4854" x="497" y="106.8457">+criar_dataframe(orcamento): DataFrame</text><text fill="#000000" font-family="sans-serif" font-size="14" lengthAdjust="spacing" text-decoration="underline" textLength="186.3545" x="497" y="124.4551">+gerar_csv(orcamento): bytes</text></g><!--reverse link Imovel to Apartamento--><g id="link_Imovel_Apartamento"><path codeLine="52" d="M247.7299,630.4434 C211.8499,673.3934 184.06,706.6494 164.31,730.2694 " fill="none" id="Imovel-backto-Apartamento" style="stroke:#181818;stroke-width:1;"/><polygon fill="none" points="259.27,616.6294,243.1253,626.5967,252.3346,634.2901,259.27,616.6294" style="stroke:#181818;stroke-width:1;"/></g><!--reverse link Imovel to Casa--><g id="link_Imovel_Casa"><path codeLine="53" d="M305.568,634.0098 C293.998,676.9598 286,706.6494 279.63,730.2694 " fill="none" id="Imovel-backto-Casa" style="stroke:#181818;stroke-width:1;"/><polygon fill="none" points="310.25,616.6294,299.7745,632.4491,311.3615,635.5705,310.25,616.6294" style="stroke:#181818;stroke-width:1;"/></g><!--reverse link Imovel to Estudio--><g id="link_Imovel_Estudio"><path codeLine="54" d="M358.0823,634.2123 C367.4923,677.1623 373.96,706.6494 379.14,730.2694 " fill="none" id="Imovel-backto-Estudio" style="stroke:#181818;stroke-width:1;"/><polygon fill="none" points="354.23,616.6294,352.2213,635.4964,363.9433,632.9282,354.23,616.6294" style="stroke:#181818;stroke-width:1;"/></g><!--reverse link Orcamento to Cliente--><g id="link_Orcamento_Cliente"><path codeLine="55" d="M354.7433,340.6535 C296.7933,365.5335 237.26,394.9594 179.5,434.6094 C163.2,445.7994 147.01,459.7694 132.74,473.3494 " fill="none" id="Orcamento-backto-Cliente" style="stroke:#181818;stroke-width:1;"/><polygon fill="#181818" points="365.77,335.9194,358.6786,334.6109,354.7433,340.6535,361.8347,341.962,365.77,335.9194" style="stroke:#181818;stroke-width:1;"/><text fill="#000000" font-family="sans-serif" font-size="13" lengthAdjust="spacing" textLength="7.23" x="131.7802" y="462.8022">1</text></g><!--reverse link Orcamento to Imovel--><g id="link_Orcamento_Imovel"><path codeLine="56" d="M421.1901,383.9626 C409.1001,403.5626 402.42,414.4194 390.1,434.3994 " fill="none" id="Orcamento-backto-Imovel" style="stroke:#181818;stroke-width:1;"/><polygon fill="#181818" points="427.49,373.7494,420.9356,376.756,421.1901,383.9626,427.7445,380.956,427.49,373.7494" style="stroke:#181818;stroke-width:1;"/><text fill="#000000" font-family="sans-serif" font-size="13" lengthAdjust="spacing" textLength="7.23" x="387.4074" y="423.6945">1</text></g><!--reverse link Orcamento to Contrato--><g id="link_Orcamento_Contrato"><path codeLine="57" d="M559.3732,382.6276 C579.9332,405.2376 594.19,420.9094 614.74,443.5094 " fill="none" id="Orcamento-backto-Contrato" style="stroke:#181818;stroke-width:1;"/><polygon fill="#181818" points="551.3,373.7494,552.3772,380.8796,559.3732,382.6276,558.296,375.4974,551.3,373.7494" style="stroke:#181818;stroke-width:1;"/><text fill="#000000" font-family="sans-serif" font-size="13" lengthAdjust="spacing" textLength="7.23" x="600.6211" y="432.698">1</text></g><!--reverse link Orcamento to ItemCalculo--><g id="link_Orcamento_ItemCalculo"><path codeLine="58" d="M487.3744,385.7926 C497.2344,478.8526 511.83,616.5594 520.09,694.5794 " fill="none" id="Orcamento-backto-ItemCalculo" style="stroke:#181818;stroke-width:1;"/><polygon fill="none" points="486.11,373.8594,482.7644,380.2474,487.3744,385.7926,490.7199,379.4045,486.11,373.8594" style="stroke:#181818;stroke-width:1;"/><text fill="#000000" font-family="sans-serif" font-size="13" lengthAdjust="spacing" textLength="19.5127" x="499.0359" y="683.6905">1..*</text></g><!--link Imovel to ItemCalculo--><g id="link_Imovel_ItemCalculo"><path codeLine="59" d="M413.01,616.6294 C436.16,643.1794 456.7468,666.777 476.9668,689.967 " fill="none" id="Imovel-to-ItemCalculo" style="stroke:#181818;stroke-width:1;stroke-dasharray:7.0,7.0;"/><polygon fill="#181818" points="480.91,694.4894,478.0102,685.0771,477.624,690.7208,471.9804,690.3346,480.91,694.4894" style="stroke:#181818;stroke-width:1;"/><text fill="#000000" font-family="sans-serif" font-size="13" lengthAdjust="spacing" textLength="20.9473" x="454.5" y="661.1045">cria</text></g><!--link CalculoService to Orcamento--><g id="link_CalculoService_Orcamento"><path codeLine="60" d="M353.1,122.7994 C370.54,146.3294 391.1676,174.1388 413.5776,204.3788 " fill="none" id="CalculoService-to-Orcamento" style="stroke:#181818;stroke-width:1;stroke-dasharray:7.0,7.0;"/><polygon fill="#181818" points="417.15,209.1994,415.0051,199.5869,414.173,205.1822,408.5777,204.3501,417.15,209.1994" style="stroke:#181818;stroke-width:1;"/><text fill="#000000" font-family="sans-serif" font-size="13" lengthAdjust="spacing" textLength="45.519" x="395.5" y="176.1045">constr&#243;i</text></g><!--link ExportService to Orcamento--><g id="link_ExportService_Orcamento"><path codeLine="61" d="M595.26,131.7494 C578.54,154.3094 560.9331,178.0593 541.1631,204.7293 " fill="none" id="ExportService-to-Orcamento" style="stroke:#181818;stroke-width:1;stroke-dasharray:7.0,7.0;"/><polygon fill="#181818" points="537.59,209.5494,546.163,204.7013,540.5675,205.5326,539.7362,199.9372,537.59,209.5494" style="stroke:#181818;stroke-width:1;"/><text fill="#000000" font-family="sans-serif" font-size="13" lengthAdjust="spacing" textLength="43.3608" x="570.5" y="176.1045">exporta</text></g><!--SRC=[XLHTRjim37xtAOG-PIrgRAz1aA5eEo30XWBB0GnQPbrjikb9TBOiws7sj0Fi2BtOADjod9zj3q4aajydyYDfDcnHtHae7LIW2bIt5hn7hwxLsdZ6tlZWNdv1XJMJMbMK6sjUVZf3wcFw8V6VJTs0m9KEq1jcP_AMSQMfNfllg5vFGlmJ5FJLrALw1EinUJB2ZbN3MrLXbQFpITBHI1v6taErMCYVuUrogNQ9KbUcc2jJyzjmhgd2kVBimgKXxrkJQMUWrk3dAYUooNC2kGI0vZwzaFy6hT16-pdYBoqu9jyPmdq39OotNKG-gois3SKCflODM79P3XupBVd3Xix2DLZTMd2POQpzJFSrlvghzwBzOYNottOHj0nPZD5Wsx95Er9FWE6Dvq726z6S-xP5KS73SBptt1OcEYPFYJIIVOkAya-ubwT0Bz9g6CiTQZmkRo99pEEMQYcOwP-zxDcO6Emff_H3W0KKc4bD6YrCUnE0W_aK6kCd7cuRYmlnBq_nDMKL-fdyZiHyS7hO01cTidHOWaod8pexG64A2ygmcgj2ujXKsDcxFl-blR6hyee_9qAlJUE4opZAG58zYT6EQkfsUHQdg33In7ql-WVNw3P6X-to_MaeOkSPs6WPpSQHHkzbsYXMFalJL5X79KRI-syDEVu_Pr35PI88F4gAE1kPXVLEhE-2zG1HeXE4zfk3s7pBwENr92xpZ-lhWscVshkPdnhYvEyxUYdMYpSNyPjpnjFZpq66sPwug7EbwUN5TArY2ccwFDYskGgg94Tz2L5xHecXMZRgvRT93hK-ZiFE2ty0]--></g></svg>