<svg xmlns="http://www.w3.org/2000/svg" xmlns:xlink="http://www.w3.org/1999/xlink" contentStyleType="text/css" height="805px" preserveAspectRatio="none" style="width:769px;height:805px;background:#FFFFFF;" version="1.1" viewBox="0 0 769 805" width="769px" zoomAndPan="magnify"><title>Diagrama de Classes - Sistema de Or&#231;amento Imobili&#225;rio R.M</title><defs/><g><text fill="#000000" font-family="sans-serif" font-size="14" font-weight="bold" lengthAdjust="spacing" textLength="409.2471" x="173.1191" y="24.5332">Diagrama de Classes - Sistema de Or&#231;amento Imobili&#225;rio R.M</text><!--class Cliente--><g id="elem_Cliente"><rect codeLine="6" fill="#F1F1F1" height="103.5313" id="Cliente" rx="2.5" ry="2.5" style="stroke:#181818;stroke-width:0.5;" width="154.8096" x="7" y="473.6094"/><ellipse cx="58.3652" cy="494.9609" fill="#ADD1B2" rx="11" ry="11" style="stroke:#181818;stroke-width:1;"/><path d="M61.1309,490.8359 Q61.2871,490.6172 61.4746,490.5078 Q61.6621,490.3984 61.8809,490.3984 Q62.2559,490.3984 62.4902,490.6563 Q62.7246,490.9141 62.7246,491.5234 L62.7246,492.9766 Q62.7246,493.5859 62.4902,493.8516 Q62.2559,494.1172 61.8809,494.1172 Q61.5371,494.1172 61.334,493.9141 Q61.1309,493.7266 61.0215,493.2109 Q60.9746,492.8516 60.7871,492.6641 Q60.459,492.2891 59.8496,492.0703 Q59.2402,491.8516 58.6152,491.8516 Q57.8496,491.8516 57.2168,492.1797 Q56.584,492.5078 56.0918,493.2578 Q55.5996,494.0078 55.5996,495.0391 L55.5996,496.1328 Q55.5996,497.3672 56.4902,498.1875 Q57.3809,499.0078 58.9746,499.0078 Q59.9121,499.0078 60.5684,498.7578 Q60.959,498.6016 61.3809,498.1641 Q61.6465,497.8984 61.7949,497.8203 Q61.9434,497.7422 62.1465,497.7422 Q62.4746,497.7422 62.7324,498 Q62.9902,498.2578 62.9902,498.6016 Q62.9902,498.9453 62.6465,499.3516 Q62.1465,499.9297 61.3496,500.2578 Q60.2715,500.7109 58.9746,500.7109 Q57.459,500.7109 56.2559,500.0859 Q55.2715,499.5859 54.584,498.5156 Q53.8965,497.4453 53.8965,496.1641 L53.8965,495.0078 Q53.8965,493.6797 54.5137,492.5313 Q55.1309,491.3828 56.2246,490.7656 Q57.3184,490.1484 58.5527,490.1484 Q59.2871,490.1484 59.9355,490.3125 Q60.584,490.4766 61.1309,490.8359 Z " fill="#000000"/><text fill="#000000" font-family="sans-serif" font-size="12" font-style="italic" lengthAdjust="spacing" textLength="42.0293" x="79.6401" y="491.0664">&#171;entity&#187;</text><text fill="#000000" font-family="sans-serif" font-size="14" lengthAdjust="spacing" textLength="43.5791" x="78.8652" y="508.2363">Cliente</text><line style="stroke:#181818;stroke-width:0.5;" x1="8" x2="160.8096" y1="516.3125" y2="516.3125"/><text fill="#000000" font-family="sans-serif" font-size="14" lengthAdjust="spacing" textLength="49.4238" x="13" y="534.8457">+id: int?</text><text fill="#000000" font-family="sans-serif" font-size="14" lengthAdjust="spacing" textLength="66.5273" x="13" y="552.4551">+nome: str</text><text fill="#000000" font-family="sans-serif" font-size="14" lengthAdjust="spacing" textLength="142.8096" x="13" y="570.0645">+possui_criancas: bool</text></g><!--class Imovel--><g id="elem_Imovel"><rect codeLine="11" fill="#F1F1F1" height="181.9688" id="Imovel" rx="2.5" ry="2.5" style="stroke:#181818;stroke-width:0.5;" width="275.4023" x="197" y="434.6094"/><ellipse cx="304.4346" cy="455.9609" fill="#A9DCDF" rx="11" ry="11" style="stroke:#181818;stroke-width:1;"/><path d="M306.6221,457.7266 L302.4814,457.7266 L302.0596,458.7578 L302.4814,458.7578 Q303.0908,458.7578 303.3564,458.9922 Q303.6221,459.2266 303.6221,459.6172 Q303.6221,459.9922 303.3564,460.2266 Q303.0908,460.4609 302.4814,460.4609 L300.1846,460.4609 Q299.5752,460.4609 299.3174,460.2266 Q299.0596,459.9922 299.0596,459.6016 Q299.0596,459.2266 299.333,458.9844 Q299.6064,458.7422 300.2314,458.7578 L302.9033,452.1016 L301.7939,452.1016 Q301.1846,452.1016 300.9189,451.8672 Q300.6533,451.6328 300.6533,451.2422 Q300.6533,450.8672 300.9189,450.6328 Q301.1846,450.3984 301.7939,450.3984 L305.4658,450.3984 L308.8564,458.7578 Q309.4502,458.7578 309.6377,458.8984 Q310.0283,459.1641 310.0283,459.6172 Q310.0283,459.9922 309.7705,460.2266 Q309.5127,460.4609 308.9033,460.4609 L306.6064,460.4609 Q305.9971,460.4609 305.7314,460.2266 Q305.4658,459.9922 305.4658,459.6016 Q305.4658,459.2266 305.7314,458.9922 Q305.9971,458.7578 306.6064,458.7578 L307.0283,458.7578 L306.6221,457.7266 Z M305.9033,456.0234 L304.5439,452.6484 L303.1689,456.0234 L305.9033,456.0234 Z " fill="#000000"/><text fill="#000000" font-family="sans-serif" font-size="12" font-style="italic" lengthAdjust="spacing" textLength="56.0332" x="322.9346" y="452.0664">&#171;abstract&#187;</text><text fill="#000000" font-family="sans-serif" font-size="14" font-style="italic" lengthAdjust="spacing" textLength="41.2344" x="330.334" y="469.2363">Imovel</text><line style="stroke:#181818;stroke-width:0.5;" x1="198" x2="471.4023" y1="477.3125" y2="477.3125"/><text fill="#000000" font-family="sans-serif" font-size="14" lengthAdjust="spacing" textLength="49.4238" x="203" y="495.8457">+id: int?</text><text fill="#000000" font-family="sans-serif" font-size="14" lengthAdjust="spacing" textLength="77.4375" x="203" y="513.4551">+quartos: int</text><text fill="#000000" font-family="sans-serif" font-size="14" lengthAdjust="spacing" textLength="68.0996" x="203" y="531.0645">+vagas: int</text><text fill="#000000" font-family="sans-serif" font-size="14" font-style="italic" lengthAdjust="spacing" textLength="54.0791" x="203" y="548.6738">+tipo: str</text><text fill="#000000" font-family="sans-serif" font-size="14" font-style="italic" lengthAdjust="spacing" textLength="110.9063" x="203" y="566.2832">+valor_base: float</text><line style="stroke:#181818;stroke-width:0.5;" x1="198" x2="471.4023" y1="573.3594" y2="573.3594"/><text fill="#000000" font-family="sans-serif" font-size="14" font-style="italic" lengthAdjust="spacing" textLength="263.4023" x="203" y="591.8926">+calcular_itens(cliente): List&lt;ItemCalculo&gt;</text><text fill="#000000" font-family="sans-serif" font-size="14" lengthAdjust="spacing" textLength="193.3887" x="203" y="609.502">+calcular_aluguel(cliente): float</text></g><!--class Apartamento--><g id="elem_Apartamento"><rect codeLine="20" fill="#F1F1F1" height="32" id="Apartamento" rx="2.5" ry="2.5" style="stroke:#181818;stroke-width:0.5;" width="112.1582" x="110.5" y="730.6094"/><ellipse cx="125.5" cy="746.6094" fill="#ADD1B2" rx="11" ry="11" style="stroke:#181818;stroke-width:1;"/><path d="M128.2656,742.4844 Q128.4219,742.2656 128.6094,742.1563 Q128.7969,742.0469 129.0156,742.0469 Q129.3906,742.0469 129.625,742.3047 Q129.8594,742.5625 129.8594,743.1719 L129.8594,744.625 Q129.8594,745.2344 129.625,745.5 Q129.3906,745.7656 129.0156,745.7656 Q128.6719,745.7656 128.4688,745.5625 Q128.2656,745.375 128.1563,744.8594 Q128.1094,744.5 127.9219,744.3125 Q127.5938,743.9375 126.9844,743.7188 Q126.375,743.5 125.75,743.5 Q124.9844,743.5 124.3516,743.8281 Q123.7188,744.1563 123.2266,744.9063 Q122.7344,745.6563 122.7344,746.6875 L122.7344,747.7813 Q122.7344,749.0156 123.625,749.8359 Q124.5156,750.6563 126.1094,750.6563 Q127.0469,750.6563 127.7031,750.4063 Q128.0938,750.25 128.5156,749.8125 Q128.7813,749.5469 128.9297,749.4688 Q129.0781,749.3906 129.2813,749.3906 Q129.6094,749.3906 129.8672,749.6484 Q130.125,749.9063 130.125,750.25 Q130.125,750.5938 129.7813,751 Q129.2813,751.5781 128.4844,751.9063 Q127.4063,752.3594 126.1094,752.3594 Q124.5938,752.3594 123.3906,751.7344 Q122.4063,751.2344 121.7188,750.1641 Q121.0313,749.0938 121.0313,747.8125 L121.0313,746.6563 Q121.0313,745.3281 121.6484,744.1797 Q122.2656,743.0313 123.3594,742.4141 Q124.4531,741.7969 125.6875,741.7969 Q126.4219,741.7969 127.0703,741.9609 Q127.7188,742.125 128.2656,742.4844 Z " fill="#000000"/><text fill="#000000" font-family="sans-serif" font-size="14" lengthAdjust="spacing" textLength="80.1582" x="139.5" y="752.3379">Apartamento</text></g><!--class Casa--><g id="elem_Casa"><rect codeLine="21" fill="#F1F1F1" height="32" id="Casa" rx="2.5" ry="2.5" style="stroke:#181818;stroke-width:0.5;" width="64.6826" x="258" y="730.6094"/><ellipse cx="273" cy="746.6094" fill="#ADD1B2" rx="11" ry="11" style="stroke:#181818;stroke-width:1;"/><path d="M275.7656,742.4844 Q275.9219,742.2656 276.1094,742.1563 Q276.2969,742.0469 276.5156,742.0469 Q276.8906,742.0469 277.125,742.3047 Q277.3594,742.5625 277.3594,743.1719 L277.3594,744.625 Q277.3594,745.2344 277.125,745.5 Q276.8906,745.7656 276.5156,745.7656 Q276.1719,745.7656 275.9688,745.5625 Q275.7656,745.375 275.6563,744.8594 Q275.6094,744.5 275.4219,744.3125 Q275.0938,743.9375 274.4844,743.7188 Q273.875,743.5 273.25,743.5 Q272.4844,743.5 271.8516,743.8281 Q271.2188,744.1563 270.7266,744.9063 Q270.2344,745.6563 270.2344,746.6875 L270.2344,747.7813 Q270.2344,749.0156 271.125,749.8359 Q272.0156,750.6563 273.6094,750.6563 Q274.5469,750.6563 275.2031,750.4063 Q275.5938,750.25 276.0156,749.8125 Q276.2813,749.5469 276.4297,749.4688 Q276.5781,749.3906 276.7813,749.3906 Q277.1094,749.3906 277.3672,749.6484 Q277.625,749.9063 277.625,750.25 Q277.625,750.5938 277.2813,751 Q276.7813,751.5781 275.9844,751.9063 Q274.9063,752.3594 273.6094,752.3594 Q272.0938,752.3594 270.8906,751.7344 Q269.9063,751.2344 269.2188,750.1641 Q268.5313,749.0938 268.5313,747.8125 L268.5313,746.6563 Q268.5313,745.3281 269.1484,744.1797 Q269.7656,743.0313 270.8594,742.4141 Q271.9531,741.7969 273.1875,741.7969 Q273.9219,741.7969 274.5703,741.9609 Q275.2188,742.125 275.7656,742.4844 Z " fill="#000000"/><text fill="#000000" font-family="sans-serif" font-size="14" lengthAdjust="spacing" textLength="32.6826" x="287" y="752.3379">Casa</text></g><!--class Estudio--><g id="elem_Estudio"><rect codeLine="22" fill="#F1F1F1" height="32" id="Estudio" rx="2.5" ry="2.5" style="stroke:#181818;stroke-width:0.5;" width="78.6963" x="358" y="730.6094"/><ellipse cx="373" cy="746.6094" fill="#ADD1B2" rx="11" ry="11" style="stroke:#181818;stroke-width:1;"/><path d="M375.7656,742.4844 Q375.9219,742.2656 376.1094,742.1563 Q376.2969,742.0469 376.5156,742.0469 Q376.8906,742.0469 377.125,742.3047 Q377.3594,742.5625 377.3594,743.1719 L377.3594,744.625 Q377.3594,745.2344 377.125,745.5 Q376.8906,745.7656 376.5156,745.7656 Q376.1719,745.7656 375.9688,745.5625 Q375.7656,745.375 375.6563,744.8594 Q375.6094,744.5 375.4219,744.3125 Q375.0938,743.9375 374.4844,743.7188 Q373.875,743.5 373.25,743.5 Q372.4844,743.5 371.8516,743.8281 Q371.2188,744.1563 370.7266,744.9063 Q370.2344,745.6563 370.2344,746.6875 L370.2344,747.7813 Q370.2344,749.0156 371.125,749.8359 Q372.0156,750.6563 373.6094,750.6563 Q374.5469,750.6563 375.2031,750.4063 Q375.5938,750.25 376.0156,749.8125 Q376.2813,749.5469 376.4297,749.4688 Q376.5781,749.3906 376.7813,749.3906 Q377.1094,749.3906 377.3672,749.6484 Q377.625,749.9063 377.625,750.25 Q377.625,750.5938 377.2813,751 Q376.7813,751.5781 375.9844,751.9063 Q374.9063,752.3594 373.6094,752.3594 Q372.0938,752.3594 370.8906,751.7344 Q369.9063,751.2344 369.2188,750.1641 Q368.5313,749.0938 368.5313,747.8125 L368.5313,746.6563 Q368.5313,745.3281 369.1484,744.1797 Q369.7656,743.0313 370.8594,742.4141 Q371.9531,741.7969 373.1875,741.7969 Q373.9219,741.7969 374.5703,741.9609 Q375.2188,742.125 375.7656,742.4844 Z " fill="#000000"/><text fill="#000000" font-family="sans-serif" font-size="14" lengthAdjust="spacing" textLength="46.6963" x="387" y="752.3379">Estudio</text></g><!--class ItemCalculo--><g id="elem_ItemCalculo"><rect codeLine="23" fill="#F1F1F1" height="103.5313" id="ItemCalculo" rx="2.5" ry="2.5" style="stroke:#181818;stroke-width:0.5;" width="105.917" x="472.5" y="694.6094"/><ellipse cx="487.5" cy="715.9609" fill="#ADD1B2" rx="11" ry="11" style="stroke:#181818;stroke-width:1;"/><path d="M490.2656,711.8359 Q490.4219,711.6172 490.6094,711.5078 Q490.7969,711.3984 491.0156,711.3984 Q491.3906,711.3984 491.625,711.6563 Q491.8594,711.9141 491.8594,712.5234 L491.8594,713.9766 Q491.8594,714.5859 491.625,714.8516 Q491.3906,715.1172 491.0156,715.1172 Q490.6719,715.1172 490.4688,714.9141 Q490.2656,714.7266 490.1563,714.2109 Q490.1094,713.8516 489.9219,713.6641 Q489.5938,713.2891 488.9844,713.0703 Q488.375,712.8516 487.75,712.8516 Q486.9844,712.8516 486.3516,713.1797 Q485.7188,713.5078 485.2266,714.2578 Q484.7344,715.0078 484.7344,716.0391 L484.7344,717.1328 Q484.7344,718.3672 485.625,719.1875 Q486.5156,720.0078 488.1094,720.0078 Q489.0469,720.0078 489.7031,719.7578 Q490.0938,719.6016 490.5156,719.1641 Q490.7813,718.8984 490.9297,718.8203 Q491.0781,718.7422 491.2813,718.7422 Q491.6094,718.7422 491.8672,719 Q492.125,719.2578 492.125,719.6016 Q492.125,719.9453 491.7813,720.3516 Q491.2813,720.9297 490.4844,721.2578 Q489.4063,721.7109 488.1094,721.7109 Q486.5938,721.7109 485.3906,721.0859 Q484.4063,720.5859 483.7188,719.5156 Q483.0313,718.4453 483.0313,717.1641 L483.0313,716.0078 Q483.0313,714.6797 483.6484,713.5313 Q484.2656,712.3828 485.3594,711.7656 Q486.4531,711.1484 487.6875,711.1484 Q488.4219,711.1484 489.0703,711.3125 Q489.7188,711.4766 490.2656,711.8359 Z " fill="#000000"/><text fill="#000000" font-family="sans-serif" font-size="12" font-style="italic" lengthAdjust="spacing" textLength="77.3906" x="499.7632" y="712.0664">&#171;value object&#187;</text><text fill="#000000" font-family="sans-serif" font-size="14" lengthAdjust="spacing" textLength="73.917" x="501.5" y="729.2363">ItemCalculo</text><line style="stroke:#181818;stroke-width:0.5;" x1="473.5" x2="577.417" y1="737.3125" y2="737.3125"/><text fill="#000000" font-family="sans-serif" font-size="14" lengthAdjust="spacing" textLength="91.4238" x="478.5" y="755.8457">+descricao: str</text><text fill="#000000" font-family="sans-serif" font-size="14" lengthAdjust="spacing" textLength="72.7617" x="478.5" y="773.4551">+valor: float</text><text fill="#000000" font-family="sans-serif" font-size="14" lengthAdjust="spacing" textLength="54.0791" x="478.5" y="791.0645">+tipo: str</text></g><!--class Contrato--><g id="elem_Contrato"><rect codeLine="28" fill="#F1F1F1" height="121.1406" id="Contrato" rx="2.5" ry="2.5" style="stroke:#181818;stroke-width:0.5;" width="172.7334" x="579" y="465.1094"/><ellipse cx="634.2686" cy="486.4609" fill="#ADD1B2" rx="11" ry="11" style="stroke:#181818;stroke-width:1;"/><path d="M637.0342,482.3359 Q637.1904,482.1172 637.3779,482.0078 Q637.5654,481.8984 637.7842,481.8984 Q638.1592,481.8984 638.3936,482.1563 Q638.6279,482.4141 638.6279,483.0234 L638.6279,484.4766 Q638.6279,485.0859 638.3936,485.3516 Q638.1592,485.6172 637.7842,485.6172 Q637.4404,485.6172 637.2373,485.4141 Q637.0342,485.2266 636.9248,484.7109 Q636.8779,484.3516 636.6904,484.1641 Q636.3623,483.7891 635.7529,483.5703 Q635.1436,483.3516 634.5186,483.3516 Q633.7529,483.3516 633.1201,483.6797 Q632.4873,484.0078 631.9951,484.7578 Q631.5029,485.5078 631.5029,486.5391 L631.5029,487.6328 Q631.5029,488.8672 632.3936,489.6875 Q633.2842,490.5078 634.8779,490.5078 Q635.8154,490.5078 636.4717,490.2578 Q636.8623,490.1016 637.2842,489.6641 Q637.5498,489.3984 637.6982,489.3203 Q637.8467,489.2422 638.0498,489.2422 Q638.3779,489.2422 638.6357,489.5 Q638.8936,489.7578 638.8936,490.1016 Q638.8936,490.4453 638.5498,490.8516 Q638.0498,491.4297 637.2529,491.7578 Q636.1748,492.2109 634.8779,492.2109 Q633.3623,492.2109 632.1592,491.5859 Q631.1748,491.0859 630.4873,490.0156 Q629.7998,488.9453 629.7998,487.6641 L629.7998,486.5078 Q629.7998,485.1797 630.417,484.0313 Q631.0342,482.8828 632.1279,482.2656 Q633.2217,481.6484 634.4561,481.6484 Q635.1904,481.6484 635.8389,481.8125 Q636.4873,481.9766 637.0342,482.3359 Z " fill="#000000"/><text fill="#000000" font-family="sans-serif" font-size="12" font-style="italic" lengthAdjust="spacing" textLength="42.0293" x="660.6021" y="482.5664">&#171;entity&#187;</text><text fill="#000000" font-family="sans-serif" font-size="14" lengthAdjust="spacing" textLength="53.6963" x="654.7686" y="499.7363">Contrato</text><line style="stroke:#181818;stroke-width:0.5;" x1="580" x2="750.7334" y1="507.8125" y2="507.8125"/><text fill="#000000" font-family="sans-serif" font-size="14" lengthAdjust="spacing" textLength="49.4238" x="585" y="526.3457">+id: int?</text><text fill="#000000" font-family="sans-serif" font-size="14" lengthAdjust="spacing" textLength="107.0098" x="585" y="543.9551">+valor_total: float</text><text fill="#000000" font-family="sans-serif" font-size="14" lengthAdjust="spacing" textLength="160.7334" x="585" y="561.5645">+quantidade_parcelas: int</text><text fill="#000000" font-family="sans-serif" font-size="14" lengthAdjust="spacing" textLength="126.4648" x="585" y="579.1738">+valor_parcela: float</text></g><!--class Orcamento--><g id="elem_Orcamento"><rect codeLine="34" fill="#F1F1F1" height="164.3594" id="Orcamento" rx="2.5" ry="2.5" style="stroke:#181818;stroke-width:0.5;" width="171.9063" x="391.5" y="209.6094"/><ellipse cx="430.125" cy="230.9609" fill="#ADD1B2" rx="11" ry="11" style="stroke:#181818;stroke-width:1;"/><path d="M432.8906,226.8359 Q433.0469,226.6172 433.2344,226.5078 Q433.4219,226.3984 433.6406,226.3984 Q434.0156,226.3984 434.25,226.6563 Q434.4844,226.9141 434.4844,227.5234 L434.4844,228.9766 Q434.4844,229.5859 434.25,229.8516 Q434.0156,230.1172 433.6406,230.1172 Q433.2969,230.1172 433.0938,229.9141 Q432.8906,229.7266 432.7813,229.2109 Q432.7344,228.8516 432.5469,228.6641 Q432.2188,228.2891 431.6094,228.0703 Q431,227.8516 430.375,227.8516 Q429.6094,227.8516 428.9766,228.1797 Q428.3438,228.5078 427.8516,229.2578 Q427.3594,230.0078 427.3594,231.0391 L427.3594,232.1328 Q427.3594,233.3672 428.25,234.1875 Q429.1406,235.0078 430.7344,235.0078 Q431.6719,235.0078 432.3281,234.7578 Q432.7188,234.6016 433.1406,234.1641 Q433.4063,233.8984 433.5547,233.8203 Q433.7031,233.7422 433.9063,233.7422 Q434.2344,233.7422 434.4922,234 Q434.75,234.2578 434.75,234.6016 Q434.75,234.9453 434.4063,235.3516 Q433.9063,235.9297 433.1094,236.2578 Q432.0313,236.7109 430.7344,236.7109 Q429.2188,236.7109 428.0156,236.0859 Q427.0313,235.5859 426.3438,234.5156 Q425.6563,233.4453 425.6563,232.1641 L425.6563,231.0078 Q425.6563,229.6797 426.2734,228.5313 Q426.8906,227.3828 427.9844,226.7656 Q429.0781,226.1484 430.3125,226.1484 Q431.0469,226.1484 431.6953,226.3125 Q432.3438,226.4766 432.8906,226.8359 Z " fill="#000000"/><text fill="#000000" font-family="sans-serif" font-size="12" font-style="italic" lengthAdjust="spacing" textLength="91.4063" x="447.375" y="227.0664">&#171;aggregate root&#187;</text><text fill="#000000" font-family="sans-serif" font-size="14" lengthAdjust="spacing" textLength="69.248" x="458.4541" y="244.2363">Orcamento</text><line style="stroke:#181818;stroke-width:0.5;" x1="392.5" x2="562.4063" y1="252.3125" y2="252.3125"/><text fill="#000000" font-family="sans-serif" font-size="14" lengthAdjust="spacing" textLength="49.4238" x="397.5" y="270.8457">+id: int?</text><text fill="#000000" font-family="sans-serif" font-size="14" lengthAdjust="spacing" textLength="142.8027" x="397.5" y="288.4551">+criado_em: datetime?</text><text fill="#000000" font-family="sans-serif" font-size="14" lengthAdjust="spacing" textLength="157.582" x="397.5" y="306.0645">+itens: List&lt;ItemCalculo&gt;</text><text fill="#000000" font-family="sans-serif" font-size="14" lengthAdjust="spacing" textLength="140.4854" x="397.5" y="323.6738">+aluguel_mensal: float</text><text fill="#000000" font-family="sans-serif" font-size="14" lengthAdjust="spacing" textLength="158.375" x="397.5" y="341.2832">+total_primeiro_ano: float</text><line style="stroke:#181818;stroke-width:0.5;" x1="392.5" x2="562.4063" y1="348.3594" y2="348.3594"/><text fill="#000000" font-family="sans-serif" font-size="14" lengthAdjust="spacing" textLength="159.9063" x="397.5" y="366.8926">+cronograma(): List&lt;dict&gt;</text></g><!--class CalculoService--><g id="elem_CalculoService"><rect codeLine="42" fill="#F1F1F1" height="68.3125" id="CalculoService" rx="2.5" ry="2.5" style="stroke:#181818;stroke-width:0.5;" width="253.5957" x="201.5" y="54.6094"/><ellipse cx="277.3618" cy="75.9609" fill="#ADD1B2" rx="11" ry="11" style="stroke:#181818;stroke-width:1;"/><path d="M280.1274,71.8359 Q280.2837,71.6172 280.4712,71.5078 Q280.6587,71.3984 280.8774,71.3984 Q281.2524,71.3984 281.4868,71.6563 Q281.7212,71.9141 281.7212,72.5234 L281.7212,73.9766 Q281.7212,74.5859 281.4868,74.8516 Q281.2524,75.1172 280.8774,75.1172 Q280.5337,75.1172 280.3306,74.9141 Q280.1274,74.7266 280.0181,74.2109 Q279.9712,73.8516 279.7837,73.6641 Q279.4556,73.2891 278.8462,73.0703 Q278.2368,72.8516 277.6118,72.8516 Q276.8462,72.8516 276.2134,73.1797 Q275.5806,73.5078 275.0884,74.2578 Q274.5962,75.0078 274.5962,76.0391 L274.5962,77.1328 Q274.5962,78.3672 275.4868,79.1875 Q276.3774,80.0078 277.9712,80.0078 Q278.9087,80.0078 279.5649,79.7578 Q279.9556,79.6016 280.3774,79.1641 Q280.6431,78.8984 280.7915,78.8203 Q280.9399,78.7422 281.1431,78.7422 Q281.4712,78.7422 281.729,79 Q281.9868,79.2578 281.9868,79.6016 Q281.9868,79.9453 281.6431,80.3516 Q281.1431,80.9297 280.3462,81.2578 Q279.2681,81.7109 277.9712,81.7109 Q276.4556,81.7109 275.2524,81.0859 Q274.2681,80.5859 273.5806,79.5156 Q272.8931,78.4453 272.8931,77.1641 L272.8931,76.0078 Q272.8931,74.6797 273.5103,73.5313 Q274.1274,72.3828 275.2212,71.7656 Q276.3149,71.1484 277.5493,71.1484 Q278.2837,71.1484 278.9321,71.3125 Q279.5806,71.4766 280.1274,71.8359 Z " fill="#000000"/><text fill="#000000" font-family="sans-serif" font-size="12" font-style="italic" lengthAdjust="spacing" textLength="51.3574" x="318.8691" y="72.0664">&#171;service&#187;</text><text fill="#000000" font-family="sans-serif" font-size="14" lengthAdjust="spacing" textLength="93.3721" x="297.8618" y="89.2363">CalculoService</text><line style="stroke:#181818;stroke-width:0.5;" x1="202.5" x2="454.0957" y1="97.3125" y2="97.3125"/><text fill="#000000" font-family="sans-serif" font-size="14" lengthAdjust="spacing" text-decoration="underline" textLength="241.5957" x="207.5" y="115.8457">+processar_orcamento(...): Orcamento</text></g><!--class ExportService--><g id="elem_ExportService"><rect codeLine="45" fill="#F1F1F1" height="85.9219" id="ExportService" rx="2.5" ry="2.5" style="stroke:#181818;stroke-width:0.5;" width="271.4854" x="491" y="45.6094"/><ellipse cx="578.9204" cy="66.9609" fill="#ADD1B2" rx="11" ry="11" style="stroke:#181818;stroke-width:1;"/><path d="M581.686,62.8359 Q581.8423,62.6172 582.0298,62.5078 Q582.2173,62.3984 582.436,62.3984 Q582.811,62.3984 583.0454,62.6563 Q583.2798,62.9141 583.2798,63.5234 L583.2798,64.9766 Q583.2798,65.5859 583.0454,65.8516 Q582.811,66.1172 582.436,66.1172 Q582.0923,66.1172 581.8892,65.9141 Q581.686,65.7266 581.5767,65.2109 Q581.5298,64.8516 581.3423,64.6641 Q581.0142,64.2891 580.4048,64.0703 Q579.7954,63.8516 579.1704,63.8516 Q578.4048,63.8516 577.772,64.1797 Q577.1392,64.5078 576.647,65.2578 Q576.1548,66.0078 576.1548,67.0391 L576.1548,68.1328 Q576.1548,69.3672 577.0454,70.1875 Q577.936,71.0078 579.5298,71.0078 Q580.4673,71.0078 581.1235,70.7578 Q581.5142,70.6016 581.936,70.1641 Q582.2017,69.8984 582.3501,69.8203 Q582.4985,69.7422 582.7017,69.7422 Q583.0298,69.7422 583.2876,70 Q583.5454,70.2578 583.5454,70.6016 Q583.5454,70.9453 583.2017,71.3516 Q582.7017,71.9297 581.9048,72.2578 Q580.8267,72.7109 579.5298,72.7109 Q578.0142,72.7109 576.811,72.0859 Q575.8267,71.5859 575.1392,70.5156 Q574.4517,69.4453 574.4517,68.1641 L574.4517,67.0078 Q574.4517,65.6797 575.0688,64.5313 Q575.686,63.3828 576.7798,62.7656 Q577.8735,62.1484 579.1079,62.1484 Q579.8423,62.1484 580.4907,62.3125 Q581.1392,62.4766 581.686,62.8359 Z " fill="#000000"/><text fill="#000000" font-family="sans-serif" font-size="12" font-style="italic" lengthAdjust="spacing" textLength="51.3574" x="617.314" y="63.0664">&#171;service&#187;</text><text fill="#000000" font-family="sans-serif" font-size="14" lengthAdjust="spacing" textLength="87.1445" x="599.4204" y="80.2363">ExportService</text><line style="stroke:#181818;stroke-width:0.5;" x1="492" x2="761.4854" y1="88.3125" y2="88.3125"/><text fill="#000000" font-family="sans-serif" font-size="14" lengthAdjust="spacing" text-decoration="underline" textLength="259.4854" x="497" y="106.8457">+criar_dataframe(orcamento): DataFrame</text><text fill="#000000" font-family="sans-serif" font-size="14" lengthAdjust="spacing" text-decoration="underline" textLength="186.3545" x="497" y="124.4551">+gerar_csv(orcamento): bytes</text></g><!--reverse link Imovel to Apartamento--><g id="link_Imovel_Apartamento"><path codeLine="50" d="M254.4858,630.9124 C221.5458,673.8624 196.39,706.6494 178.26,730.2694 " fill="none" id="Imovel-backto-Apartamento" style="stroke:#181818;stroke-width:1;"/><polygon fill="none" points="265.44,616.6294,249.7248,627.261,259.2468,634.5638,265.44,616.6294" style="stroke:#181818;stroke-width:1;"/></g><!--reverse link Imovel to Casa--><g id="link_Imovel_Casa"><path codeLine="51" d="M312.8681,634.2775 C304.2481,677.2275 298.33,706.6494 293.58,730.2694 " fill="none" id="Imovel-backto-Casa" style="stroke:#181818;stroke-width:1;"/><polygon fill="none" points="316.41,616.6294,306.9854,633.0968,318.7508,635.4581,316.41,616.6294" style="stroke:#181818;stroke-width:1;"/></g><!--reverse link Imovel to Estudio--><g id="link_Imovel_Estudio"><path codeLine="52" d="M365.3742,633.9284 C377.7242,676.8784 386.29,706.6494 393.09,730.2694 " fill="none" id="Imovel-backto-Estudio" style="stroke:#181818;stroke-width:1;"/><polygon fill="none" points="360.4,616.6294,359.6079,635.5865,371.1406,632.2703,360.4,616.6294" style="stroke:#181818;stroke-width:1;"/></g><!--reverse link Orcamento to Cliente--><g id="link_Orcamento_Cliente"><path codeLine="53" d="M380.3474,329.7027 C318.6574,355.0027 246.12,388.8794 179.5,434.6094 C163.2,445.7994 147.01,459.7694 132.74,473.3494 " fill="none" id="Orcamento-backto-Cliente" style="stroke:#181818;stroke-width:1;"/><polygon fill="#181818" points="391.45,325.1494,384.3809,323.7252,380.3474,329.7027,387.4165,331.1269,391.45,325.1494" style="stroke:#181818;stroke-width:1;"/><text fill="#000000" font-family="sans-serif" font-size="13" lengthAdjust="spacing" textLength="7.23" x="131.7802" y="462.8022">1</text></g><!--reverse link Orcamento to Imovel--><g id="link_Orcamento_Imovel"><path codeLine="54" d="M421.1901,383.9626 C409.1001,403.5626 402.42,414.4194 390.1,434.3994 " fill="none" id="Orcamento-backto-Imovel" style="stroke:#181818;stroke-width:1;"/><polygon fill="#181818" points="427.49,373.7494,420.9356,376.756,421.1901,383.9626,427.7445,380.956,427.49,373.7494" style="stroke:#181818;stroke-width:1;"/><text fill="#000000" font-family="sans-serif" font-size="13" lengthAdjust="spacing" textLength="7.23" x="387.4074" y="423.6945">1</text></g><!--reverse link Orcamento to Contrato--><g id="link_Orcamento_Contrato"><path codeLine="55" d="M550.8052,383.0724 C575.1652,413.1324 594.75,437.2994 617.26,465.0794 " fill="none" id="Orcamento-backto-Contrato" style="stroke:#181818;stroke-width:1;"/><polygon fill="#181818" points="543.25,373.7494,543.9199,380.9293,550.8052,383.0724,550.1353,375.8925,543.25,373.7494" style="stroke:#181818;stroke-width:1;"/><text fill="#000000" font-family="sans-serif" font-size="13" lengthAdjust="spacing" textLength="7.23" x="603.9844" y="454.2353">1</text></g><!--reverse link Orcamento to ItemCalculo--><g id="link_Orcamento_ItemCalculo"><path codeLine="56" d="M487.3744,385.7926 C497.2344,478.8526 511.83,616.5594 520.09,694.5794 " fill="none" id="Orcamento-backto-ItemCalculo" style="stroke:#181818;stroke-width:1;"/><polygon fill="none" points="486.11,373.8594,482.7644,380.2474,487.3744,385.7926,490.7199,379.4045,486.11,373.8594" style="stroke:#181818;stroke-width:1;"/><text fill="#000000" font-family="sans-serif" font-size="13" lengthAdjust="spacing" textLength="19.5127" x="499.0352" y="683.6905">1..*</text></g><!--link Imovel to ItemCalculo--><g id="link_Imovel_ItemCalculo"><path codeLine="57" d="M413.01,616.6294 C436.16,643.1794 456.7468,666.777 476.9668,689.967 " fill="none" id="Imovel-to-ItemCalculo" style="stroke:#181818;stroke-width:1;stroke-dasharray:7.0,7.0;"/><polygon fill="#181818" points="480.91,694.4894,478.0102,685.0771,477.624,690.7208,471.9804,690.3346,480.91,694.4894" style="stroke:#181818;stroke-width:1;"/><text fill="#000000" font-family="sans-serif" font-size="13" lengthAdjust="spacing" textLength="20.9473" x="454.5" y="661.1045">cria</text></g><!--link CalculoService to Orcamento--><g id="link_CalculoService_Orcamento"><path codeLine="58" d="M353.1,122.7994 C370.54,146.3294 391.1676,174.1388 413.5776,204.3788 " fill="none" id="CalculoService-to-Orcamento" style="stroke:#181818;stroke-width:1;stroke-dasharray:7.0,7.0;"/><polygon fill="#181818" points="417.15,209.1994,415.0051,199.5869,414.173,205.1822,408.5777,204.3501,417.15,209.1994" style="stroke:#181818;stroke-width:1;"/><text fill="#000000" font-family="sans-serif" font-size="13" lengthAdjust="spacing" textLength="45.519" x="395.5" y="176.1045">constr&#243;i</text></g><!--link ExportService to Orcamento--><g id="link_ExportService_Orcamento"><path codeLine="59" d="M595.26,131.7494 C578.54,154.3094 560.9331,178.0593 541.1631,204.7293 " fill="none" id="ExportService-to-Orcamento" style="stroke:#181818;stroke-width:1;stroke-dasharray:7.0,7.0;"/><polygon fill="#181818" points="537.59,209.5494,546.163,204.7013,540.5675,205.5326,539.7362,199.9372,537.59,209.5494" style="stroke:#181818;stroke-width:1;"/><text fill="#000000" font-family="sans-serif" font-size="13" lengthAdjust="spacing" textLength="43.3608" x="570.5" y="176.1045">exporta</text></g><!--SRC=[XLDBRjj03Dth50Elt0GHsgqHk0YI533G8a1p084QqGhRaQZEK6xTD8VfgWVe4NonSlInPSDjLngz8H_9npT2uj3S4PGUAZ05cbi78M0mL-QHWc0FFlZTBwYm5ZQhYdDojFlfYSt7z4CIFbFTWAOR6rDlH3pbhU3ASlr8tz6ydeI49oZuAzMbMOCBc3oHicFLoDPKMENeGv9qDDe7QJqqrzVw8Takb-OvCUQIYeMXMjx6SyqLBamG7tyQ3g6bp7g2sa9Oc9pP9Iy9v1e0LlhsOlyRT4exukU8lxJWXKC7nFyDbB3_UnupNyobKCDZ1rDy0uvzbaFG_jQEuJJFWhEj0v-HO1tcjX_srSAyLz6lLwhxRHV1orX-7mskBLjqa_YU_6KGxKPLbdvHeumGO3ZU1saB6YycDLGCxRT5m_adF0XIO50nBUm7xASw33IPVcpWbciTKVYVQ-l54HPm4pBLN3CAA33JAImwcEeVCmRuTEW7RmTlwbBBqcC9wXlFV7QrqHy5PrWjJA5nGXLsUBU8l-W_o9vfbN3KSpT3rdWb8SyPr3ovj9vhxjxLV5niGIhlGQo-n2Fw3TdezD2VXhQVWu2GLRSqdYs6e0RWSTPvcgRAkfzzJth_hM4l_-UCElXC9O2rjeZpFREotYdwBg976ILwpR1XSnIRRmM3La_6X_NZwkh8XrEyS-CK63rvsE65ehCti_7zdxdfyy-b3EQRN75tbQONiwdXnnRIT7dq3XOcgfASx2L67HWrXckr_Eut9STQdyPXTmj_0000]--></g></svg>