<svg xmlns="http://www.w3.org/2000/svg" xmlns:xlink="http://www.w3.org/1999/xlink" contentStyleType="text/css" height="454px" preserveAspectRatio="none" style="width:812px;height:454px;background:#FFFFFF;" version="1.1" viewBox="0 0 812 454" width="812px" zoomAndPan="magnify"><defs/><g><!--class Imovel--><g id="elem_Imovel"><rect codeLine="2" fill="#F1F1F1" height="136.0469" id="Imovel" rx="2.5" ry="2.5" style="stroke:#181818;stroke-width:0.5;" width="297.9609" x="91" y="168"/><ellipse cx="215.1133" cy="184" fill="#A9DCDF" rx="11" ry="11" style="stroke:#181818;stroke-width:1;"/><path d="M217.3008,185.7656 L213.1602,185.7656 L212.7383,186.7969 L213.1602,186.7969 Q213.7695,186.7969 214.0352,187.0313 Q214.3008,187.2656 214.3008,187.6563 Q214.3008,188.0313 214.0352,188.2656 Q213.7695,188.5 213.1602,188.5 L210.8633,188.5 Q210.2539,188.5 209.9961,188.2656 Q209.7383,188.0313 209.7383,187.6406 Q209.7383,187.2656 210.0117,187.0234 Q210.2852,186.7813 210.9102,186.7969 L213.582,180.1406 L212.4727,180.1406 Q211.8633,180.1406 211.5977,179.9063 Q211.332,179.6719 211.332,179.2813 Q211.332,178.9063 211.5977,178.6719 Q211.8633,178.4375 212.4727,178.4375 L216.1445,178.4375 L219.5352,186.7969 Q220.1289,186.7969 220.3164,186.9375 Q220.707,187.2031 220.707,187.6563 Q220.707,188.0313 220.4492,188.2656 Q220.1914,188.5 219.582,188.5 L217.2852,188.5 Q216.6758,188.5 216.4102,188.2656 Q216.1445,188.0313 216.1445,187.6406 Q216.1445,187.2656 216.4102,187.0313 Q216.6758,186.7969 217.2852,186.7969 L217.707,186.7969 L217.3008,185.7656 Z M216.582,184.0625 L215.2227,180.6875 L213.8477,184.0625 L216.582,184.0625 Z " fill="#000000"/><text fill="#000000" font-family="sans-serif" font-size="14" font-style="italic" lengthAdjust="spacing" textLength="41.2344" x="235.6133" y="189.7285">Imovel</text><line style="stroke:#181818;stroke-width:0.5;" x1="92" x2="387.9609" y1="200" y2="200"/><text fill="#000000" font-family="sans-serif" font-size="14" lengthAdjust="spacing" textLength="77.4375" x="97" y="218.5332">+quartos: int</text><text fill="#000000" font-family="sans-serif" font-size="14" lengthAdjust="spacing" textLength="68.0996" x="97" y="236.1426">+vagas: int</text><text fill="#000000" font-family="sans-serif" font-size="14" lengthAdjust="spacing" textLength="54.0791" x="97" y="253.752">+tipo: str</text><line style="stroke:#181818;stroke-width:0.5;" x1="92" x2="387.9609" y1="260.8281" y2="260.8281"/><text fill="#000000" font-family="sans-serif" font-size="14" lengthAdjust="spacing" textLength="285.9609" x="97" y="279.3613">+calcular_itens(cliente): List&lt;ItemOrcamento&gt;</text><text fill="#000000" font-family="sans-serif" font-size="14" lengthAdjust="spacing" textLength="245.5332" x="97" y="296.9707">+calcular_aluguel_centavos(cliente): int</text></g><!--class Apartamento--><g id="elem_Apartamento"><rect codeLine="9" fill="#F1F1F1" height="48" id="Apartamento" rx="2.5" ry="2.5" style="stroke:#181818;stroke-width:0.5;" width="112.1582" x="7" y="381.5"/><ellipse cx="22" cy="397.5" fill="#ADD1B2" rx="11" ry="11" style="stroke:#181818;stroke-width:1;"/><path d="M24.7656,393.375 Q24.9219,393.1563 25.1094,393.0469 Q25.2969,392.9375 25.5156,392.9375 Q25.8906,392.9375 26.125,393.1953 Q26.3594,393.4531 26.3594,394.0625 L26.3594,395.5156 Q26.3594,396.125 26.125,396.3906 Q25.8906,396.6563 25.5156,396.6563 Q25.1719,396.6563 24.9688,396.4531 Q24.7656,396.2656 24.6563,395.75 Q24.6094,395.3906 24.4219,395.2031 Q24.0938,394.8281 23.4844,394.6094 Q22.875,394.3906 22.25,394.3906 Q21.4844,394.3906 20.8516,394.7188 Q20.2188,395.0469 19.7266,395.7969 Q19.2344,396.5469 19.2344,397.5781 L19.2344,398.6719 Q19.2344,399.9063 20.125,400.7266 Q21.0156,401.5469 22.6094,401.5469 Q23.5469,401.5469 24.2031,401.2969 Q24.5938,401.1406 25.0156,400.7031 Q25.2813,400.4375 25.4297,400.3594 Q25.5781,400.2813 25.7813,400.2813 Q26.1094,400.2813 26.3672,400.5391 Q26.625,400.7969 26.625,401.1406 Q26.625,401.4844 26.2813,401.8906 Q25.7813,402.4688 24.9844,402.7969 Q23.9063,403.25 22.6094,403.25 Q21.0938,403.25 19.8906,402.625 Q18.9063,402.125 18.2188,401.0547 Q17.5313,399.9844 17.5313,398.7031 L17.5313,397.5469 Q17.5313,396.2188 18.1484,395.0703 Q18.7656,393.9219 19.8594,393.3047 Q20.9531,392.6875 22.1875,392.6875 Q22.9219,392.6875 23.5703,392.8516 Q24.2188,393.0156 24.7656,393.375 Z " fill="#000000"/><text fill="#000000" font-family="sans-serif" font-size="14" lengthAdjust="spacing" textLength="80.1582" x="36" y="403.2285">Apartamento</text><line style="stroke:#181818;stroke-width:0.5;" x1="8" x2="118.1582" y1="413.5" y2="413.5"/><line style="stroke:#181818;stroke-width:0.5;" x1="8" x2="118.1582" y1="421.5" y2="421.5"/></g><!--class Casa--><g id="elem_Casa"><rect codeLine="10" fill="#F1F1F1" height="48" id="Casa" rx="2.5" ry="2.5" style="stroke:#181818;stroke-width:0.5;" width="64.6826" x="154.5" y="381.5"/><ellipse cx="169.5" cy="397.5" fill="#ADD1B2" rx="11" ry="11" style="stroke:#181818;stroke-width:1;"/><path d="M172.2656,393.375 Q172.4219,393.1563 172.6094,393.0469 Q172.7969,392.9375 173.0156,392.9375 Q173.3906,392.9375 173.625,393.1953 Q173.8594,393.4531 173.8594,394.0625 L173.8594,395.5156 Q173.8594,396.125 173.625,396.3906 Q173.3906,396.6563 173.0156,396.6563 Q172.6719,396.6563 172.4688,396.4531 Q172.2656,396.2656 172.1563,395.75 Q172.1094,395.3906 171.9219,395.2031 Q171.5938,394.8281 170.9844,394.6094 Q170.375,394.3906 169.75,394.3906 Q168.9844,394.3906 168.3516,394.7188 Q167.7188,395.0469 167.2266,395.7969 Q166.7344,396.5469 166.7344,397.5781 L166.7344,398.6719 Q166.7344,399.9063 167.625,400.7266 Q168.5156,401.5469 170.1094,401.5469 Q171.0469,401.5469 171.7031,401.2969 Q172.0938,401.1406 172.5156,400.7031 Q172.7813,400.4375 172.9297,400.3594 Q173.0781,400.2813 173.2813,400.2813 Q173.6094,400.2813 173.8672,400.5391 Q174.125,400.7969 174.125,401.1406 Q174.125,401.4844 173.7813,401.8906 Q173.2813,402.4688 172.4844,402.7969 Q171.4063,403.25 170.1094,403.25 Q168.5938,403.25 167.3906,402.625 Q166.4063,402.125 165.7188,401.0547 Q165.0313,399.9844 165.0313,398.7031 L165.0313,397.5469 Q165.0313,396.2188 165.6484,395.0703 Q166.2656,393.9219 167.3594,393.3047 Q168.4531,392.6875 169.6875,392.6875 Q170.4219,392.6875 171.0703,392.8516 Q171.7188,393.0156 172.2656,393.375 Z " fill="#000000"/><text fill="#000000" font-family="sans-serif" font-size="14" lengthAdjust="spacing" textLength="32.6826" x="183.5" y="403.2285">Casa</text><line style="stroke:#181818;stroke-width:0.5;" x1="155.5" x2="218.1826" y1="413.5" y2="413.5"/><line style="stroke:#181818;stroke-width:0.5;" x1="155.5" x2="218.1826" y1="421.5" y2="421.5"/></g><!--class Estudio--><g id="elem_Estudio"><rect codeLine="11" fill="#F1F1F1" height="48" id="Estudio" rx="2.5" ry="2.5" style="stroke:#181818;stroke-width:0.5;" width="78.6963" x="254.5" y="381.5"/><ellipse cx="269.5" cy="397.5" fill="#ADD1B2" rx="11" ry="11" style="stroke:#181818;stroke-width:1;"/><path d="M272.2656,393.375 Q272.4219,393.1563 272.6094,393.0469 Q272.7969,392.9375 273.0156,392.9375 Q273.3906,392.9375 273.625,393.1953 Q273.8594,393.4531 273.8594,394.0625 L273.8594,395.5156 Q273.8594,396.125 273.625,396.3906 Q273.3906,396.6563 273.0156,396.6563 Q272.6719,396.6563 272.4688,396.4531 Q272.2656,396.2656 272.1563,395.75 Q272.1094,395.3906 271.9219,395.2031 Q271.5938,394.8281 270.9844,394.6094 Q270.375,394.3906 269.75,394.3906 Q268.9844,394.3906 268.3516,394.7188 Q267.7188,395.0469 267.2266,395.7969 Q266.7344,396.5469 266.7344,397.5781 L266.7344,398.6719 Q266.7344,399.9063 267.625,400.7266 Q268.5156,401.5469 270.1094,401.5469 Q271.0469,401.5469 271.7031,401.2969 Q272.0938,401.1406 272.5156,400.7031 Q272.7813,400.4375 272.9297,400.3594 Q273.0781,400.2813 273.2813,400.2813 Q273.6094,400.2813 273.8672,400.5391 Q274.125,400.7969 274.125,401.1406 Q274.125,401.4844 273.7813,401.8906 Q273.2813,402.4688 272.4844,402.7969 Q271.4063,403.25 270.1094,403.25 Q268.5938,403.25 267.3906,402.625 Q266.4063,402.125 265.7188,401.0547 Q265.0313,399.9844 265.0313,398.7031 L265.0313,397.5469 Q265.0313,396.2188 265.6484,395.0703 Q266.2656,393.9219 267.3594,393.3047 Q268.4531,392.6875 269.6875,392.6875 Q270.4219,392.6875 271.0703,392.8516 Q271.7188,393.0156 272.2656,393.375 Z " fill="#000000"/><text fill="#000000" font-family="sans-serif" font-size="14" lengthAdjust="spacing" textLength="46.6963" x="283.5" y="403.2285">Estudio</text><line style="stroke:#181818;stroke-width:0.5;" x1="255.5" x2="332.1963" y1="413.5" y2="413.5"/><line style="stroke:#181818;stroke-width:0.5;" x1="255.5" x2="332.1963" y1="421.5" y2="421.5"/></g><!--class Cliente--><g id="elem_Cliente"><rect codeLine="12" fill="#F1F1F1" height="83.2188" id="Cliente" rx="2.5" ry="2.5" style="stroke:#181818;stroke-width:0.5;" width="154.8096" x="424.5" y="194.5"/><ellipse cx="475.8652" cy="210.5" fill="#ADD1B2" rx="11" ry="11" style="stroke:#181818;stroke-width:1;"/><path d="M478.6309,206.375 Q478.7871,206.1563 478.9746,206.0469 Q479.1621,205.9375 479.3809,205.9375 Q479.7559,205.9375 479.9902,206.1953 Q480.2246,206.4531 480.2246,207.0625 L480.2246,208.5156 Q480.2246,209.125 479.9902,209.3906 Q479.7559,209.6563 479.3809,209.6563 Q479.0371,209.6563 478.834,209.4531 Q478.6309,209.2656 478.5215,208.75 Q478.4746,208.3906 478.2871,208.2031 Q477.959,207.8281 477.3496,207.6094 Q476.7402,207.3906 476.1152,207.3906 Q475.3496,207.3906 474.7168,207.7188 Q474.084,208.0469 473.5918,208.7969 Q473.0996,209.5469 473.0996,210.5781 L473.0996,211.6719 Q473.0996,212.9063 473.9902,213.7266 Q474.8809,214.5469 476.4746,214.5469 Q477.4121,214.5469 478.0684,214.2969 Q478.459,214.1406 478.8809,213.7031 Q479.1465,213.4375 479.2949,213.3594 Q479.4434,213.2813 479.6465,213.2813 Q479.9746,213.2813 480.2324,213.5391 Q480.4902,213.7969 480.4902,214.1406 Q480.4902,214.4844 480.1465,214.8906 Q479.6465,215.4688 478.8496,215.7969 Q477.7715,216.25 476.4746,216.25 Q474.959,216.25 473.7559,215.625 Q472.7715,215.125 472.084,214.0547 Q471.3965,212.9844 471.3965,211.7031 L471.3965,210.5469 Q471.3965,209.2188 472.0137,208.0703 Q472.6309,206.9219 473.7246,206.3047 Q474.8184,205.6875 476.0527,205.6875 Q476.7871,205.6875 477.4355,205.8516 Q478.084,206.0156 478.6309,206.375 Z " fill="#000000"/><text fill="#000000" font-family="sans-serif" font-size="14" lengthAdjust="spacing" textLength="43.5791" x="496.3652" y="216.2285">Cliente</text><line style="stroke:#181818;stroke-width:0.5;" x1="425.5" x2="578.3096" y1="226.5" y2="226.5"/><text fill="#000000" font-family="sans-serif" font-size="14" lengthAdjust="spacing" textLength="66.5273" x="430.5" y="245.0332">+nome: str</text><text fill="#000000" font-family="sans-serif" font-size="14" lengthAdjust="spacing" textLength="142.8096" x="430.5" y="262.6426">+possui_criancas: bool</text><line style="stroke:#181818;stroke-width:0.5;" x1="425.5" x2="578.3096" y1="269.7188" y2="269.7188"/></g><!--class ItemOrcamento--><g id="elem_ItemOrcamento"><rect codeLine="16" fill="#F1F1F1" height="83.2188" id="ItemOrcamento" rx="2.5" ry="2.5" style="stroke:#181818;stroke-width:0.5;" width="136.9063" x="368.5" y="364"/><ellipse cx="387.2938" cy="380" fill="#ADD1B2" rx="11" ry="11" style="stroke:#181818;stroke-width:1;"/><path d="M390.0594,375.875 Q390.2157,375.6563 390.4032,375.5469 Q390.5907,375.4375 390.8094,375.4375 Q391.1844,375.4375 391.4188,375.6953 Q391.6532,375.9531 391.6532,376.5625 L391.6532,378.0156 Q391.6532,378.625 391.4188,378.8906 Q391.1844,379.1563 390.8094,379.1563 Q390.4657,379.1563 390.2625,378.9531 Q390.0594,378.7656 389.95,378.25 Q389.9032,377.8906 389.7157,377.7031 Q389.3875,377.3281 388.7782,377.1094 Q388.1688,376.8906 387.5438,376.8906 Q386.7782,376.8906 386.1454,377.2188 Q385.5125,377.5469 385.0204,378.2969 Q384.5282,379.0469 384.5282,380.0781 L384.5282,381.1719 Q384.5282,382.4063 385.4188,383.2266 Q386.3094,384.0469 387.9032,384.0469 Q388.8407,384.0469 389.4969,383.7969 Q389.8875,383.6406 390.3094,383.2031 Q390.575,382.9375 390.7235,382.8594 Q390.8719,382.7813 391.075,382.7813 Q391.4032,382.7813 391.661,383.0391 Q391.9188,383.2969 391.9188,383.6406 Q391.9188,383.9844 391.575,384.3906 Q391.075,384.9688 390.2782,385.2969 Q389.2,385.75 387.9032,385.75 Q386.3875,385.75 385.1844,385.125 Q384.2,384.625 383.5125,383.5547 Q382.825,382.4844 382.825,381.2031 L382.825,380.0469 Q382.825,378.7188 383.4422,377.5703 Q384.0594,376.4219 385.1532,375.8047 Q386.2469,375.1875 387.4813,375.1875 Q388.2157,375.1875 388.8641,375.3516 Q389.5125,375.5156 390.0594,375.875 Z " fill="#000000"/><text fill="#000000" font-family="sans-serif" font-size="14" lengthAdjust="spacing" textLength="96.4756" x="402.1369" y="385.7285">ItemOrcamento</text><line style="stroke:#181818;stroke-width:0.5;" x1="369.5" x2="504.4063" y1="396" y2="396"/><text fill="#000000" font-family="sans-serif" font-size="14" lengthAdjust="spacing" textLength="91.4238" x="374.5" y="414.5332">+descricao: str</text><text fill="#000000" font-family="sans-serif" font-size="14" lengthAdjust="spacing" textLength="124.9063" x="374.5" y="432.1426">+valor_centavos: int</text><line style="stroke:#181818;stroke-width:0.5;" x1="369.5" x2="504.4063" y1="439.2188" y2="439.2188"/></g><!--class ContratoImobiliario--><g id="elem_ContratoImobiliario"><rect codeLine="20" fill="#F1F1F1" height="100.8281" id="ContratoImobiliario" rx="2.5" ry="2.5" style="stroke:#181818;stroke-width:0.5;" width="190.6094" x="614.5" y="185.5"/><ellipse cx="648.001" cy="201.5" fill="#ADD1B2" rx="11" ry="11" style="stroke:#181818;stroke-width:1;"/><path d="M650.7666,197.375 Q650.9229,197.1563 651.1104,197.0469 Q651.2979,196.9375 651.5166,196.9375 Q651.8916,196.9375 652.126,197.1953 Q652.3604,197.4531 652.3604,198.0625 L652.3604,199.5156 Q652.3604,200.125 652.126,200.3906 Q651.8916,200.6563 651.5166,200.6563 Q651.1729,200.6563 650.9697,200.4531 Q650.7666,200.2656 650.6572,199.75 Q650.6104,199.3906 650.4229,199.2031 Q650.0947,198.8281 649.4854,198.6094 Q648.876,198.3906 648.251,198.3906 Q647.4854,198.3906 646.8525,198.7188 Q646.2197,199.0469 645.7275,199.7969 Q645.2354,200.5469 645.2354,201.5781 L645.2354,202.6719 Q645.2354,203.9063 646.126,204.7266 Q647.0166,205.5469 648.6104,205.5469 Q649.5479,205.5469 650.2041,205.2969 Q650.5947,205.1406 651.0166,204.7031 Q651.2822,204.4375 651.4307,204.3594 Q651.5791,204.2813 651.7822,204.2813 Q652.1104,204.2813 652.3682,204.5391 Q652.626,204.7969 652.626,205.1406 Q652.626,205.4844 652.2822,205.8906 Q651.7822,206.4688 650.9854,206.7969 Q649.9072,207.25 648.6104,207.25 Q647.0947,207.25 645.8916,206.625 Q644.9072,206.125 644.2197,205.0547 Q643.5322,203.9844 643.5322,202.7031 L643.5322,201.5469 Q643.5322,200.2188 644.1494,199.0703 Q644.7666,197.9219 645.8604,197.3047 Q646.9541,196.6875 648.1885,196.6875 Q648.9229,196.6875 649.5713,196.8516 Q650.2197,197.0156 650.7666,197.375 Z " fill="#000000"/><text fill="#000000" font-family="sans-serif" font-size="14" lengthAdjust="spacing" textLength="117.4961" x="666.1123" y="207.2285">ContratoImobiliario</text><line style="stroke:#181818;stroke-width:0.5;" x1="615.5" x2="804.1094" y1="217.5" y2="217.5"/><text fill="#000000" font-family="sans-serif" font-size="14" lengthAdjust="spacing" textLength="83.6582" x="620.5" y="236.0332">+parcelas: int</text><text fill="#000000" font-family="sans-serif" font-size="14" lengthAdjust="spacing" textLength="159.1543" x="620.5" y="253.6426">+valor_total_centavos: int</text><text fill="#000000" font-family="sans-serif" font-size="14" lengthAdjust="spacing" textLength="178.6094" x="620.5" y="271.252">+valor_parcela_centavos: int</text><line style="stroke:#181818;stroke-width:0.5;" x1="615.5" x2="804.1094" y1="278.3281" y2="278.3281"/></g><!--class Orcamento--><g id="elem_Orcamento"><rect codeLine="25" fill="#F1F1F1" height="100.8281" id="Orcamento" rx="2.5" ry="2.5" style="stroke:#181818;stroke-width:0.5;" width="222.5195" x="390.5" y="7"/><ellipse cx="462.8857" cy="23" fill="#ADD1B2" rx="11" ry="11" style="stroke:#181818;stroke-width:1;"/><path d="M465.6514,18.875 Q465.8076,18.6563 465.9951,18.5469 Q466.1826,18.4375 466.4014,18.4375 Q466.7764,18.4375 467.0107,18.6953 Q467.2451,18.9531 467.2451,19.5625 L467.2451,21.0156 Q467.2451,21.625 467.0107,21.8906 Q466.7764,22.1563 466.4014,22.1563 Q466.0576,22.1563 465.8545,21.9531 Q465.6514,21.7656 465.542,21.25 Q465.4951,20.8906 465.3076,20.7031 Q464.9795,20.3281 464.3701,20.1094 Q463.7607,19.8906 463.1357,19.8906 Q462.3701,19.8906 461.7373,20.2188 Q461.1045,20.5469 460.6123,21.2969 Q460.1201,22.0469 460.1201,23.0781 L460.1201,24.1719 Q460.1201,25.4063 461.0107,26.2266 Q461.9014,27.0469 463.4951,27.0469 Q464.4326,27.0469 465.0889,26.7969 Q465.4795,26.6406 465.9014,26.2031 Q466.167,25.9375 466.3154,25.8594 Q466.4639,25.7813 466.667,25.7813 Q466.9951,25.7813 467.2529,26.0391 Q467.5107,26.2969 467.5107,26.6406 Q467.5107,26.9844 467.167,27.3906 Q466.667,27.9688 465.8701,28.2969 Q464.792,28.75 463.4951,28.75 Q461.9795,28.75 460.7764,28.125 Q459.792,27.625 459.1045,26.5547 Q458.417,25.4844 458.417,24.2031 L458.417,23.0469 Q458.417,21.7188 459.0342,20.5703 Q459.6514,19.4219 460.7451,18.8047 Q461.8389,18.1875 463.0732,18.1875 Q463.8076,18.1875 464.4561,18.3516 Q465.1045,18.5156 465.6514,18.875 Z " fill="#000000"/><text fill="#000000" font-family="sans-serif" font-size="14" lengthAdjust="spacing" textLength="69.248" x="483.3857" y="28.7285">Orcamento</text><line style="stroke:#181818;stroke-width:0.5;" x1="391.5" x2="612.0195" y1="39" y2="39"/><text fill="#000000" font-family="sans-serif" font-size="14" lengthAdjust="spacing" textLength="192.6299" x="396.5" y="57.5332">+aluguel_mensal_centavos: int</text><text fill="#000000" font-family="sans-serif" font-size="14" lengthAdjust="spacing" textLength="210.5195" x="396.5" y="75.1426">+total_primeiro_ano_centavos: int</text><line style="stroke:#181818;stroke-width:0.5;" x1="391.5" x2="612.0195" y1="82.2188" y2="82.2188"/><text fill="#000000" font-family="sans-serif" font-size="14" lengthAdjust="spacing" textLength="205.0508" x="396.5" y="100.752">+gerar_cronograma_12_meses()</text></g><!--reverse link Imovel to Apartamento--><g id="link_Imovel_Apartamento"><path codeLine="30" d="M155.9558,316.532 C127.0958,343.842 108.73,361.22 87.64,381.18 " fill="none" id="Imovel-backto-Apartamento" style="stroke:#181818;stroke-width:1;"/><polygon fill="none" points="169.03,304.16,151.8318,312.1739,160.0798,320.89,169.03,304.16" style="stroke:#181818;stroke-width:1;"/></g><!--reverse link Imovel to Casa--><g id="link_Imovel_Casa"><path codeLine="31" d="M213.3206,321.3216 C204.6806,348.6316 200.69,361.22 194.38,381.18 " fill="none" id="Imovel-backto-Casa" style="stroke:#181818;stroke-width:1;"/><polygon fill="none" points="218.75,304.16,207.6001,319.5118,219.0412,323.1314,218.75,304.16" style="stroke:#181818;stroke-width:1;"/></g><!--reverse link Imovel to Estudio--><g id="link_Imovel_Estudio"><path codeLine="32" d="M267.1762,321.2907 C275.9862,348.6007 280.05,361.22 286.48,381.18 " fill="none" id="Imovel-backto-Estudio" style="stroke:#181818;stroke-width:1;"/><polygon fill="none" points="261.65,304.16,261.466,323.1328,272.8865,319.4486,261.65,304.16" style="stroke:#181818;stroke-width:1;"/></g><!--reverse link Orcamento to Cliente--><g id="link_Orcamento_Cliente"><path codeLine="33" d="M502,120.13 C502,147.36 502,168.69 502,194.35 " fill="none" id="Orcamento-backto-Cliente" style="stroke:#181818;stroke-width:1;"/><polygon fill="#181818" points="502,108.13,498,114.13,502,120.13,506,114.13,502,108.13" style="stroke:#181818;stroke-width:1;"/></g><!--reverse link Orcamento to Imovel--><g id="link_Orcamento_Imovel"><path codeLine="34" d="M418.3677,114.8347 C390.8177,133.3947 369.02,148.09 339.52,167.96 " fill="none" id="Orcamento-backto-Imovel" style="stroke:#181818;stroke-width:1;"/><polygon fill="#181818" points="428.32,108.13,421.109,108.1649,418.3677,114.8347,425.5788,114.7998,428.32,108.13" style="stroke:#181818;stroke-width:1;"/></g><!--reverse link Orcamento to ContratoImobiliario--><g id="link_Orcamento_ContratoImobiliario"><path codeLine="35" d="M569.6393,115.8947 C598.1193,140.0647 623.12,161.28 651.59,185.43 " fill="none" id="Orcamento-backto-ContratoImobiliario" style="stroke:#181818;stroke-width:1;"/><polygon fill="#181818" points="560.49,108.13,562.4764,115.0621,569.6393,115.8947,567.6529,108.9626,560.49,108.13" style="stroke:#181818;stroke-width:1;"/></g><!--link Imovel to ItemOrcamento--><g id="link_Imovel_ItemOrcamento"><path codeLine="36" d="M318.99,304.16 C342.76,324.37 363.5286,342.0339 384.6086,359.9539 " fill="none" id="Imovel-to-ItemOrcamento" style="stroke:#181818;stroke-width:1;stroke-dasharray:7.0,7.0;"/><polygon fill="#181818" points="389.18,363.84,384.9136,354.9632,385.3705,360.6015,379.7321,361.0584,389.18,363.84" style="stroke:#181818;stroke-width:1;"/></g><!--SRC=[TL9DQyCm3BttL_ZORhHiEvPIA6M7mc27_O2Wk2A8ELPcAJdiux_FgPCqIRUR9Jr9J-zPtibN4A0qre78GJLGNYkUBFit-aJpi81SD83LX32daXjqvcjXpFr73K5PjeQyjd431LmZfOgt9ZQtWGLdQmSX8qKlI-i8lU9gQrv8T7TIB5-3XJ8cUJ_1WwkB6brcOmaQ7hUsUtuMYTOXNg6flyiSGQ1xFelMPneAQK0wmNE90ycAHMhAR23mjhqaPtR3YWd9r7r6YM0BrpiRS1m6ibEEH_PHIUKeOKwE850t9dAtw60iP3j5MS7DPWt5hkUVLJEUlOWn9N-DB314gMrWpqNy390zFaMie2nN5oSlHAf09LBW33pVhEs-nUvxlPvuCSvV71adUb-kREzQMF9dbarzS-Yjels2pMO_TUmN]--></g></svg>