<svg xmlns="http://www.w3.org/2000/svg" xmlns:xlink="http://www.w3.org/1999/xlink" contentStyleType="text/css" height="1250px" preserveAspectRatio="none" style="width:850px;height:1250px;background:#FFFFFF;" version="1.1" viewBox="0 0 850 1250" width="850px" zoomAndPan="magnify"><title>Diagrama de Sequ&#234;ncia - Regras por Tipo de Im&#243;vel</title><defs/><g><text fill="#000000" font-family="sans-serif" font-size="14" font-weight="bold" lengthAdjust="spacing" textLength="346.2061" x="253.345" y="29.5332">Diagrama de Sequ&#234;ncia - Regras por Tipo de Im&#243;vel</text><rect fill="none" height="892.1094" style="stroke:#000000;stroke-width:1.5;" width="569.8408" x="274.0552" y="198.9219"/><rect fill="none" height="61.7031" style="stroke:#000000;stroke-width:1.5;" width="142.0479" x="426.3838" y="297.9766"/><rect fill="none" height="61.7031" style="stroke:#000000;stroke-width:1.5;" width="138.3901" x="426.3838" y="373.6797"/><rect fill="none" height="61.7031" style="stroke:#000000;stroke-width:1.5;" width="200.1577" x="426.3838" y="449.3828"/><rect fill="none" height="61.7031" style="stroke:#000000;stroke-width:1.5;" width="142.0479" x="558.0669" y="644.9766"/><rect fill="none" height="61.7031" style="stroke:#000000;stroke-width:1.5;" width="138.3901" x="558.0669" y="720.6797"/><rect fill="none" height="137.4063" style="stroke:#000000;stroke-width:1.5;" width="214.1406" x="619.7554" y="916.2734"/><rect fill="none" height="61.7031" style="stroke:#000000;stroke-width:1.5;" width="194.1406" x="629.7554" y="984.9766"/><line style="stroke:#181818;stroke-width:0.5;stroke-dasharray:5.0,5.0;" x1="32" x2="32" y1="121.2188" y2="1168.7344"/><line style="stroke:#181818;stroke-width:0.5;stroke-dasharray:5.0,5.0;" x1="139.3179" x2="139.3179" y1="121.2188" y2="1168.7344"/><line style="stroke:#181818;stroke-width:0.5;stroke-dasharray:5.0,5.0;" x1="333.0552" x2="333.0552" y1="121.2188" y2="1168.7344"/><line style="stroke:#181818;stroke-width:0.5;stroke-dasharray:5.0,5.0;" x1="483.3838" x2="483.3838" y1="121.2188" y2="1168.7344"/><line style="stroke:#181818;stroke-width:0.5;stroke-dasharray:5.0,5.0;" x1="591.0669" x2="591.0669" y1="121.2188" y2="1168.7344"/><line style="stroke:#181818;stroke-width:0.5;stroke-dasharray:5.0,5.0;" x1="669.7554" x2="669.7554" y1="121.2188" y2="1168.7344"/><text fill="#000000" font-family="sans-serif" font-size="14" lengthAdjust="spacing" textLength="48.2412" x="5" y="118.1426">Usu&#225;rio</text><ellipse cx="32.1206" cy="52.1094" fill="#E2E2F0" rx="8" ry="8" style="stroke:#181818;stroke-width:0.5;"/><path d="M32.1206,60.1094 L32.1206,87.1094 M19.1206,68.1094 L45.1206,68.1094 M32.1206,87.1094 L19.1206,102.1094 M32.1206,87.1094 L45.1206,102.1094 " fill="none" style="stroke:#181818;stroke-width:0.5;"/><text fill="#000000" font-family="sans-serif" font-size="14" lengthAdjust="spacing" textLength="48.2412" x="5" y="1182.2676">Usu&#225;rio</text><ellipse cx="32.1206" cy="1193.8438" fill="#E2E2F0" rx="8" ry="8" style="stroke:#181818;stroke-width:0.5;"/><path d="M32.1206,1201.8438 L32.1206,1228.8438 M19.1206,1209.8438 L45.1206,1209.8438 M32.1206,1228.8438 L19.1206,1243.8438 M32.1206,1228.8438 L45.1206,1243.8438 " fill="none" style="stroke:#181818;stroke-width:0.5;"/><text fill="#000000" font-family="sans-serif" font-size="14" lengthAdjust="spacing" textLength="55.2344" x="109.3179" y="118.1426">Streamlit</text><path d="M119.4351,75.6094 L119.4351,99.6094 M119.4351,87.6094 L136.4351,87.6094 " fill="none" style="stroke:#181818;stroke-width:0.5;"/><ellipse cx="148.4351" cy="87.6094" fill="#E2E2F0" rx="12" ry="12" style="stroke:#181818;stroke-width:0.5;"/><text fill="#000000" font-family="sans-serif" font-size="14" lengthAdjust="spacing" textLength="55.2344" x="109.3179" y="1182.2676">Streamlit</text><path d="M119.4351,1189.3438 L119.4351,1213.3438 M119.4351,1201.3438 L136.4351,1201.3438 " fill="none" style="stroke:#181818;stroke-width:0.5;"/><ellipse cx="148.4351" cy="1201.3438" fill="#E2E2F0" rx="12" ry="12" style="stroke:#181818;stroke-width:0.5;"/><text fill="#000000" font-family="sans-serif" font-size="14" lengthAdjust="spacing" textLength="93.3721" x="284.0552" y="118.1426">CalculoService</text><ellipse cx="333.7412" cy="87.6094" fill="#E2E2F0" rx="12" ry="12" style="stroke:#181818;stroke-width:0.5;"/><polygon fill="#181818" points="329.7412,75.6094,335.7412,70.6094,333.7412,75.6094,335.7412,80.6094,329.7412,75.6094" style="stroke:#181818;stroke-width:1;"/><text fill="#000000" font-family="sans-serif" font-size="14" lengthAdjust="spacing" textLength="93.3721" x="284.0552" y="1182.2676">CalculoService</text><ellipse cx="333.7412" cy="1201.3438" fill="#E2E2F0" rx="12" ry="12" style="stroke:#181818;stroke-width:0.5;"/><polygon fill="#181818" points="329.7412,1189.3438,335.7412,1184.3438,333.7412,1189.3438,335.7412,1194.3438,329.7412,1189.3438" style="stroke:#181818;stroke-width:1;"/><rect fill="#E2E2F0" height="31.6094" rx="2.5" ry="2.5" style="stroke:#181818;stroke-width:0.5;" width="94.1582" x="436.3838" y="88.6094"/><text fill="#000000" font-family="sans-serif" font-size="14" lengthAdjust="spacing" textLength="80.1582" x="443.3838" y="110.1426">Apartamento</text><rect fill="#E2E2F0" height="31.6094" rx="2.5" ry="2.5" style="stroke:#181818;stroke-width:0.5;" width="94.1582" x="436.3838" y="1167.7344"/><text fill="#000000" font-family="sans-serif" font-size="14" lengthAdjust="spacing" textLength="80.1582" x="443.3838" y="1189.2676">Apartamento</text><rect fill="#E2E2F0" height="31.6094" rx="2.5" ry="2.5" style="stroke:#181818;stroke-width:0.5;" width="46.6826" x="568.0669" y="88.6094"/><text fill="#000000" font-family="sans-serif" font-size="14" lengthAdjust="spacing" textLength="32.6826" x="575.0669" y="110.1426">Casa</text><rect fill="#E2E2F0" height="31.6094" rx="2.5" ry="2.5" style="stroke:#181818;stroke-width:0.5;" width="46.6826" x="568.0669" y="1167.7344"/><text fill="#000000" font-family="sans-serif" font-size="14" lengthAdjust="spacing" textLength="32.6826" x="575.0669" y="1189.2676">Casa</text><rect fill="#E2E2F0" height="31.6094" rx="2.5" ry="2.5" style="stroke:#181818;stroke-width:0.5;" width="60.6963" x="639.7554" y="88.6094"/><text fill="#000000" font-family="sans-serif" font-size="14" lengthAdjust="spacing" textLength="46.6963" x="646.7554" y="110.1426">Estudio</text><rect fill="#E2E2F0" height="31.6094" rx="2.5" ry="2.5" style="stroke:#181818;stroke-width:0.5;" width="60.6963" x="639.7554" y="1167.7344"/><text fill="#000000" font-family="sans-serif" font-size="14" lengthAdjust="spacing" textLength="46.6963" x="646.7554" y="1189.2676">Estudio</text><polygon fill="#181818" points="127.9351,149.5703,137.9351,153.5703,127.9351,157.5703,131.9351,153.5703" style="stroke:#181818;stroke-width:1;"/><line style="stroke:#181818;stroke-width:1;" x1="32.1206" x2="133.9351" y1="153.5703" y2="153.5703"/><text fill="#000000" font-family="sans-serif" font-size="13" lengthAdjust="spacing" textLength="83.8145" x="39.1206" y="148.7139">solicita c&#225;lculo</text><polygon fill="#181818" points="321.7412,179.9219,331.7412,183.9219,321.7412,187.9219,325.7412,183.9219" style="stroke:#181818;stroke-width:1;"/><line style="stroke:#181818;stroke-width:1;" x1="139.9351" x2="327.7412" y1="183.9219" y2="183.9219"/><text fill="#000000" font-family="sans-serif" font-size="13" lengthAdjust="spacing" textLength="169.8062" x="146.9351" y="179.0654">processar_orcamento(dados)</text><path d="M274.0552,198.9219 L334.2261,198.9219 L334.2261,207.2734 L324.2261,217.2734 L274.0552,217.2734 L274.0552,198.9219 " fill="#EEEEEE" style="stroke:#000000;stroke-width:1.5;"/><rect fill="none" height="892.1094" style="stroke:#000000;stroke-width:1.5;" width="569.8408" x="274.0552" y="198.9219"/><text fill="#000000" font-family="sans-serif" font-size="13" font-weight="bold" lengthAdjust="spacing" textLength="15.1709" x="289.0552" y="213.417">alt</text><text fill="#000000" font-family="sans-serif" font-size="11" font-weight="bold" lengthAdjust="spacing" textLength="75.1685" x="349.2261" y="212.3408">[Apartamento]</text><polygon fill="#181818" points="471.4629,235.625,481.4629,239.625,471.4629,243.625,475.4629,239.625" style="stroke:#181818;stroke-width:1;"/><line style="stroke:#181818;stroke-width:1;" x1="333.7412" x2="477.4629" y1="239.625" y2="239.625"/><text fill="#000000" font-family="sans-serif" font-size="13" lengthAdjust="spacing" textLength="125.7217" x="340.7412" y="234.7686">calcular_itens(cliente)</text><line style="stroke:#181818;stroke-width:1;" x1="483.4629" x2="525.4629" y1="269.9766" y2="269.9766"/><line style="stroke:#181818;stroke-width:1;" x1="525.4629" x2="525.4629" y1="269.9766" y2="282.9766"/><line style="stroke:#181818;stroke-width:1;" x1="484.4629" x2="525.4629" y1="282.9766" y2="282.9766"/><polygon fill="#181818" points="494.4629,278.9766,484.4629,282.9766,494.4629,286.9766,490.4629,282.9766" style="stroke:#181818;stroke-width:1;"/><text fill="#000000" font-family="sans-serif" font-size="13" lengthAdjust="spacing" textLength="64.6953" x="490.4629" y="265.1201">base = 700</text><path d="M426.3838,297.9766 L491.5947,297.9766 L491.5947,306.3281 L481.5947,316.3281 L426.3838,316.3281 L426.3838,297.9766 " fill="#EEEEEE" style="stroke:#000000;stroke-width:1.5;"/><rect fill="none" height="61.7031" style="stroke:#000000;stroke-width:1.5;" width="142.0479" x="426.3838" y="297.9766"/><text fill="#000000" font-family="sans-serif" font-size="13" font-weight="bold" lengthAdjust="spacing" textLength="20.2109" x="441.3838" y="312.4717">opt</text><text fill="#000000" font-family="sans-serif" font-size="11" font-weight="bold" lengthAdjust="spacing" textLength="56.8369" x="506.5947" y="311.3955">[2 quartos]</text><line style="stroke:#181818;stroke-width:1;" x1="483.4629" x2="525.4629" y1="338.6797" y2="338.6797"/><line style="stroke:#181818;stroke-width:1;" x1="525.4629" x2="525.4629" y1="338.6797" y2="351.6797"/><line style="stroke:#181818;stroke-width:1;" x1="484.4629" x2="525.4629" y1="351.6797" y2="351.6797"/><polygon fill="#181818" points="494.4629,347.6797,484.4629,351.6797,494.4629,355.6797,490.4629,351.6797" style="stroke:#181818;stroke-width:1;"/><text fill="#000000" font-family="sans-serif" font-size="13" lengthAdjust="spacing" textLength="32.8936" x="490.4629" y="333.8232">+ 200</text><path d="M426.3838,373.6797 L491.5947,373.6797 L491.5947,382.0313 L481.5947,392.0313 L426.3838,392.0313 L426.3838,373.6797 " fill="#EEEEEE" style="stroke:#000000;stroke-width:1.5;"/><rect fill="none" height="61.7031" style="stroke:#000000;stroke-width:1.5;" width="138.3901" x="426.3838" y="373.6797"/><text fill="#000000" font-family="sans-serif" font-size="13" font-weight="bold" lengthAdjust="spacing" textLength="20.2109" x="441.3838" y="388.1748">opt</text><text fill="#000000" font-family="sans-serif" font-size="11" font-weight="bold" lengthAdjust="spacing" textLength="53.1792" x="506.5947" y="387.0986">[garagem]</text><line style="stroke:#181818;stroke-width:1;" x1="483.4629" x2="525.4629" y1="414.3828" y2="414.3828"/><line style="stroke:#181818;stroke-width:1;" x1="525.4629" x2="525.4629" y1="414.3828" y2="427.3828"/><line style="stroke:#181818;stroke-width:1;" x1="484.4629" x2="525.4629" y1="427.3828" y2="427.3828"/><polygon fill="#181818" points="494.4629,423.3828,484.4629,427.3828,494.4629,431.3828,490.4629,427.3828" style="stroke:#181818;stroke-width:1;"/><text fill="#000000" font-family="sans-serif" font-size="13" lengthAdjust="spacing" textLength="32.8936" x="490.4629" y="409.5264">+ 300</text><path d="M426.3838,449.3828 L491.5947,449.3828 L491.5947,457.7344 L481.5947,467.7344 L426.3838,467.7344 L426.3838,449.3828 " fill="#EEEEEE" style="stroke:#000000;stroke-width:1.5;"/><rect fill="none" height="61.7031" style="stroke:#000000;stroke-width:1.5;" width="200.1577" x="426.3838" y="449.3828"/><text fill="#000000" font-family="sans-serif" font-size="13" font-weight="bold" lengthAdjust="spacing" textLength="20.2109" x="441.3838" y="463.8779">opt</text><text fill="#000000" font-family="sans-serif" font-size="11" font-weight="bold" lengthAdjust="spacing" textLength="114.9468" x="506.5947" y="462.8018">[cliente sem crian&#231;as]</text><line style="stroke:#181818;stroke-width:1;" x1="483.4629" x2="525.4629" y1="490.0859" y2="490.0859"/><line style="stroke:#181818;stroke-width:1;" x1="525.4629" x2="525.4629" y1="490.0859" y2="503.0859"/><line style="stroke:#181818;stroke-width:1;" x1="484.4629" x2="525.4629" y1="503.0859" y2="503.0859"/><polygon fill="#181818" points="494.4629,499.0859,484.4629,503.0859,494.4629,507.0859,490.4629,503.0859" style="stroke:#181818;stroke-width:1;"/><text fill="#000000" font-family="sans-serif" font-size="13" lengthAdjust="spacing" textLength="93.9453" x="490.4629" y="485.2295">- 5% do subtotal</text><polygon fill="#181818" points="344.7412,536.4375,334.7412,540.4375,344.7412,544.4375,340.7412,540.4375" style="stroke:#181818;stroke-width:1;"/><line style="stroke:#181818;stroke-width:1;stroke-dasharray:2.0,2.0;" x1="338.7412" x2="482.4629" y1="540.4375" y2="540.4375"/><text fill="#000000" font-family="sans-serif" font-size="13" lengthAdjust="spacing" textLength="83.8398" x="350.7412" y="535.5811">itens e aluguel</text><line style="stroke:#000000;stroke-width:1;stroke-dasharray:2.0,2.0;" x1="274.0552" x2="843.896" y1="549.4375" y2="549.4375"/><text fill="#000000" font-family="sans-serif" font-size="11" font-weight="bold" lengthAdjust="spacing" textLength="33.623" x="279.0552" y="560.8564">[Casa]</text><polygon fill="#181818" points="579.4082,582.625,589.4082,586.625,579.4082,590.625,583.4082,586.625" style="stroke:#181818;stroke-width:1;"/><line style="stroke:#181818;stroke-width:1;" x1="333.7412" x2="585.4082" y1="586.625" y2="586.625"/><text fill="#000000" font-family="sans-serif" font-size="13" lengthAdjust="spacing" textLength="125.7217" x="340.7412" y="581.7686">calcular_itens(cliente)</text><line style="stroke:#181818;stroke-width:1;" x1="591.4082" x2="633.4082" y1="616.9766" y2="616.9766"/><line style="stroke:#181818;stroke-width:1;" x1="633.4082" x2="633.4082" y1="616.9766" y2="629.9766"/><line style="stroke:#181818;stroke-width:1;" x1="592.4082" x2="633.4082" y1="629.9766" y2="629.9766"/><polygon fill="#181818" points="602.4082,625.9766,592.4082,629.9766,602.4082,633.9766,598.4082,629.9766" style="stroke:#181818;stroke-width:1;"/><text fill="#000000" font-family="sans-serif" font-size="13" lengthAdjust="spacing" textLength="64.6953" x="598.4082" y="612.1201">base = 900</text><path d="M558.0669,644.9766 L623.2778,644.9766 L623.2778,653.3281 L613.2778,663.3281 L558.0669,663.3281 L558.0669,644.9766 " fill="#EEEEEE" style="stroke:#000000;stroke-width:1.5;"/><rect fill="none" height="61.7031" style="stroke:#000000;stroke-width:1.5;" width="142.0479" x="558.0669" y="644.9766"/><text fill="#000000" font-family="sans-serif" font-size="13" font-weight="bold" lengthAdjust="spacing" textLength="20.2109" x="573.0669" y="659.4717">opt</text><text fill="#000000" font-family="sans-serif" font-size="11" font-weight="bold" lengthAdjust="spacing" textLength="56.8369" x="638.2778" y="658.3955">[2 quartos]</text><line style="stroke:#181818;stroke-width:1;" x1="591.4082" x2="633.4082" y1="685.6797" y2="685.6797"/><line style="stroke:#181818;stroke-width:1;" x1="633.4082" x2="633.4082" y1="685.6797" y2="698.6797"/><line style="stroke:#181818;stroke-width:1;" x1="592.4082" x2="633.4082" y1="698.6797" y2="698.6797"/><polygon fill="#181818" points="602.4082,694.6797,592.4082,698.6797,602.4082,702.6797,598.4082,698.6797" style="stroke:#181818;stroke-width:1;"/><text fill="#000000" font-family="sans-serif" font-size="13" lengthAdjust="spacing" textLength="32.8936" x="598.4082" y="680.8232">+ 250</text><path d="M558.0669,720.6797 L623.2778,720.6797 L623.2778,729.0313 L613.2778,739.0313 L558.0669,739.0313 L558.0669,720.6797 " fill="#EEEEEE" style="stroke:#000000;stroke-width:1.5;"/><rect fill="none" height="61.7031" style="stroke:#000000;stroke-width:1.5;" width="138.3901" x="558.0669" y="720.6797"/><text fill="#000000" font-family="sans-serif" font-size="13" font-weight="bold" lengthAdjust="spacing" textLength="20.2109" x="573.0669" y="735.1748">opt</text><text fill="#000000" font-family="sans-serif" font-size="11" font-weight="bold" lengthAdjust="spacing" textLength="53.1792" x="638.2778" y="734.0986">[garagem]</text><line style="stroke:#181818;stroke-width:1;" x1="591.4082" x2="633.4082" y1="761.3828" y2="761.3828"/><line style="stroke:#181818;stroke-width:1;" x1="633.4082" x2="633.4082" y1="761.3828" y2="774.3828"/><line style="stroke:#181818;stroke-width:1;" x1="592.4082" x2="633.4082" y1="774.3828" y2="774.3828"/><polygon fill="#181818" points="602.4082,770.3828,592.4082,774.3828,602.4082,778.3828,598.4082,774.3828" style="stroke:#181818;stroke-width:1;"/><text fill="#000000" font-family="sans-serif" font-size="13" lengthAdjust="spacing" textLength="32.8936" x="598.4082" y="756.5264">+ 300</text><polygon fill="#181818" points="344.7412,807.7344,334.7412,811.7344,344.7412,815.7344,340.7412,811.7344" style="stroke:#181818;stroke-width:1;"/><line style="stroke:#181818;stroke-width:1;stroke-dasharray:2.0,2.0;" x1="338.7412" x2="590.4082" y1="811.7344" y2="811.7344"/><text fill="#000000" font-family="sans-serif" font-size="13" lengthAdjust="spacing" textLength="83.8398" x="350.7412" y="806.8779">itens e aluguel</text><line style="stroke:#000000;stroke-width:1;stroke-dasharray:2.0,2.0;" x1="274.0552" x2="843.896" y1="820.7344" y2="820.7344"/><text fill="#000000" font-family="sans-serif" font-size="11" font-weight="bold" lengthAdjust="spacing" textLength="47.6577" x="279.0552" y="832.1533">[Est&#250;dio]</text><polygon fill="#181818" points="658.1035,853.9219,668.1035,857.9219,658.1035,861.9219,662.1035,857.9219" style="stroke:#181818;stroke-width:1;"/><line style="stroke:#181818;stroke-width:1;" x1="333.7412" x2="664.1035" y1="857.9219" y2="857.9219"/><text fill="#000000" font-family="sans-serif" font-size="13" lengthAdjust="spacing" textLength="125.7217" x="340.7412" y="853.0654">calcular_itens(cliente)</text><line style="stroke:#181818;stroke-width:1;" x1="670.1035" x2="712.1035" y1="888.2734" y2="888.2734"/><line style="stroke:#181818;stroke-width:1;" x1="712.1035" x2="712.1035" y1="888.2734" y2="901.2734"/><line style="stroke:#181818;stroke-width:1;" x1="671.1035" x2="712.1035" y1="901.2734" y2="901.2734"/><polygon fill="#181818" points="681.1035,897.2734,671.1035,901.2734,681.1035,905.2734,677.1035,901.2734" style="stroke:#181818;stroke-width:1;"/><text fill="#000000" font-family="sans-serif" font-size="13" lengthAdjust="spacing" textLength="71.9253" x="677.1035" y="883.417">base = 1200</text><path d="M619.7554,916.2734 L684.9663,916.2734 L684.9663,924.625 L674.9663,934.625 L619.7554,934.625 L619.7554,916.2734 " fill="#EEEEEE" style="stroke:#000000;stroke-width:1.5;"/><rect fill="none" height="137.4063" style="stroke:#000000;stroke-width:1.5;" width="214.1406" x="619.7554" y="916.2734"/><text fill="#000000" font-family="sans-serif" font-size="13" font-weight="bold" lengthAdjust="spacing" textLength="20.2109" x="634.7554" y="930.7686">opt</text><text fill="#000000" font-family="sans-serif" font-size="11" font-weight="bold" lengthAdjust="spacing" textLength="92.313" x="699.9663" y="929.6924">[2 ou mais vagas]</text><line style="stroke:#181818;stroke-width:1;" x1="670.1035" x2="712.1035" y1="956.9766" y2="956.9766"/><line style="stroke:#181818;stroke-width:1;" x1="712.1035" x2="712.1035" y1="956.9766" y2="969.9766"/><line style="stroke:#181818;stroke-width:1;" x1="671.1035" x2="712.1035" y1="969.9766" y2="969.9766"/><polygon fill="#181818" points="681.1035,965.9766,671.1035,969.9766,681.1035,973.9766,677.1035,969.9766" style="stroke:#181818;stroke-width:1;"/><text fill="#000000" font-family="sans-serif" font-size="13" lengthAdjust="spacing" textLength="137.687" x="677.1035" y="952.1201">+ 250 pelas duas vagas</text><path d="M629.7554,984.9766 L694.9663,984.9766 L694.9663,993.3281 L684.9663,1003.3281 L629.7554,1003.3281 L629.7554,984.9766 " fill="#EEEEEE" style="stroke:#000000;stroke-width:1.5;"/><rect fill="none" height="61.7031" style="stroke:#000000;stroke-width:1.5;" width="194.1406" x="629.7554" y="984.9766"/><text fill="#000000" font-family="sans-serif" font-size="13" font-weight="bold" lengthAdjust="spacing" textLength="20.2109" x="644.7554" y="999.4717">opt</text><text fill="#000000" font-family="sans-serif" font-size="11" font-weight="bold" lengthAdjust="spacing" textLength="95.3691" x="709.9663" y="998.3955">[vagas adicionais]</text><line style="stroke:#181818;stroke-width:1;" x1="670.1035" x2="712.1035" y1="1025.6797" y2="1025.6797"/><line style="stroke:#181818;stroke-width:1;" x1="712.1035" x2="712.1035" y1="1025.6797" y2="1038.6797"/><line style="stroke:#181818;stroke-width:1;" x1="671.1035" x2="712.1035" y1="1038.6797" y2="1038.6797"/><polygon fill="#181818" points="681.1035,1034.6797,671.1035,1038.6797,681.1035,1042.6797,677.1035,1038.6797" style="stroke:#181818;stroke-width:1;"/><text fill="#000000" font-family="sans-serif" font-size="13" lengthAdjust="spacing" textLength="134.7925" x="677.1035" y="1020.8232">+ 60 por vaga adicional</text><polygon fill="#181818" points="344.7412,1079.0313,334.7412,1083.0313,344.7412,1087.0313,340.7412,1083.0313" style="stroke:#181818;stroke-width:1;"/><line style="stroke:#181818;stroke-width:1;stroke-dasharray:2.0,2.0;" x1="338.7412" x2="669.1035" y1="1083.0313" y2="1083.0313"/><text fill="#000000" font-family="sans-serif" font-size="13" lengthAdjust="spacing" textLength="83.8398" x="350.7412" y="1078.1748">itens e aluguel</text><polygon fill="#181818" points="150.9351,1116.3828,140.9351,1120.3828,150.9351,1124.3828,146.9351,1120.3828" style="stroke:#181818;stroke-width:1;"/><line style="stroke:#181818;stroke-width:1;stroke-dasharray:2.0,2.0;" x1="144.9351" x2="332.7412" y1="1120.3828" y2="1120.3828"/><text fill="#000000" font-family="sans-serif" font-size="13" lengthAdjust="spacing" textLength="119.958" x="156.9351" y="1115.5264">or&#231;amento calculado</text><polygon fill="#181818" points="43.1206,1146.7344,33.1206,1150.7344,43.1206,1154.7344,39.1206,1150.7344" style="stroke:#181818;stroke-width:1;"/><line style="stroke:#181818;stroke-width:1;stroke-dasharray:2.0,2.0;" x1="37.1206" x2="138.9351" y1="1150.7344" y2="1150.7344"/><text fill="#000000" font-family="sans-serif" font-size="13" lengthAdjust="spacing" textLength="53.479" x="49.1206" y="1145.8779">resultado</text><!--SRC=[ZLDDZzGm3BttL_Y2j2iqqZ1eGOoqI6ZXm9K1hiYJM5MaDExcOn0_Pqz8NBbnxH_3IJFTTc5czr8rVk_PyOiTJRG4xmss7Zi4JR2ZspJySieWhE0JIJn0pnu-cvup_h4RVX_8DgYYHB-4DDnvmysUazFeVy0kUiBEcWWY_6heUwFOHSyMRj2gP7b7_c0KPRZ-DZtwQ9JfqKLubm_OaOkyYDzWm4NWGuX9I-NcU0TOlIq5jn3O2YiYgE6kr6noFEEruXPwpuf2GF-DlHhBNMZK72uRjCjRm56L4yo0BQZIaUGmaLouKDP8d2v5CQFzezfZ8BY6r-kr4BcFi87R93W7EP-NFeTDKP7JLTkYnvQw9oXVFb3MsqAW3fGtw8QV-FWDLd3r33H3IFl84UsKSY6QErsy0NblczeaWqDMsY-lkJ0sHyuvcl5xNlNmpGaFbsHnxUgqQm-vSvz6xD5kP1I7FtaM5ntL0JtNLAKisBMr5vjPRvoWGnFWW6rze_yfIv_GavNLqWddz9ocd02rh0OxoLQ0KvbUhSlMPyqaiKKnEZD-9-rPYuGwsJBjA7kPjt5SgZ_wkAR2EUxq5Zo5PAE0Vm40]--></g></svg>