<svg xmlns="http://www.w3.org/2000/svg" xmlns:xlink="http://www.w3.org/1999/xlink" contentStyleType="text/css" height="773px" preserveAspectRatio="none" style="width:937px;height:773px;background:#FFFFFF;" version="1.1" viewBox="0 0 937 773" width="937px" zoomAndPan="magnify"><title>Diagrama de Sequ&#234;ncia - Gera&#231;&#227;o e Persist&#234;ncia do Or&#231;amento</title><defs/><g><text fill="#000000" font-family="sans-serif" font-size="14" font-weight="bold" lengthAdjust="spacing" textLength="423.2813" x="264.0642" y="29.5332">Diagrama de Sequ&#234;ncia - Gera&#231;&#227;o e Persist&#234;ncia do Or&#231;amento</text><rect fill="#FFFFFF" height="247.1094" style="stroke:#181818;stroke-width:1;" width="10" x="718.3335" y="396.3828"/><line style="stroke:#181818;stroke-width:0.5;stroke-dasharray:5.0,5.0;" x1="32" x2="32" y1="121.2188" y2="691.8438"/><line style="stroke:#181818;stroke-width:0.5;stroke-dasharray:5.0,5.0;" x1="235.6802" x2="235.6802" y1="121.2188" y2="691.8438"/><line style="stroke:#181818;stroke-width:0.5;stroke-dasharray:5.0,5.0;" x1="429.1587" x2="429.1587" y1="121.2188" y2="691.8438"/><line style="stroke:#181818;stroke-width:0.5;stroke-dasharray:5.0,5.0;" x1="662.8027" x2="662.8027" y1="121.2188" y2="691.8438"/><line style="stroke:#181818;stroke-width:0.5;stroke-dasharray:5.0,5.0;" x1="722.9336" x2="722.9336" y1="121.2188" y2="691.8438"/><text fill="#000000" font-family="sans-serif" font-size="14" lengthAdjust="spacing" textLength="48.2412" x="5" y="118.1426">Usu&#225;rio</text><ellipse cx="32.1206" cy="52.1094" fill="#E2E2F0" rx="8" ry="8" style="stroke:#181818;stroke-width:0.5;"/><path d="M32.1206,60.1094 L32.1206,87.1094 M19.1206,68.1094 L45.1206,68.1094 M32.1206,87.1094 L19.1206,102.1094 M32.1206,87.1094 L45.1206,102.1094 " fill="none" style="stroke:#181818;stroke-width:0.5;"/><text fill="#000000" font-family="sans-serif" font-size="14" lengthAdjust="spacing" textLength="48.2412" x="5" y="705.377">Usu&#225;rio</text><ellipse cx="32.1206" cy="716.9531" fill="#E2E2F0" rx="8" ry="8" style="stroke:#181818;stroke-width:0.5;"/><path d="M32.1206,724.9531 L32.1206,751.9531 M19.1206,732.9531 L45.1206,732.9531 M32.1206,751.9531 L19.1206,766.9531 M32.1206,751.9531 L45.1206,766.9531 " fill="none" style="stroke:#181818;stroke-width:0.5;"/><text fill="#000000" font-family="sans-serif" font-size="14" lengthAdjust="spacing" textLength="102.7168" x="181.6802" y="118.1426">P&#225;gina Streamlit</text><path d="M215.5386,75.6094 L215.5386,99.6094 M215.5386,87.6094 L232.5386,87.6094 " fill="none" style="stroke:#181818;stroke-width:0.5;"/><ellipse cx="244.5386" cy="87.6094" fill="#E2E2F0" rx="12" ry="12" style="stroke:#181818;stroke-width:0.5;"/><text fill="#000000" font-family="sans-serif" font-size="14" lengthAdjust="spacing" textLength="102.7168" x="181.6802" y="705.377">P&#225;gina Streamlit</text><path d="M215.5386,712.4531 L215.5386,736.4531 M215.5386,724.4531 L232.5386,724.4531 " fill="none" style="stroke:#181818;stroke-width:0.5;"/><ellipse cx="244.5386" cy="724.4531" fill="#E2E2F0" rx="12" ry="12" style="stroke:#181818;stroke-width:0.5;"/><text fill="#000000" font-family="sans-serif" font-size="14" lengthAdjust="spacing" textLength="93.3721" x="380.1587" y="118.1426">CalculoService</text><ellipse cx="429.8447" cy="87.6094" fill="#E2E2F0" rx="12" ry="12" style="stroke:#181818;stroke-width:0.5;"/><polygon fill="#181818" points="425.8447,75.6094,431.8447,70.6094,429.8447,75.6094,431.8447,80.6094,425.8447,75.6094" style="stroke:#181818;stroke-width:1;"/><text fill="#000000" font-family="sans-serif" font-size="14" lengthAdjust="spacing" textLength="93.3721" x="380.1587" y="705.377">CalculoService</text><ellipse cx="429.8447" cy="724.4531" fill="#E2E2F0" rx="12" ry="12" style="stroke:#181818;stroke-width:0.5;"/><polygon fill="#181818" points="425.8447,712.4531,431.8447,707.4531,429.8447,712.4531,431.8447,717.4531,425.8447,712.4531" style="stroke:#181818;stroke-width:1;"/><text fill="#000000" font-family="sans-serif" font-size="14" lengthAdjust="spacing" textLength="45.1309" x="637.8027" y="118.1426">Models</text><ellipse cx="663.3682" cy="87.6094" fill="#E2E2F0" rx="12" ry="12" style="stroke:#181818;stroke-width:0.5;"/><line style="stroke:#181818;stroke-width:0.5;" x1="651.3682" x2="675.3682" y1="101.6094" y2="101.6094"/><text fill="#000000" font-family="sans-serif" font-size="14" lengthAdjust="spacing" textLength="45.1309" x="637.8027" y="705.377">Models</text><ellipse cx="663.3682" cy="724.4531" fill="#E2E2F0" rx="12" ry="12" style="stroke:#181818;stroke-width:0.5;"/><line style="stroke:#181818;stroke-width:0.5;" x1="651.3682" x2="675.3682" y1="738.4531" y2="738.4531"/><text fill="#000000" font-family="sans-serif" font-size="14" lengthAdjust="spacing" textLength="42.7998" x="698.9336" y="118.1426">SQLite</text><path d="M705.3335,67.6094 C705.3335,57.6094 723.3335,57.6094 723.3335,57.6094 C723.3335,57.6094 741.3335,57.6094 741.3335,67.6094 L741.3335,93.6094 C741.3335,103.6094 723.3335,103.6094 723.3335,103.6094 C723.3335,103.6094 705.3335,103.6094 705.3335,93.6094 L705.3335,67.6094 " fill="#E2E2F0" style="stroke:#181818;stroke-width:1.5;"/><path d="M705.3335,67.6094 C705.3335,77.6094 723.3335,77.6094 723.3335,77.6094 C723.3335,77.6094 741.3335,77.6094 741.3335,67.6094 " fill="none" style="stroke:#181818;stroke-width:1.5;"/><text fill="#000000" font-family="sans-serif" font-size="14" lengthAdjust="spacing" textLength="42.7998" x="698.9336" y="705.377">SQLite</text><path d="M705.3335,718.4531 C705.3335,708.4531 723.3335,708.4531 723.3335,708.4531 C723.3335,708.4531 741.3335,708.4531 741.3335,718.4531 L741.3335,744.4531 C741.3335,754.4531 723.3335,754.4531 723.3335,754.4531 C723.3335,754.4531 705.3335,754.4531 705.3335,744.4531 L705.3335,718.4531 " fill="#E2E2F0" style="stroke:#181818;stroke-width:1.5;"/><path d="M705.3335,718.4531 C705.3335,728.4531 723.3335,728.4531 723.3335,728.4531 C723.3335,728.4531 741.3335,728.4531 741.3335,718.4531 " fill="none" style="stroke:#181818;stroke-width:1.5;"/><rect fill="#FFFFFF" height="247.1094" style="stroke:#181818;stroke-width:1;" width="10" x="718.3335" y="396.3828"/><polygon fill="#181818" points="224.0386,149.5703,234.0386,153.5703,224.0386,157.5703,228.0386,153.5703" style="stroke:#181818;stroke-width:1;"/><line style="stroke:#181818;stroke-width:1;" x1="32.1206" x2="230.0386" y1="153.5703" y2="153.5703"/><text fill="#000000" font-family="sans-serif" font-size="13" lengthAdjust="spacing" textLength="179.918" x="39.1206" y="148.7139">preenche formul&#225;rio e confirma</text><polygon fill="#181818" points="417.8447,179.9219,427.8447,183.9219,417.8447,187.9219,421.8447,183.9219" style="stroke:#181818;stroke-width:1;"/><line style="stroke:#181818;stroke-width:1;" x1="236.0386" x2="423.8447" y1="183.9219" y2="183.9219"/><text fill="#000000" font-family="sans-serif" font-size="13" lengthAdjust="spacing" textLength="169.8062" x="243.0386" y="179.0654">processar_orcamento(dados)</text><polygon fill="#181818" points="651.3682,210.2734,661.3682,214.2734,651.3682,218.2734,655.3682,214.2734" style="stroke:#181818;stroke-width:1;"/><line style="stroke:#181818;stroke-width:1;" x1="429.8447" x2="657.3682" y1="214.2734" y2="214.2734"/><text fill="#000000" font-family="sans-serif" font-size="13" lengthAdjust="spacing" textLength="182.0825" x="436.8447" y="209.417">Cliente(nome, possui_criancas)</text><polygon fill="#181818" points="651.3682,240.625,661.3682,244.625,651.3682,248.625,655.3682,244.625" style="stroke:#181818;stroke-width:1;"/><line style="stroke:#181818;stroke-width:1;" x1="429.8447" x2="657.3682" y1="244.625" y2="244.625"/><text fill="#000000" font-family="sans-serif" font-size="13" lengthAdjust="spacing" textLength="194.3652" x="436.8447" y="239.7686">Imovel espec&#237;fico(quartos, vagas)</text><polygon fill="#181818" points="651.3682,270.9766,661.3682,274.9766,651.3682,278.9766,655.3682,274.9766" style="stroke:#181818;stroke-width:1;"/><line style="stroke:#181818;stroke-width:1;" x1="429.8447" x2="657.3682" y1="274.9766" y2="274.9766"/><text fill="#000000" font-family="sans-serif" font-size="13" lengthAdjust="spacing" textLength="107.6563" x="436.8447" y="270.1201">Contrato(parcelas)</text><polygon fill="#181818" points="651.3682,301.3281,661.3682,305.3281,651.3682,309.3281,655.3682,305.3281" style="stroke:#181818;stroke-width:1;"/><line style="stroke:#181818;stroke-width:1;" x1="429.8447" x2="657.3682" y1="305.3281" y2="305.3281"/><text fill="#000000" font-family="sans-serif" font-size="13" lengthAdjust="spacing" textLength="209.5234" x="436.8447" y="300.4717">Orcamento(cliente, imovel, contrato)</text><polygon fill="#181818" points="440.8447,331.6797,430.8447,335.6797,440.8447,339.6797,436.8447,335.6797" style="stroke:#181818;stroke-width:1;"/><line style="stroke:#181818;stroke-width:1;stroke-dasharray:2.0,2.0;" x1="434.8447" x2="662.3682" y1="335.6797" y2="335.6797"/><text fill="#000000" font-family="sans-serif" font-size="13" lengthAdjust="spacing" textLength="113.458" x="446.8447" y="330.8232">or&#231;amento validado</text><polygon fill="#181818" points="247.0386,362.0313,237.0386,366.0313,247.0386,370.0313,243.0386,366.0313" style="stroke:#181818;stroke-width:1;"/><line style="stroke:#181818;stroke-width:1;stroke-dasharray:2.0,2.0;" x1="241.0386" x2="428.8447" y1="366.0313" y2="366.0313"/><text fill="#000000" font-family="sans-serif" font-size="13" lengthAdjust="spacing" textLength="61.4199" x="253.0386" y="361.1748">or&#231;amento</text><polygon fill="#181818" points="706.3335,392.3828,716.3335,396.3828,706.3335,400.3828,710.3335,396.3828" style="stroke:#181818;stroke-width:1;"/><line style="stroke:#181818;stroke-width:1;" x1="236.0386" x2="712.3335" y1="396.3828" y2="396.3828"/><text fill="#000000" font-family="sans-serif" font-size="13" lengthAdjust="spacing" textLength="173.4053" x="243.0386" y="391.5264">salvar_orcamento(orcamento)</text><line style="stroke:#181818;stroke-width:1;" x1="728.3335" x2="770.3335" y1="426.7344" y2="426.7344"/><line style="stroke:#181818;stroke-width:1;" x1="770.3335" x2="770.3335" y1="426.7344" y2="439.7344"/><line style="stroke:#181818;stroke-width:1;" x1="729.3335" x2="770.3335" y1="439.7344" y2="439.7344"/><polygon fill="#181818" points="739.3335,435.7344,729.3335,439.7344,739.3335,443.7344,735.3335,439.7344" style="stroke:#181818;stroke-width:1;"/><text fill="#000000" font-family="sans-serif" font-size="13" lengthAdjust="spacing" textLength="137.2363" x="735.3335" y="421.8779">BEGIN TRANSACTION</text><line style="stroke:#181818;stroke-width:1;" x1="728.3335" x2="770.3335" y1="470.0859" y2="470.0859"/><line style="stroke:#181818;stroke-width:1;" x1="770.3335" x2="770.3335" y1="470.0859" y2="483.0859"/><line style="stroke:#181818;stroke-width:1;" x1="729.3335" x2="770.3335" y1="483.0859" y2="483.0859"/><polygon fill="#181818" points="739.3335,479.0859,729.3335,483.0859,739.3335,487.0859,735.3335,483.0859" style="stroke:#181818;stroke-width:1;"/><text fill="#000000" font-family="sans-serif" font-size="13" lengthAdjust="spacing" textLength="195.0762" x="735.3335" y="465.2295">INSERT cliente, im&#243;vel e contrato</text><line style="stroke:#181818;stroke-width:1;" x1="728.3335" x2="770.3335" y1="513.4375" y2="513.4375"/><line style="stroke:#181818;stroke-width:1;" x1="770.3335" x2="770.3335" y1="513.4375" y2="526.4375"/><line style="stroke:#181818;stroke-width:1;" x1="729.3335" x2="770.3335" y1="526.4375" y2="526.4375"/><polygon fill="#181818" points="739.3335,522.4375,729.3335,526.4375,739.3335,530.4375,735.3335,526.4375" style="stroke:#181818;stroke-width:1;"/><text fill="#000000" font-family="sans-serif" font-size="13" lengthAdjust="spacing" textLength="112.7026" x="735.3335" y="508.5811">INSERT or&#231;amento</text><line style="stroke:#181818;stroke-width:1;" x1="728.3335" x2="770.3335" y1="556.7891" y2="556.7891"/><line style="stroke:#181818;stroke-width:1;" x1="770.3335" x2="770.3335" y1="556.7891" y2="569.7891"/><line style="stroke:#181818;stroke-width:1;" x1="729.3335" x2="770.3335" y1="569.7891" y2="569.7891"/><polygon fill="#181818" points="739.3335,565.7891,729.3335,569.7891,739.3335,573.7891,735.3335,569.7891" style="stroke:#181818;stroke-width:1;"/><text fill="#000000" font-family="sans-serif" font-size="13" lengthAdjust="spacing" textLength="160.4053" x="735.3335" y="551.9326">INSERT itens e 12 parcelas</text><line style="stroke:#181818;stroke-width:1;" x1="728.3335" x2="770.3335" y1="600.1406" y2="600.1406"/><line style="stroke:#181818;stroke-width:1;" x1="770.3335" x2="770.3335" y1="600.1406" y2="613.1406"/><line style="stroke:#181818;stroke-width:1;" x1="729.3335" x2="770.3335" y1="613.1406" y2="613.1406"/><polygon fill="#181818" points="739.3335,609.1406,729.3335,613.1406,739.3335,617.1406,735.3335,613.1406" style="stroke:#181818;stroke-width:1;"/><text fill="#000000" font-family="sans-serif" font-size="13" lengthAdjust="spacing" textLength="52.7109" x="735.3335" y="595.2842">COMMIT</text><polygon fill="#181818" points="247.0386,639.4922,237.0386,643.4922,247.0386,647.4922,243.0386,643.4922" style="stroke:#181818;stroke-width:1;"/><line style="stroke:#181818;stroke-width:1;stroke-dasharray:2.0,2.0;" x1="241.0386" x2="722.3335" y1="643.4922" y2="643.4922"/><text fill="#000000" font-family="sans-serif" font-size="13" lengthAdjust="spacing" textLength="93.2217" x="253.0386" y="638.6357">id do or&#231;amento</text><polygon fill="#181818" points="43.1206,669.8438,33.1206,673.8438,43.1206,677.8438,39.1206,673.8438" style="stroke:#181818;stroke-width:1;"/><line style="stroke:#181818;stroke-width:1;stroke-dasharray:2.0,2.0;" x1="37.1206" x2="235.0386" y1="673.8438" y2="673.8438"/><text fill="#000000" font-family="sans-serif" font-size="13" lengthAdjust="spacing" textLength="168.3716" x="49.1206" y="668.9873">m&#233;tricas, tabelas e download</text><!--SRC=[TLBDRjim3BxxAOYS4i0vRCSS1ZH9KHXeagxETYrOYKa9o68goIxsECKEnGRij4VmYqssOzT5rviWVkJtGmOEXc3DU7HO86Y2d1xB-hTLZ327At9OlzG_1GXko7dsuLpJ0ZjNls11DaY2AeY3RxwidnrBSY-brUX-mEIcVZwoHSY38omCXmcWX-zCJuaI6vmOMA5HfP6SNCMAclBvcSJH7EAGZMWolktided6WFVe2IRvrsiErDRMooJf9S3yIykoW9CZikg1u22kA4rN9OZi1tO59WsgGPz9cmPHv3swEt6gypVLgCNFabvZX7T25h0o714qjL9G2YVnlkGxvHYjmlztP8LKP83yYLJzvy1AfeybkY0-XGgF7tIjchGmIZcXKsG-GEq6nQhJbGAtT2ceyu1Pqe5XFZOjmowZ1iEDtzVvGvQlg26szN817atr9gxXDMikWoiCr6ndlUmxbfTNsHRsjnVR_6ArptRRKItRvfUtUnWPgF-sWGqMteD7mjxLudbO7xi_VOO-kn5ejTjiidtxCTXatPptQAQciOtEUaJtnxQ0eluL7CUDfn0Fiw68X5gUh17K_m00]--></g></svg>