<svg xmlns="http://www.w3.org/2000/svg" xmlns:xlink="http://www.w3.org/1999/xlink" contentStyleType="text/css" height="648px" preserveAspectRatio="none" style="width:655px;height:648px;background:#FFFFFF;" version="1.1" viewBox="0 0 655 648" width="655px" zoomAndPan="magnify"><title>Diagrama de Sequ&#234;ncia - Exporta&#231;&#227;o CSV</title><defs/><g><text fill="#000000" font-family="sans-serif" font-size="14" font-weight="bold" lengthAdjust="spacing" textLength="279.3164" x="187.0603" y="29.5332">Diagrama de Sequ&#234;ncia - Exporta&#231;&#227;o CSV</text><rect fill="none" height="198.9453" style="stroke:#000000;stroke-width:1.5;" width="466.334" x="123.1724" y="168.5703"/><line style="stroke:#181818;stroke-width:0.5;stroke-dasharray:5.0,5.0;" x1="32" x2="32" y1="121.2188" y2="566.625"/><line style="stroke:#181818;stroke-width:0.5;stroke-dasharray:5.0,5.0;" x1="163.1724" x2="163.1724" y1="121.2188" y2="566.625"/><line style="stroke:#181818;stroke-width:0.5;stroke-dasharray:5.0,5.0;" x1="359.8799" x2="359.8799" y1="121.2188" y2="566.625"/><line style="stroke:#181818;stroke-width:0.5;stroke-dasharray:5.0,5.0;" x1="554.7065" x2="554.7065" y1="121.2188" y2="566.625"/><line style="stroke:#181818;stroke-width:0.5;stroke-dasharray:5.0,5.0;" x1="618.5063" x2="618.5063" y1="121.2188" y2="566.625"/><text fill="#000000" font-family="sans-serif" font-size="14" lengthAdjust="spacing" textLength="48.2412" x="5" y="118.1426">Usu&#225;rio</text><ellipse cx="32.1206" cy="52.1094" fill="#E2E2F0" rx="8" ry="8" style="stroke:#181818;stroke-width:0.5;"/><path d="M32.1206,60.1094 L32.1206,87.1094 M19.1206,68.1094 L45.1206,68.1094 M32.1206,87.1094 L19.1206,102.1094 M32.1206,87.1094 L45.1206,102.1094 " fill="none" style="stroke:#181818;stroke-width:0.5;"/><text fill="#000000" font-family="sans-serif" font-size="14" lengthAdjust="spacing" textLength="48.2412" x="5" y="580.1582">Usu&#225;rio</text><ellipse cx="32.1206" cy="591.7344" fill="#E2E2F0" rx="8" ry="8" style="stroke:#181818;stroke-width:0.5;"/><path d="M32.1206,599.7344 L32.1206,626.7344 M19.1206,607.7344 L45.1206,607.7344 M32.1206,626.7344 L19.1206,641.7344 M32.1206,626.7344 L45.1206,641.7344 " fill="none" style="stroke:#181818;stroke-width:0.5;"/><text fill="#000000" font-family="sans-serif" font-size="14" lengthAdjust="spacing" textLength="55.2344" x="133.1724" y="118.1426">Streamlit</text><path d="M143.2896,75.6094 L143.2896,99.6094 M143.2896,87.6094 L160.2896,87.6094 " fill="none" style="stroke:#181818;stroke-width:0.5;"/><ellipse cx="172.2896" cy="87.6094" fill="#E2E2F0" rx="12" ry="12" style="stroke:#181818;stroke-width:0.5;"/><text fill="#000000" font-family="sans-serif" font-size="14" lengthAdjust="spacing" textLength="55.2344" x="133.1724" y="580.1582">Streamlit</text><path d="M143.2896,587.2344 L143.2896,611.2344 M143.2896,599.2344 L160.2896,599.2344 " fill="none" style="stroke:#181818;stroke-width:0.5;"/><ellipse cx="172.2896" cy="599.2344" fill="#E2E2F0" rx="12" ry="12" style="stroke:#181818;stroke-width:0.5;"/><text fill="#000000" font-family="sans-serif" font-size="14" lengthAdjust="spacing" textLength="87.1445" x="313.8799" y="118.1426">ExportService</text><ellipse cx="360.4521" cy="87.6094" fill="#E2E2F0" rx="12" ry="12" style="stroke:#181818;stroke-width:0.5;"/><polygon fill="#181818" points="356.4521,75.6094,362.4521,70.6094,360.4521,75.6094,362.4521,80.6094,356.4521,75.6094" style="stroke:#181818;stroke-width:1;"/><text fill="#000000" font-family="sans-serif" font-size="14" lengthAdjust="spacing" textLength="87.1445" x="313.8799" y="580.1582">ExportService</text><ellipse cx="360.4521" cy="599.2344" fill="#E2E2F0" rx="12" ry="12" style="stroke:#181818;stroke-width:0.5;"/><polygon fill="#181818" points="356.4521,587.2344,362.4521,582.2344,360.4521,587.2344,362.4521,592.2344,356.4521,587.2344" style="stroke:#181818;stroke-width:1;"/><text fill="#000000" font-family="sans-serif" font-size="14" lengthAdjust="spacing" textLength="42.7998" x="530.7065" y="118.1426">SQLite</text><path d="M537.1064,67.6094 C537.1064,57.6094 555.1064,57.6094 555.1064,57.6094 C555.1064,57.6094 573.1064,57.6094 573.1064,67.6094 L573.1064,93.6094 C573.1064,103.6094 555.1064,103.6094 555.1064,103.6094 C555.1064,103.6094 537.1064,103.6094 537.1064,93.6094 L537.1064,67.6094 " fill="#E2E2F0" style="stroke:#181818;stroke-width:1.5;"/><path d="M537.1064,67.6094 C537.1064,77.6094 555.1064,77.6094 555.1064,77.6094 C555.1064,77.6094 573.1064,77.6094 573.1064,67.6094 " fill="none" style="stroke:#181818;stroke-width:1.5;"/><text fill="#000000" font-family="sans-serif" font-size="14" lengthAdjust="spacing" textLength="42.7998" x="530.7065" y="580.1582">SQLite</text><path d="M537.1064,593.2344 C537.1064,583.2344 555.1064,583.2344 555.1064,583.2344 C555.1064,583.2344 573.1064,583.2344 573.1064,593.2344 L573.1064,619.2344 C573.1064,629.2344 555.1064,629.2344 555.1064,629.2344 C555.1064,629.2344 537.1064,629.2344 537.1064,619.2344 L537.1064,593.2344 " fill="#E2E2F0" style="stroke:#181818;stroke-width:1.5;"/><path d="M537.1064,593.2344 C537.1064,603.2344 555.1064,603.2344 555.1064,603.2344 C555.1064,603.2344 573.1064,603.2344 573.1064,593.2344 " fill="none" style="stroke:#181818;stroke-width:1.5;"/><rect fill="#E2E2F0" height="31.6094" rx="2.5" ry="2.5" style="stroke:#181818;stroke-width:0.5;" width="59.9307" x="589.5063" y="88.6094"/><text fill="#000000" font-family="sans-serif" font-size="14" lengthAdjust="spacing" textLength="45.9307" x="596.5063" y="110.1426">pandas</text><rect fill="#E2E2F0" height="31.6094" rx="2.5" ry="2.5" style="stroke:#181818;stroke-width:0.5;" width="59.9307" x="589.5063" y="565.625"/><text fill="#000000" font-family="sans-serif" font-size="14" lengthAdjust="spacing" textLength="45.9307" x="596.5063" y="587.1582">pandas</text><polygon fill="#181818" points="151.7896,149.5703,161.7896,153.5703,151.7896,157.5703,155.7896,153.5703" style="stroke:#181818;stroke-width:1;"/><line style="stroke:#181818;stroke-width:1;" x1="32.1206" x2="157.7896" y1="153.5703" y2="153.5703"/><text fill="#000000" font-family="sans-serif" font-size="13" lengthAdjust="spacing" textLength="107.6689" x="39.1206" y="148.7139">solicita exporta&#231;&#227;o</text><path d="M123.1724,168.5703 L183.3433,168.5703 L183.3433,176.9219 L173.3433,186.9219 L123.1724,186.9219 L123.1724,168.5703 " fill="#EEEEEE" style="stroke:#000000;stroke-width:1.5;"/><rect fill="none" height="198.9453" style="stroke:#000000;stroke-width:1.5;" width="466.334" x="123.1724" y="168.5703"/><text fill="#000000" font-family="sans-serif" font-size="13" font-weight="bold" lengthAdjust="spacing" textLength="15.1709" x="138.1724" y="183.0654">alt</text><text fill="#000000" font-family="sans-serif" font-size="11" font-weight="bold" lengthAdjust="spacing" textLength="185.8184" x="198.3433" y="181.9893">[or&#231;amento individual em mem&#243;ria]</text><polygon fill="#181818" points="348.4521,205.2734,358.4521,209.2734,348.4521,213.2734,352.4521,209.2734" style="stroke:#181818;stroke-width:1;"/><line style="stroke:#181818;stroke-width:1;" x1="163.7896" x2="354.4521" y1="209.2734" y2="209.2734"/><text fill="#000000" font-family="sans-serif" font-size="13" lengthAdjust="spacing" textLength="127.1563" x="170.7896" y="204.417">gerar_csv(orcamento)</text><line style="stroke:#181818;stroke-width:1;" x1="360.4521" x2="402.4521" y1="239.625" y2="239.625"/><line style="stroke:#181818;stroke-width:1;" x1="402.4521" x2="402.4521" y1="239.625" y2="252.625"/><line style="stroke:#181818;stroke-width:1;" x1="361.4521" x2="402.4521" y1="252.625" y2="252.625"/><polygon fill="#181818" points="371.4521,248.625,361.4521,252.625,371.4521,256.625,367.4521,252.625" style="stroke:#181818;stroke-width:1;"/><text fill="#000000" font-family="sans-serif" font-size="13" lengthAdjust="spacing" textLength="180.6543" x="367.4521" y="234.7686">obter cronograma de 12 meses</text><line style="stroke:#000000;stroke-width:1;stroke-dasharray:2.0,2.0;" x1="123.1724" x2="589.5063" y1="261.625" y2="261.625"/><text fill="#000000" font-family="sans-serif" font-size="11" font-weight="bold" lengthAdjust="spacing" textLength="121.6123" x="128.1724" y="273.0439">[hist&#243;rico consolidado]</text><polygon fill="#181818" points="543.1064,294.8125,553.1064,298.8125,543.1064,302.8125,547.1064,298.8125" style="stroke:#181818;stroke-width:1;"/><line style="stroke:#181818;stroke-width:1;" x1="163.7896" x2="549.1064" y1="298.8125" y2="298.8125"/><text fill="#000000" font-family="sans-serif" font-size="13" lengthAdjust="spacing" textLength="111.2554" x="170.7896" y="293.9561">listar_orcamentos()</text><polygon fill="#181818" points="174.7896,325.1641,164.7896,329.1641,174.7896,333.1641,170.7896,329.1641" style="stroke:#181818;stroke-width:1;"/><line style="stroke:#181818;stroke-width:1;stroke-dasharray:2.0,2.0;" x1="168.7896" x2="554.1064" y1="329.1641" y2="329.1641"/><text fill="#000000" font-family="sans-serif" font-size="13" lengthAdjust="spacing" textLength="49.8481" x="180.7896" y="324.3076">registros</text><polygon fill="#181818" points="348.4521,355.5156,358.4521,359.5156,348.4521,363.5156,352.4521,359.5156" style="stroke:#181818;stroke-width:1;"/><line style="stroke:#181818;stroke-width:1;" x1="163.7896" x2="354.4521" y1="359.5156" y2="359.5156"/><text fill="#000000" font-family="sans-serif" font-size="13" lengthAdjust="spacing" textLength="172.6626" x="170.7896" y="354.6592">gerar_csv_registros(registros)</text><polygon fill="#181818" points="607.4717,392.8672,617.4717,396.8672,607.4717,400.8672,611.4717,396.8672" style="stroke:#181818;stroke-width:1;"/><line style="stroke:#181818;stroke-width:1;" x1="360.4521" x2="613.4717" y1="396.8672" y2="396.8672"/><text fill="#000000" font-family="sans-serif" font-size="13" lengthAdjust="spacing" textLength="109.0972" x="367.4521" y="392.0107">DataFrame(dados)</text><polygon fill="#181818" points="371.4521,423.2188,361.4521,427.2188,371.4521,431.2188,367.4521,427.2188" style="stroke:#181818;stroke-width:1;"/><line style="stroke:#181818;stroke-width:1;stroke-dasharray:2.0,2.0;" x1="365.4521" x2="618.4717" y1="427.2188" y2="427.2188"/><text fill="#000000" font-family="sans-serif" font-size="13" lengthAdjust="spacing" textLength="35.4199" x="377.4521" y="422.3623">tabela</text><polygon fill="#181818" points="607.4717,453.5703,617.4717,457.5703,607.4717,461.5703,611.4717,457.5703" style="stroke:#181818;stroke-width:1;"/><line style="stroke:#181818;stroke-width:1;" x1="360.4521" x2="613.4717" y1="457.5703" y2="457.5703"/><text fill="#000000" font-family="sans-serif" font-size="13" lengthAdjust="spacing" textLength="156.0444" x="367.4521" y="452.7139">to_csv(UTF-8, separador ;)</text><polygon fill="#181818" points="371.4521,483.9219,361.4521,487.9219,371.4521,491.9219,367.4521,487.9219" style="stroke:#181818;stroke-width:1;"/><line style="stroke:#181818;stroke-width:1;stroke-dasharray:2.0,2.0;" x1="365.4521" x2="618.4717" y1="487.9219" y2="487.9219"/><text fill="#000000" font-family="sans-serif" font-size="13" lengthAdjust="spacing" textLength="61.4136" x="377.4521" y="483.0654">bytes CSV</text><polygon fill="#181818" points="174.7896,514.2734,164.7896,518.2734,174.7896,522.2734,170.7896,518.2734" style="stroke:#181818;stroke-width:1;"/><line style="stroke:#181818;stroke-width:1;stroke-dasharray:2.0,2.0;" x1="168.7896" x2="359.4521" y1="518.2734" y2="518.2734"/><text fill="#000000" font-family="sans-serif" font-size="13" lengthAdjust="spacing" textLength="42.6372" x="180.7896" y="513.417">arquivo</text><polygon fill="#181818" points="43.1206,544.625,33.1206,548.625,43.1206,552.625,39.1206,548.625" style="stroke:#181818;stroke-width:1;"/><line style="stroke:#181818;stroke-width:1;stroke-dasharray:2.0,2.0;" x1="37.1206" x2="162.7896" y1="548.625" y2="548.625"/><text fill="#000000" font-family="sans-serif" font-size="13" lengthAdjust="spacing" textLength="55.6563" x="49.1206" y="543.7686">download</text><!--SRC=[VLAzJWCn3Dxp51wBH0UOq24nbACJ2ogm8ZUnIgHSN1nVWST134YiFCAz6BuxUdH0B55aV_b-x6ZKH517t0Ws285WHKzjzvbzH9Z3rSkMHR7xwDuPBbVt3hsom5rfkpU9xDRSve3o2YiLmYP51Inm7-dPUSugd7ueLYIxwAdlZWKNK76DnGHlhgCEdNhXjYWQVTnYLh0ZO75khmRpYu6wWiB9G8f01_uS9WMMxWCRoieGSuYx65fCG0qqr7HV4j71mD5pZKOgs92WFFYocx7uyV6HmSRs8P3NIW9UEFCqhfDJeovK72NByXYBzZAUmVBtDWC6Fj2i5nKa0vdW95PclLozWFaKK6XZ8E7odzs72JMRRaUESd2_riSPLb3Rj9VccMQz8OEDZK5oJspxe8H_F5OUfdDtkvoV7KCXMvAH29p_IRD-LIh3PzapJR5GdjguOpT6il9-jHK4Viw9CNm3]--></g></svg>